SeanSans-WideExtrabold.ufo
<glyph name="exclam" format="1">
  <advance width="273"/>
  <unicode hex="0021"/>
  <outline>
    <contour>
      <point x="191" y="229" type="line"/>
      <point x="208" y="722" type="line"/>
      <point x="64" y="722" type="line"/>
      <point x="81" y="229" type="line"/>
    </contour>
    <contour>
      <point x="219" y="58" type="curve"/>
      <point x="219" y="104"/>
      <point x="184" y="126"/>
      <point x="135" y="126" type="curve"/>
      <point x="87" y="126"/>
      <point x="54" y="101"/>
      <point x="54" y="58" type="curve"/>
      <point x="217" y="58"/>
      <point x="57" y="58"/>
      <point x="219" y="58" type="curve"/>
      <point x="219" y="11"/>
      <point x="184" y="-9"/>
      <point x="135" y="-9" type="curve"/>
      <point x="86" y="-9"/>
      <point x="54" y="13"/>
      <point x="54" y="58" type="curve"/>
      <point x="217" y="58"/>
      <point x="57" y="58"/>
    </contour>
  </outline>
</glyph>
<glyph name="quotedbl" format="1">
  <advance width="479"/>
  <unicode hex="0022"/>
  <outline>
    <contour>
      <point x="191" y="612" type="line"/>
      <point x="200" y="840" type="line"/>
      <point x="43" y="840" type="line"/>
      <point x="52" y="612" type="line"/>
    </contour>
    <contour>
      <point x="427" y="612" type="line"/>
      <point x="436" y="840" type="line"/>
      <point x="279" y="840" type="line"/>
      <point x="288" y="612" type="line"/>
    </contour>
  </outline>
</glyph>
<glyph name="numbersign" format="1">
  <advance width="824"/>
  <unicode hex="0023"/>
  <outline>
    <contour>
      <point x="31" y="219" type="curve"/>
      <point x="669" y="219" type="curve"/>
      <point x="710" y="323" type="curve"/>
      <point x="74" y="323" type="curve"/>
    </contour>
    <contour>
      <point x="114" y="434" type="curve"/>
      <point x="757" y="434" type="curve"/>
      <point x="797" y="538" type="curve"/>
      <point x="155" y="538" type="curve"/>
    </contour>
    <contour>
      <point x="518" y="39" type="curve"/>
      <point x="790" y="722" type="curve"/>
      <point x="648" y="722" type="curve"/>
      <point x="377" y="39" type="curve"/>
    </contour>
    <contour>
      <point x="185" y="46" type="curve"/>
      <point x="453" y="722" type="curve"/>
      <point x="312" y="722" type="curve"/>
      <point x="50" y="46" type="curve"/>
    </contour>
  </outline>
</glyph>
<glyph name="dollar" format="1">
  <advance width="679"/>
  <unicode hex="0024"/>
  <outline>
    <contour>
      <point x="381" y="-39" type="curve"/>
      <point x="381" y="-9"/>
      <point x="381" y="64"/>
      <point x="381" y="94" type="curve"/>
      <point x="239" y="94"/>
      <point x="381" y="94"/>
      <point x="239" y="94" type="curve"/>
      <point x="239" y="64"/>
      <point x="239" y="-9"/>
      <point x="239" y="-39" type="curve"/>
      <point x="381" y="-39"/>
      <point x="239" y="-39"/>
    </contour>
    <contour>
      <point x="395" y="635" type="curve"/>
      <point x="395" y="665"/>
      <point x="395" y="743"/>
      <point x="395" y="773" type="curve"/>
      <point x="255" y="773"/>
      <point x="395" y="773"/>
      <point x="255" y="773" type="curve"/>
      <point x="255" y="743"/>
      <point x="255" y="665"/>
      <point x="255" y="635" type="curve"/>
      <point x="395" y="635"/>
      <point x="255" y="635"/>
    </contour>
    <contour>
      <point x="35" y="92" type="curve"/>
      <point x="112" y="65"/>
      <point x="202" y="42"/>
      <point x="303" y="42" type="curve"/>
      <point x="488" y="42"/>
      <point x="649" y="76"/>
      <point x="649" y="220" type="curve"/>
      <point x="649" y="345"/>
      <point x="510" y="378"/>
      <point x="370" y="420" type="curve"/>
      <point x="276" y="448"/>
      <point x="181" y="460"/>
      <point x="181" y="521" type="curve"/>
      <point x="181" y="576"/>
      <point x="251" y="584"/>
      <point x="328" y="584" type="curve"/>
      <point x="405" y="584"/>
      <point x="460" y="574"/>
      <point x="542" y="546" type="curve"/>
      <point x="600" y="635"/>
      <point x="542" y="546"/>
      <point x="600" y="635" type="curve"/>
      <point x="509" y="669"/>
      <point x="436" y="687"/>
      <point x="335" y="687" type="curve"/>
      <point x="173" y="687"/>
      <point x="40" y="649"/>
      <point x="40" y="521" type="curve"/>
      <point x="40" y="403"/>
      <point x="153" y="367"/>
      <point x="286" y="327" type="curve"/>
      <point x="388" y="297"/>
      <point x="508" y="286"/>
      <point x="508" y="214" type="curve"/>
      <point x="508" y="155"/>
      <point x="415" y="146"/>
      <point x="316" y="146" type="curve"/>
      <point x="239" y="146"/>
      <point x="170" y="165"/>
      <point x="97" y="188" type="curve"/>
      <point x="35" y="91"/>
      <point x="97" y="188"/>
    </contour>
  </outline>
</glyph>
<glyph name="percent" format="1">
  <advance width="1288"/>
  <unicode hex="0025"/>
  <outline>
    <contour>
      <point x="447" y="-40" type="line"/>
      <point x="980" y="710" type="line"/>
      <point x="851" y="710" type="line"/>
      <point x="318" y="-40" type="line"/>
    </contour>
    <contour>
      <point x="160" y="491" type="curve"/>
      <point x="160" y="565"/>
      <point x="205" y="611"/>
      <point x="278" y="611" type="curve"/>
      <point x="353" y="612"/>
      <point x="398" y="565"/>
      <point x="398" y="489" type="curve"/>
      <point x="398" y="415"/>
      <point x="357" y="366"/>
      <point x="286" y="366" type="curve"/>
      <point x="208" y="366"/>
      <point x="160" y="413"/>
      <point x="160" y="491" type="curve"/>
      <point x="111" y="491"/>
      <point x="77" y="491"/>
      <point x="27" y="491" type="curve"/>
      <point x="27" y="345"/>
      <point x="128" y="264"/>
      <point x="279" y="264" type="curve"/>
      <point x="433" y="264"/>
      <point x="537" y="345"/>
      <point x="537" y="494" type="curve"/>
      <point x="537" y="637"/>
      <point x="434" y="713"/>
      <point x="284" y="713" type="curve"/>
      <point x="132" y="713"/>
      <point x="27" y="636"/>
      <point x="27" y="491" type="curve"/>
      <point x="77" y="491"/>
      <point x="111" y="491"/>
    </contour>
    <contour>
      <point x="884" y="180" type="curve"/>
      <point x="884" y="254"/>
      <point x="928" y="300"/>
      <point x="1001" y="300" type="curve"/>
      <point x="1076" y="301"/>
      <point x="1121" y="255"/>
      <point x="1121" y="179" type="curve"/>
      <point x="1121" y="105"/>
      <point x="1081" y="56"/>
      <point x="1009" y="56" type="curve"/>
      <point x="932" y="56"/>
      <point x="884" y="103"/>
      <point x="884" y="180" type="curve"/>
      <point x="834" y="180"/>
      <point x="801" y="180"/>
      <point x="751" y="180" type="curve"/>
      <point x="751" y="35"/>
      <point x="852" y="-47"/>
      <point x="1002" y="-47" type="curve"/>
      <point x="1156" y="-47"/>
      <point x="1260" y="35"/>
      <point x="1260" y="184" type="curve"/>
      <point x="1260" y="327"/>
      <point x="1157" y="403"/>
      <point x="1008" y="403" type="curve"/>
      <point x="855" y="403"/>
      <point x="751" y="326"/>
      <point x="751" y="180" type="curve"/>
      <point x="801" y="180"/>
      <point x="834" y="180"/>
    </contour>
  </outline>
</glyph>
<glyph name="ampersand" format="1">
  <advance width="860"/>
  <unicode hex="0026"/>
  <outline>
    <contour>
      <point x="830" y="73" type="line"/>
      <point x="707" y="165"/>
      <point x="560" y="278"/>
      <point x="432" y="376" type="curve"/>
      <point x="363" y="430"/>
      <point x="270" y="461"/>
      <point x="270" y="551" type="curve"/>
      <point x="270" y="598"/>
      <point x="308" y="623"/>
      <point x="358" y="623" type="curve"/>
      <point x="418" y="623"/>
      <point x="468" y="606"/>
      <point x="468" y="553" type="curve"/>
      <point x="467" y="469"/>
      <point x="385" y="450"/>
      <point x="303" y="417" type="curve"/>
      <point x="174" y="364"/>
      <point x="45" y="332"/>
      <point x="45" y="199" type="curve"/>
      <point x="45" y="51"/>
      <point x="186" y="-5"/>
      <point x="352" y="-5" type="curve"/>
      <point x="573" y="-5"/>
      <point x="727" y="109"/>
      <point x="816" y="312" type="curve"/>
      <point x="694" y="339"/>
      <point x="816" y="312"/>
      <point x="694" y="339" type="curve"/>
      <point x="628" y="189"/>
      <point x="520" y="99"/>
      <point x="358" y="99" type="curve"/>
      <point x="267" y="99"/>
      <point x="186" y="119"/>
      <point x="186" y="199" type="curve"/>
      <point x="186" y="287"/>
      <point x="276" y="299"/>
      <point x="361" y="335" type="curve"/>
      <point x="485" y="386"/>
      <point x="607" y="424"/>
      <point x="609" y="553" type="curve"/>
      <point x="609" y="675"/>
      <point x="498" y="727"/>
      <point x="365" y="727" type="curve"/>
      <point x="234" y="727"/>
      <point x="131" y="671"/>
      <point x="131" y="551" type="curve"/>
      <point x="131" y="434"/>
      <point x="241" y="384"/>
      <point x="336" y="314" type="curve"/>
      <point x="463" y="214"/>
      <point x="634" y="83"/>
      <point x="758" y="-12" type="curve"/>
    </contour>
  </outline>
</glyph>
<glyph name="parenleft" format="1">
  <advance width="452"/>
  <unicode hex="0028"/>
  <outline>
    <contour>
      <point x="450" y="-207" type="curve"/>
      <point x="268" y="-62"/>
      <point x="174" y="93"/>
      <point x="174" y="326" type="curve"/>
      <point x="174" y="560"/>
      <point x="268" y="714"/>
      <point x="449" y="862" type="curve"/>
      <point x="366" y="929"/>
      <point x="449" y="862"/>
      <point x="366" y="929" type="curve"/>
      <point x="155" y="762"/>
      <point x="35" y="595"/>
      <point x="35" y="326" type="curve"/>
      <point x="35" y="56"/>
      <point x="155" y="-111"/>
      <point x="367" y="-279" type="curve"/>
      <point x="450" y="-207"/>
      <point x="367" y="-279"/>
    </contour>
  </outline>
</glyph>
<glyph name="parenright" format="1">
  <advance width="466"/>
  <unicode hex="0029"/>
  <outline>
    <contour>
      <point x="83" y="-293" type="curve"/>
      <point x="298" y="-117"/>
      <point x="431" y="50"/>
      <point x="431" y="329" type="curve"/>
      <point x="431" y="601"/>
      <point x="305" y="767"/>
      <point x="87" y="931" type="curve"/>
      <point x="4" y="859"/>
      <point x="87" y="931"/>
      <point x="4" y="859" type="curve"/>
      <point x="190" y="712"/>
      <point x="292" y="560"/>
      <point x="292" y="324" type="curve"/>
      <point x="292" y="83"/>
      <point x="181" y="-68"/>
      <point x="-1" y="-226" type="curve"/>
      <point x="83" y="-293"/>
      <point x="-1" y="-226"/>
    </contour>
  </outline>
</glyph>
<glyph name="asterisk" format="1">
  <advance width="568"/>
  <unicode hex="002A"/>
  <outline>
    <contour>
      <point x="331" y="603" type="line"/>
      <point x="337" y="832" type="line"/>
      <point x="226" y="832" type="line"/>
      <point x="233" y="603" type="line"/>
    </contour>
    <contour>
      <point x="310" y="551" type="line"/>
      <point x="526" y="622" type="line"/>
      <point x="489" y="727" type="line"/>
      <point x="276" y="644" type="line"/>
    </contour>
    <contour>
      <point x="252" y="554" type="line"/>
      <point x="393" y="374" type="line"/>
      <point x="478" y="446" type="line"/>
      <point x="328" y="617" type="line"/>
    </contour>
    <contour>
      <point x="240" y="616" type="line"/>
      <point x="90" y="444" type="line"/>
      <point x="175" y="373" type="line"/>
      <point x="315" y="553" type="line"/>
    </contour>
    <contour>
      <point x="289" y="642" type="line"/>
      <point x="77" y="725" type="line"/>
      <point x="39" y="621" type="line"/>
      <point x="256" y="550" type="line"/>
    </contour>
  </outline>
</glyph>
<glyph name="plus" format="1">
  <advance width="667"/>
  <unicode hex="002B"/>
  <outline>
    <contour>
      <point x="34" y="256" type="curve"/>
      <point x="633" y="256" type="line"/>
      <point x="633" y="370"/>
      <point x="633" y="256"/>
      <point x="633" y="370" type="curve"/>
      <point x="34" y="370" type="line"/>
      <point x="34" y="256"/>
      <point x="34" y="370"/>
    </contour>
    <contour>
      <point x="403" y="21" type="curve"/>
      <point x="403" y="587" type="line"/>
      <point x="262" y="587"/>
      <point x="412" y="587"/>
      <point x="271" y="587" type="curve"/>
      <point x="271" y="21" type="line"/>
      <point x="412" y="21"/>
      <point x="262" y="21"/>
    </contour>
  </outline>
</glyph>
<glyph name="comma" format="1">
  <advance width="245"/>
  <unicode hex="002C"/>
  <outline>
    <contour>
      <point x="14" y="-122" type="line"/>
      <point x="122" y="-119"/>
      <point x="200" y="-50"/>
      <point x="200" y="53" type="curve"/>
      <point x="200" y="126"/>
      <point x="162" y="184"/>
      <point x="101" y="184" type="curve"/>
      <point x="54" y="184"/>
      <point x="20" y="160"/>
      <point x="20" y="116" type="curve"/>
      <point x="20" y="70"/>
      <point x="55" y="47"/>
      <point x="105" y="46" type="curve"/>
      <point x="103" y="3"/>
      <point x="86" y="-37"/>
      <point x="12" y="-49" type="curve"/>
    </contour>
  </outline>
</glyph>
<glyph name="hyphen" format="1">
  <advance width="475"/>
  <unicode hex="002D"/>
  <outline>
    <contour>
      <point x="55" y="226" type="curve"/>
      <point x="176" y="226"/>
      <point x="298" y="226"/>
      <point x="420" y="226" type="curve"/>
      <point x="420" y="340"/>
      <point x="420" y="226"/>
      <point x="420" y="340" type="curve"/>
      <point x="298" y="340"/>
      <point x="176" y="340"/>
      <point x="55" y="340" type="curve"/>
      <point x="55" y="226"/>
      <point x="55" y="340"/>
    </contour>
  </outline>
</glyph>
<glyph name="period" format="1">
  <advance width="261"/>
  <unicode hex="002E"/>
  <outline>
    <contour>
      <point x="213" y="58" type="curve"/>
      <point x="213" y="104"/>
      <point x="177" y="126"/>
      <point x="129" y="126" type="curve"/>
      <point x="81" y="126"/>
      <point x="48" y="101"/>
      <point x="48" y="58" type="curve"/>
      <point x="210" y="58"/>
      <point x="51" y="58"/>
      <point x="213" y="58" type="curve"/>
      <point x="213" y="11"/>
      <point x="178" y="-9"/>
      <point x="128" y="-9" type="curve"/>
      <point x="80" y="-9"/>
      <point x="48" y="13"/>
      <point x="48" y="58" type="curve"/>
      <point x="210" y="58"/>
      <point x="51" y="58"/>
    </contour>
  </outline>
</glyph>
<glyph name="slash" format="1">
  <advance width="713"/>
  <unicode hex="002F"/>
  <outline>
    <contour>
      <point x="161" y="-17" type="curve"/>
      <point x="338" y="251"/>
      <point x="516" y="518"/>
      <point x="694" y="786" type="curve"/>
      <point x="552" y="786"/>
      <point x="694" y="786"/>
      <point x="552" y="786" type="curve"/>
      <point x="375" y="518"/>
      <point x="197" y="251"/>
      <point x="20" y="-17" type="curve"/>
      <point x="161" y="-17"/>
      <point x="20" y="-17"/>
    </contour>
  </outline>
</glyph>
<glyph name="zero" format="1">
  <advance width="876"/>
  <unicode hex="0030"/>
  <outline>
    <contour>
      <point x="187" y="360" type="curve"/>
      <point x="187" y="523"/>
      <point x="280" y="618"/>
      <point x="434" y="618" type="curve"/>
      <point x="590" y="618"/>
      <point x="689" y="526"/>
      <point x="689" y="363" type="curve"/>
      <point x="689" y="200"/>
      <point x="597" y="104"/>
      <point x="446" y="104" type="curve"/>
      <point x="287" y="104"/>
      <point x="187" y="196"/>
      <point x="187" y="360" type="curve"/>
      <point x="44" y="360"/>
      <point x="187" y="360"/>
      <point x="44" y="360" type="curve"/>
      <point x="44" y="124"/>
      <point x="200" y="-5"/>
      <point x="440" y="-5" type="curve"/>
      <point x="679" y="-5"/>
      <point x="833" y="125"/>
      <point x="833" y="363" type="curve"/>
      <point x="833" y="598"/>
      <point x="682" y="727"/>
      <point x="447" y="727" type="curve"/>
      <point x="203" y="727"/>
      <point x="44" y="599"/>
      <point x="44" y="360" type="curve"/>
      <point x="187" y="360"/>
      <point x="44" y="360"/>
    </contour>
  </outline>
</glyph>
<glyph name="one" format="1">
  <advance width="445"/>
  <unicode hex="0031"/>
  <outline>
    <contour>
      <point x="71" y="465" type="curve"/>
      <point x="347" y="652"/>
      <point x="71" y="465"/>
      <point x="347" y="652" type="curve"/>
      <point x="243" y="722"/>
      <point x="347" y="652"/>
      <point x="243" y="722" type="curve"/>
      <point x="8" y="568"/>
      <point x="243" y="722"/>
      <point x="8" y="568" type="curve"/>
      <point x="71" y="465"/>
      <point x="8" y="568"/>
    </contour>
    <contour>
      <point x="383" y="0" type="curve"/>
      <point x="383" y="241"/>
      <point x="383" y="481"/>
      <point x="383" y="722" type="curve"/>
      <point x="243" y="722"/>
      <point x="383" y="722"/>
      <point x="243" y="722" type="curve"/>
      <point x="243" y="481"/>
      <point x="243" y="241"/>
      <point x="243" y="0" type="curve"/>
      <point x="383" y="0"/>
      <point x="243" y="0"/>
    </contour>
  </outline>
</glyph>
<glyph name="two" format="1">
  <advance width="710"/>
  <unicode hex="0032"/>
  <outline>
    <contour>
      <point x="35" y="0" type="curve"/>
      <point x="285" y="0"/>
      <point x="488" y="0"/>
      <point x="673" y="0" type="curve"/>
      <point x="673" y="104"/>
      <point x="673" y="0"/>
      <point x="673" y="104" type="curve"/>
      <point x="466" y="104"/>
      <point x="242" y="104"/>
      <point x="36" y="104" type="curve"/>
      <point x="35" y="0"/>
      <point x="36" y="104"/>
    </contour>
    <contour>
      <point x="138" y="511" type="curve"/>
      <point x="206" y="583"/>
      <point x="260" y="618"/>
      <point x="345" y="618" type="curve"/>
      <point x="435" y="618"/>
      <point x="503" y="589"/>
      <point x="503" y="504" type="curve"/>
      <point x="503" y="402"/>
      <point x="411" y="348"/>
      <point x="311" y="285" type="curve"/>
      <point x="219" y="224"/>
      <point x="128" y="165"/>
      <point x="36" y="104" type="curve"/>
      <point x="37" y="0"/>
      <point x="36" y="104"/>
      <point x="37" y="0" type="curve"/>
      <point x="206" y="67"/>
      <point x="300" y="136"/>
      <point x="401" y="203" type="curve"/>
      <point x="533" y="285"/>
      <point x="633" y="355"/>
      <point x="633" y="510" type="curve"/>
      <point x="633" y="664"/>
      <point x="517" y="727"/>
      <point x="351" y="727" type="curve"/>
      <point x="219" y="727"/>
      <point x="117" y="681"/>
      <point x="45" y="576" type="curve"/>
      <point x="138" y="511"/>
      <point x="45" y="576"/>
    </contour>
  </outline>
</glyph>
<glyph name="three" format="1">
  <advance width="654"/>
  <unicode hex="0033"/>
  <outline>
    <contour>
      <point x="33" y="54" type="curve"/>
      <point x="91" y="20"/>
      <point x="178" y="-5"/>
      <point x="277" y="-5" type="curve"/>
      <point x="467" y="-5"/>
      <point x="612" y="42"/>
      <point x="612" y="221" type="curve"/>
      <point x="612" y="373"/>
      <point x="426" y="416"/>
      <point x="181" y="416" type="curve"/>
      <point x="181" y="329"/>
      <point x="181" y="416"/>
      <point x="181" y="328" type="curve"/>
      <point x="326" y="328"/>
      <point x="477" y="309"/>
      <point x="477" y="217" type="curve"/>
      <point x="477" y="114"/>
      <point x="378" y="104"/>
      <point x="281" y="104" type="curve"/>
      <point x="229" y="104"/>
      <point x="160" y="117"/>
      <point x="94" y="144" type="curve"/>
      <point x="33" y="54"/>
      <point x="94" y="144"/>
    </contour>
    <contour>
      <point x="104" y="562" type="curve"/>
      <point x="143" y="591"/>
      <point x="211" y="618"/>
      <point x="274" y="618" type="curve"/>
      <point x="364" y="618"/>
      <point x="436" y="607"/>
      <point x="436" y="526" type="curve"/>
      <point x="436" y="444"/>
      <point x="309" y="426"/>
      <point x="181" y="426" type="curve"/>
      <point x="181" y="338"/>
      <point x="181" y="426"/>
      <point x="181" y="338" type="curve"/>
      <point x="392" y="338"/>
      <point x="570" y="382"/>
      <point x="570" y="531" type="curve"/>
      <point x="570" y="679"/>
      <point x="446" y="727"/>
      <point x="284" y="727" type="curve"/>
      <point x="179" y="727"/>
      <point x="82" y="688"/>
      <point x="34" y="642" type="curve"/>
      <point x="104" y="562"/>
      <point x="34" y="642"/>
    </contour>
  </outline>
</glyph>
<glyph name="four" format="1">
  <advance width="728"/>
  <unicode hex="0034"/>
  <outline>
    <contour>
      <point x="61" y="240" type="line"/>
      <point x="488" y="655" type="line"/>
      <point x="380" y="699" type="line"/>
      <point x="11" y="343" type="line"/>
    </contour>
    <contour>
      <point x="696" y="343" type="line"/>
      <point x="11" y="343" type="line"/>
      <point x="11" y="229" type="line"/>
      <point x="696" y="229" type="line"/>
    </contour>
    <contour>
      <point x="521" y="0" type="line"/>
      <point x="521" y="699" type="line"/>
      <point x="380" y="699" type="line"/>
      <point x="380" y="0" type="line"/>
    </contour>
  </outline>
</glyph>
<glyph name="five" format="1">
  <advance width="657"/>
  <unicode hex="0035"/>
  <outline>
    <contour>
      <point x="79" y="722" type="curve"/>
      <point x="79" y="627"/>
      <point x="79" y="515"/>
      <point x="79" y="375" type="curve"/>
      <point x="214" y="343"/>
      <point x="79" y="375"/>
      <point x="214" y="343" type="curve"/>
      <point x="214" y="429"/>
      <point x="214" y="532"/>
      <point x="214" y="618" type="curve"/>
      <point x="79" y="722"/>
      <point x="214" y="618"/>
    </contour>
    <contour>
      <point x="214" y="343" type="curve"/>
      <point x="238" y="360"/>
      <point x="287" y="370"/>
      <point x="316" y="370" type="curve"/>
      <point x="417" y="370"/>
      <point x="481" y="330"/>
      <point x="481" y="240" type="curve"/>
      <point x="481" y="149"/>
      <point x="394" y="104"/>
      <point x="292" y="104" type="curve"/>
      <point x="226" y="104"/>
      <point x="171" y="111"/>
      <point x="101" y="137" type="curve"/>
      <point x="40" y="43"/>
      <point x="101" y="137"/>
      <point x="40" y="43" type="curve"/>
      <point x="122" y="11"/>
      <point x="197" y="-5"/>
      <point x="287" y="-5" type="curve"/>
      <point x="468" y="-5"/>
      <point x="621" y="75"/>
      <point x="621" y="240" type="curve"/>
      <point x="621" y="398"/>
      <point x="495" y="480"/>
      <point x="322" y="480" type="curve"/>
      <point x="243" y="480"/>
      <point x="144" y="452"/>
      <point x="83" y="376" type="curve"/>
      <point x="214" y="344"/>
      <point x="82" y="375"/>
    </contour>
    <contour>
      <point x="582" y="722" type="curve"/>
      <point x="401" y="722"/>
      <point x="239" y="722"/>
      <point x="79" y="722" type="curve"/>
      <point x="214" y="618"/>
      <point x="79" y="722"/>
      <point x="214" y="618" type="curve"/>
      <point x="329" y="618"/>
      <point x="446" y="618"/>
      <point x="582" y="618" type="curve"/>
      <point x="582" y="722"/>
      <point x="582" y="618"/>
    </contour>
  </outline>
</glyph>
<glyph name="six" format="1">
  <advance width="723"/>
  <unicode hex="0036"/>
  <outline>
    <contour>
      <point x="153" y="223" type="curve"/>
      <point x="203" y="309"/>
      <point x="280" y="338"/>
      <point x="384" y="338" type="curve"/>
      <point x="477" y="338"/>
      <point x="546" y="310"/>
      <point x="546" y="224" type="curve"/>
      <point x="546" y="138"/>
      <point x="474" y="111"/>
      <point x="383" y="111" type="curve"/>
      <point x="263" y="111"/>
      <point x="174" y="154"/>
      <point x="174" y="258" type="curve"/>
      <point x="174" y="500"/>
      <point x="402" y="567"/>
      <point x="658" y="624" type="curve"/>
      <point x="628" y="728"/>
      <point x="658" y="624"/>
      <point x="628" y="728" type="curve"/>
      <point x="333" y="672"/>
      <point x="39" y="563"/>
      <point x="39" y="253" type="curve"/>
      <point x="39" y="72"/>
      <point x="181" y="-11"/>
      <point x="377" y="-11" type="curve"/>
      <point x="556" y="-11"/>
      <point x="688" y="60"/>
      <point x="688" y="224" type="curve"/>
      <point x="688" y="383"/>
      <point x="562" y="448"/>
      <point x="394" y="448" type="curve"/>
      <point x="246" y="448"/>
      <point x="133" y="372"/>
      <point x="59" y="273" type="curve"/>
      <point x="153" y="223"/>
      <point x="60" y="273"/>
    </contour>
  </outline>
</glyph>
<glyph name="eight" format="1">
  <advance width="709"/>
  <unicode hex="0038"/>
  <outline>
    <contour>
      <point x="68" y="538" type="curve"/>
      <point x="68" y="407"/>
      <point x="184" y="387"/>
      <point x="314" y="342" type="curve"/>
      <point x="423" y="304"/>
      <point x="524" y="295"/>
      <point x="524" y="192" type="curve"/>
      <point x="524" y="118"/>
      <point x="449" y="100"/>
      <point x="355" y="100" type="curve"/>
      <point x="259" y="100"/>
      <point x="185" y="117"/>
      <point x="185" y="192" type="curve"/>
      <point x="185" y="298"/>
      <point x="290" y="304"/>
      <point x="400" y="344" type="curve"/>
      <point x="527" y="391"/>
      <point x="641" y="408"/>
      <point x="641" y="537" type="curve"/>
      <point x="641" y="684"/>
      <point x="522" y="727"/>
      <point x="355" y="727" type="curve"/>
      <point x="191" y="727"/>
      <point x="68" y="682"/>
      <point x="68" y="538" type="curve"/>
      <point x="209" y="538"/>
      <point x="68" y="538"/>
      <point x="209" y="538" type="curve"/>
      <point x="209" y="602"/>
      <point x="270" y="621"/>
      <point x="348" y="621" type="curve"/>
      <point x="435" y="621"/>
      <point x="501" y="606"/>
      <point x="501" y="537" type="curve"/>
      <point x="501" y="447"/>
      <point x="407" y="446"/>
      <point x="312" y="414" type="curve"/>
      <point x="169" y="362"/>
      <point x="44" y="337"/>
      <point x="44" y="192" type="curve"/>
      <point x="44" y="39"/>
      <point x="174" y="-5"/>
      <point x="348" y="-5" type="curve"/>
      <point x="527" y="-5"/>
      <point x="665" y="34"/>
      <point x="665" y="192" type="curve"/>
      <point x="665" y="335"/>
      <point x="540" y="363"/>
      <point x="400" y="413" type="curve"/>
      <point x="304" y="449"/>
      <point x="209" y="450"/>
      <point x="209" y="538" type="curve"/>
      <point x="68" y="538"/>
      <point x="209" y="538"/>
    </contour>
  </outline>
</glyph>
<glyph name="nine" format="1">
  <advance width="723"/>
  <unicode hex="0039"/>
  <outline>
    <contour>
      <point x="569" y="496" type="curve"/>
      <point x="519" y="412"/>
      <point x="450" y="383"/>
      <point x="352" y="383" type="curve"/>
      <point x="251" y="383"/>
      <point x="174" y="413"/>
      <point x="174" y="504" type="curve"/>
      <point x="174" y="585"/>
      <point x="247" y="610"/>
      <point x="338" y="610" type="curve"/>
      <point x="458" y="610"/>
      <point x="547" y="571"/>
      <point x="547" y="464" type="curve"/>
      <point x="547" y="224"/>
      <point x="328" y="158"/>
      <point x="65" y="102" type="curve"/>
      <point x="97" y="-7"/>
      <point x="64" y="102"/>
      <point x="96" y="-7" type="curve"/>
      <point x="414" y="43"/>
      <point x="682" y="159"/>
      <point x="682" y="469" type="curve"/>
      <point x="682" y="650"/>
      <point x="540" y="733"/>
      <point x="344" y="733" type="curve"/>
      <point x="165" y="733"/>
      <point x="34" y="662"/>
      <point x="34" y="498" type="curve"/>
      <point x="34" y="339"/>
      <point x="164" y="274"/>
      <point x="339" y="274" type="curve"/>
      <point x="487" y="274"/>
      <point x="578" y="334"/>
      <point x="636" y="461" type="curve"/>
      <point x="569" y="496"/>
      <point x="636" y="461"/>
    </contour>
  </outline>
</glyph>
<glyph name="colon" format="1">
  <advance width="275"/>
  <unicode hex="003A"/>
  <outline>
    <contour>
      <point x="220" y="382" type="curve"/>
      <point x="220" y="429"/>
      <point x="184" y="450"/>
      <point x="136" y="450" type="curve"/>
      <point x="88" y="450"/>
      <point x="55" y="426"/>
      <point x="55" y="382" type="curve"/>
      <point x="217" y="382"/>
      <point x="57" y="382"/>
      <point x="220" y="382" type="curve"/>
      <point x="220" y="335"/>
      <point x="184" y="315"/>
      <point x="135" y="315" type="curve"/>
      <point x="87" y="315"/>
      <point x="55" y="338"/>
      <point x="55" y="382" type="curve"/>
      <point x="217" y="382"/>
      <point x="57" y="382"/>
    </contour>
    <contour>
      <point x="219" y="58" type="curve"/>
      <point x="219" y="104"/>
      <point x="183" y="126"/>
      <point x="135" y="126" type="curve"/>
      <point x="87" y="126"/>
      <point x="54" y="102"/>
      <point x="54" y="58" type="curve"/>
      <point x="216" y="58"/>
      <point x="57" y="58"/>
      <point x="219" y="58" type="curve"/>
      <point x="219" y="11"/>
      <point x="184" y="-9"/>
      <point x="134" y="-9" type="curve"/>
      <point x="86" y="-9"/>
      <point x="54" y="14"/>
      <point x="54" y="58" type="curve"/>
      <point x="216" y="58"/>
      <point x="57" y="58"/>
    </contour>
  </outline>
</glyph>
<glyph name="semicolon" format="1">
  <advance width="275"/>
  <unicode hex="003B"/>
  <outline>
    <contour>
      <point x="36" y="-163" type="line"/>
      <point x="145" y="-159"/>
      <point x="223" y="-90"/>
      <point x="223" y="12" type="curve"/>
      <point x="223" y="86"/>
      <point x="185" y="143"/>
      <point x="124" y="143" type="curve"/>
      <point x="76" y="143"/>
      <point x="42" y="120"/>
      <point x="42" y="75" type="curve"/>
      <point x="42" y="30"/>
      <point x="77" y="6"/>
      <point x="127" y="5" type="curve"/>
      <point x="126" y="-38"/>
      <point x="108" y="-78"/>
      <point x="34" y="-90" type="curve"/>
    </contour>
    <contour>
      <point x="202" y="382" type="curve"/>
      <point x="202" y="428"/>
      <point x="167" y="450"/>
      <point x="118" y="450" type="curve"/>
      <point x="70" y="450"/>
      <point x="37" y="426"/>
      <point x="37" y="382" type="curve"/>
      <point x="200" y="382"/>
      <point x="40" y="382"/>
      <point x="202" y="382" type="curve"/>
      <point x="202" y="335"/>
      <point x="167" y="315"/>
      <point x="118" y="315" type="curve"/>
      <point x="69" y="315"/>
      <point x="37" y="337"/>
      <point x="37" y="382" type="curve"/>
      <point x="200" y="382"/>
      <point x="40" y="382"/>
    </contour>
  </outline>
</glyph>
<glyph name="less" format="1">
  <advance width="846"/>
  <unicode hex="003C"/>
  <outline>
    <contour>
      <point x="788" y="627" type="curve"/>
      <point x="534" y="537"/>
      <point x="281" y="447"/>
      <point x="27" y="357" type="curve"/>
      <point x="27" y="243"/>
      <point x="27" y="357"/>
      <point x="27" y="243" type="curve"/>
      <point x="281" y="333"/>
      <point x="534" y="423"/>
      <point x="788" y="513" type="curve"/>
      <point x="788" y="627"/>
      <point x="788" y="513"/>
    </contour>
    <contour>
      <point x="801" y="93" type="curve"/>
      <point x="543" y="181"/>
      <point x="285" y="269"/>
      <point x="27" y="357" type="curve"/>
      <point x="27" y="243"/>
      <point x="27" y="357"/>
      <point x="27" y="243" type="curve"/>
      <point x="285" y="155"/>
      <point x="543" y="67"/>
      <point x="801" y="-21" type="curve"/>
      <point x="801" y="93"/>
      <point x="801" y="-21"/>
    </contour>
  </outline>
</glyph>
<glyph name="equal" format="1">
  <advance width="891"/>
  <unicode hex="003D"/>
  <outline>
    <contour>
      <point x="54" y="163" type="curve"/>
      <point x="316" y="163"/>
      <point x="578" y="163"/>
      <point x="840" y="163" type="curve"/>
      <point x="840" y="272"/>
      <point x="840" y="163"/>
      <point x="840" y="272" type="curve"/>
      <point x="578" y="272"/>
      <point x="316" y="272"/>
      <point x="54" y="272" type="curve"/>
      <point x="54" y="163"/>
      <point x="54" y="272"/>
    </contour>
    <contour>
      <point x="54" y="385" type="curve"/>
      <point x="316" y="385"/>
      <point x="578" y="385"/>
      <point x="840" y="385" type="curve"/>
      <point x="840" y="494"/>
      <point x="840" y="385"/>
      <point x="840" y="494" type="curve"/>
      <point x="578" y="494"/>
      <point x="316" y="494"/>
      <point x="54" y="494" type="curve"/>
      <point x="54" y="385"/>
      <point x="54" y="494"/>
    </contour>
  </outline>
</glyph>
<glyph name="greater" format="1">
  <advance width="848"/>
  <unicode hex="003E"/>
  <outline>
    <contour>
      <point x="58" y="-21" type="curve"/>
      <point x="312" y="69"/>
      <point x="566" y="159"/>
      <point x="820" y="249" type="curve"/>
      <point x="820" y="363"/>
      <point x="820" y="249"/>
      <point x="820" y="363" type="curve"/>
      <point x="566" y="273"/>
      <point x="312" y="183"/>
      <point x="58" y="93" type="curve"/>
      <point x="58" y="-21"/>
      <point x="58" y="93"/>
    </contour>
    <contour>
      <point x="45" y="513" type="curve"/>
      <point x="303" y="425"/>
      <point x="562" y="337"/>
      <point x="820" y="249" type="curve"/>
      <point x="820" y="363"/>
      <point x="820" y="249"/>
      <point x="820" y="363" type="curve"/>
      <point x="562" y="451"/>
      <point x="303" y="539"/>
      <point x="45" y="627" type="curve"/>
      <point x="45" y="513"/>
      <point x="45" y="627"/>
    </contour>
  </outline>
</glyph>
<glyph name="question" format="1">
  <advance width="620"/>
  <unicode hex="003F"/>
  <outline>
    <contour>
      <point x="212" y="377" type="curve"/>
      <point x="212" y="340"/>
      <point x="212" y="258"/>
      <point x="212" y="221" type="curve"/>
      <point x="352" y="221"/>
      <point x="212" y="221"/>
      <point x="352" y="221" type="curve"/>
      <point x="352" y="258"/>
      <point x="352" y="340"/>
      <point x="352" y="377" type="curve"/>
      <point x="212" y="377"/>
      <point x="352" y="377"/>
    </contour>
    <contour>
      <point x="111" y="570" type="line"/>
      <point x="151" y="609"/>
      <point x="216" y="643"/>
      <point x="289" y="643" type="curve"/>
      <point x="381" y="643"/>
      <point x="455" y="606"/>
      <point x="455" y="519" type="curve"/>
      <point x="455" y="421"/>
      <point x="355" y="377"/>
      <point x="227" y="377" type="curve"/>
      <point x="227" y="339"/>
      <point x="227" y="312"/>
      <point x="227" y="273" type="curve"/>
      <point x="432" y="273"/>
      <point x="589" y="354"/>
      <point x="589" y="519" type="curve"/>
      <point x="589" y="674"/>
      <point x="462" y="750"/>
      <point x="296" y="750" type="curve"/>
      <point x="192" y="750"/>
      <point x="111" y="717"/>
      <point x="39" y="650" type="curve"/>
    </contour>
    <contour>
      <point x="366" y="21" type="curve"/>
      <point x="366" y="67"/>
      <point x="331" y="88"/>
      <point x="283" y="88" type="curve"/>
      <point x="235" y="88"/>
      <point x="202" y="64"/>
      <point x="202" y="21" type="curve"/>
      <point x="366" y="21"/>
      <point x="202" y="21"/>
      <point x="366" y="21" type="curve"/>
      <point x="366" y="-26"/>
      <point x="331" y="-46"/>
      <point x="282" y="-46" type="curve"/>
      <point x="234" y="-46"/>
      <point x="202" y="-23"/>
      <point x="202" y="21" type="curve"/>
      <point x="366" y="21"/>
      <point x="202" y="21"/>
    </contour>
  </outline>
</glyph>
<glyph name="at" format="1">
  <advance width="1033"/>
  <unicode hex="0040"/>
  <outline>
    <contour>
      <point x="714" y="-5" type="curve"/>
      <point x="647" y="-27"/>
      <point x="600" y="-36"/>
      <point x="534" y="-36" type="curve"/>
      <point x="326" y="-36"/>
      <point x="172" y="29"/>
      <point x="172" y="215" type="curve"/>
      <point x="172" y="396"/>
      <point x="325" y="456"/>
      <point x="526" y="456" type="curve"/>
      <point x="717" y="456"/>
      <point x="858" y="388"/>
      <point x="858" y="216" type="curve"/>
      <point x="858" y="165"/>
      <point x="850" y="124"/>
      <point x="809" y="124" type="curve"/>
      <point x="763" y="124"/>
      <point x="747" y="165"/>
      <point x="747" y="220" type="curve"/>
      <point x="747" y="348"/>
      <point x="652" y="412"/>
      <point x="516" y="412" type="curve"/>
      <point x="365" y="412"/>
      <point x="262" y="353"/>
      <point x="262" y="216" type="curve"/>
      <point x="262" y="80"/>
      <point x="357" y="13"/>
      <point x="500" y="13" type="curve"/>
      <point x="623" y="13"/>
      <point x="699" y="78"/>
      <point x="726" y="200" type="curve"/>
      <point x="637" y="221"/>
      <point x="726" y="200"/>
      <point x="637" y="221" type="curve"/>
      <point x="616" y="156"/>
      <point x="584" y="117"/>
      <point x="519" y="117" type="curve"/>
      <point x="445" y="117"/>
      <point x="395" y="151"/>
      <point x="395" y="221" type="curve"/>
      <point x="395" y="282"/>
      <point x="440" y="308"/>
      <point x="503" y="308" type="curve"/>
      <point x="572" y="308"/>
      <point x="618" y="279"/>
      <point x="618" y="215" type="curve"/>
      <point x="618" y="98"/>
      <point x="682" y="26"/>
      <point x="798" y="26" type="curve"/>
      <point x="920" y="26"/>
      <point x="991" y="99"/>
      <point x="991" y="220" type="curve"/>
      <point x="991" y="463"/>
      <point x="798" y="564"/>
      <point x="533" y="564" type="curve"/>
      <point x="248" y="564"/>
      <point x="39" y="468"/>
      <point x="39" y="210" type="curve"/>
      <point x="39" y="-44"/>
      <point x="245" y="-140"/>
      <point x="527" y="-140" type="curve"/>
      <point x="620" y="-140"/>
      <point x="695" y="-121"/>
      <point x="760" y="-92" type="curve"/>
      <point x="714" y="-5"/>
      <point x="760" y="-92"/>
    </contour>
  </outline>
</glyph>
<glyph name="A" format="1">
  <advance width="870"/>
  <unicode hex="0041"/>
  <outline>
    <contour>
      <point x="641" y="310" type="curve"/>
      <point x="508" y="310"/>
      <point x="376" y="310"/>
      <point x="243" y="310" type="curve"/>
      <point x="185" y="200"/>
      <point x="243" y="310"/>
      <point x="185" y="200" type="curve"/>
      <point x="352" y="200"/>
      <point x="519" y="200"/>
      <point x="685" y="200" type="curve"/>
      <point x="641" y="310"/>
      <point x="685" y="200"/>
    </contour>
    <contour>
      <point x="859" y="0" type="curve"/>
      <point x="747" y="242"/>
      <point x="627" y="480"/>
      <point x="514" y="722" type="curve"/>
      <point x="386" y="722"/>
      <point x="514" y="722"/>
      <point x="386" y="722" type="curve"/>
      <point x="496" y="483"/>
      <point x="601" y="239"/>
      <point x="712" y="0" type="curve"/>
      <point x="859" y="0"/>
      <point x="712" y="0"/>
    </contour>
    <contour>
      <point x="149" y="0" type="curve"/>
      <point x="273" y="239"/>
      <point x="388" y="483"/>
      <point x="512" y="722" type="curve"/>
      <point x="384" y="722"/>
      <point x="512" y="722"/>
      <point x="384" y="722" type="curve"/>
      <point x="257" y="480"/>
      <point x="122" y="242"/>
      <point x="-4" y="0" type="curve"/>
      <point x="149" y="0"/>
      <point x="-4" y="0"/>
    </contour>
    <contour>
      <point x="448" y="786" type="move" name="top"/>
    </contour>
    <contour>
      <point x="808" y="5" type="move" name="bottom"/>
    </contour>
  </outline>
</glyph>
<glyph name="B" format="1">
  <advance width="751"/>
  <unicode hex="0042"/>
  <outline>
    <contour>
      <point x="133" y="618" type="curve"/>
      <point x="222" y="618"/>
      <point x="310" y="618"/>
      <point x="400" y="618" type="curve"/>
      <point x="464" y="618"/>
      <point x="515" y="594"/>
      <point x="515" y="532" type="curve"/>
      <point x="515" y="470"/>
      <point x="445" y="456"/>
      <point x="376" y="456" type="curve"/>
      <point x="295" y="456"/>
      <point x="214" y="456"/>
      <point x="133" y="456" type="curve"/>
      <point x="133" y="359"/>
      <point x="133" y="450"/>
      <point x="133" y="352" type="curve"/>
      <point x="191" y="352"/>
      <point x="249" y="352"/>
      <point x="308" y="352" type="curve"/>
      <point x="442" y="352"/>
      <point x="657" y="378"/>
      <point x="657" y="532" type="curve"/>
      <point x="657" y="667"/>
      <point x="548" y="722"/>
      <point x="401" y="722" type="curve"/>
      <point x="310" y="722"/>
      <point x="222" y="722"/>
      <point x="133" y="722" type="curve"/>
      <point x="133" y="624"/>
      <point x="133" y="716"/>
    </contour>
    <contour>
      <point x="220" y="0" type="curve"/>
      <point x="220" y="241"/>
      <point x="220" y="481"/>
      <point x="220" y="722" type="curve"/>
      <point x="72" y="722"/>
      <point x="220" y="722"/>
      <point x="72" y="722" type="curve"/>
      <point x="72" y="481"/>
      <point x="72" y="241"/>
      <point x="72" y="0" type="curve"/>
      <point x="220" y="0"/>
      <point x="72" y="0"/>
    </contour>
    <contour>
      <point x="133" y="352" type="curve"/>
      <point x="214" y="352"/>
      <point x="295" y="352"/>
      <point x="376" y="352" type="curve"/>
      <point x="484" y="352"/>
      <point x="574" y="322"/>
      <point x="574" y="223" type="curve"/>
      <point x="574" y="133"/>
      <point x="499" y="104"/>
      <point x="398" y="104" type="curve"/>
      <point x="308" y="104"/>
      <point x="221" y="104"/>
      <point x="133" y="104" type="curve"/>
      <point x="133" y="6"/>
      <point x="133" y="98"/>
      <point x="133" y="0" type="curve"/>
      <point x="221" y="0"/>
      <point x="309" y="0"/>
      <point x="398" y="0" type="curve"/>
      <point x="582" y="0"/>
      <point x="715" y="60"/>
      <point x="715" y="223" type="curve"/>
      <point x="715" y="417"/>
      <point x="478" y="456"/>
      <point x="308" y="456" type="curve"/>
      <point x="249" y="456"/>
      <point x="191" y="456"/>
      <point x="133" y="456" type="curve"/>
      <point x="133" y="359"/>
      <point x="133" y="450"/>
    </contour>
  </outline>
</glyph>
<glyph name="C" format="1">
  <advance width="825"/>
  <unicode hex="0043"/>
  <outline>
    <contour>
      <point x="811" y="654" type="curve"/>
      <point x="716" y="696"/>
      <point x="614" y="727"/>
      <point x="501" y="727" type="curve"/>
      <point x="230" y="727"/>
      <point x="41" y="602"/>
      <point x="41" y="344" type="curve"/>
      <point x="41" y="105"/>
      <point x="216" y="-5"/>
      <point x="470" y="-5" type="curve"/>
      <point x="618" y="-5"/>
      <point x="709" y="23"/>
      <point x="816" y="89" type="curve"/>
      <point x="760" y="179"/>
      <point x="815" y="89"/>
      <point x="759" y="179" type="curve"/>
      <point x="658" y="123"/>
      <point x="583" y="105"/>
      <point x="476" y="105" type="curve"/>
      <point x="301" y="105"/>
      <point x="182" y="184"/>
      <point x="182" y="349" type="curve"/>
      <point x="182" y="528"/>
      <point x="308" y="619"/>
      <point x="495" y="619" type="curve"/>
      <point x="582" y="619"/>
      <point x="661" y="604"/>
      <point x="755" y="565" type="curve"/>
      <point x="811" y="654"/>
      <point x="755" y="565"/>
    </contour>
    <contour>
      <point x="488" y="786" type="move" name="top"/>
    </contour>
    <contour>
      <point x="503" y="6" type="move" name="bottom"/>
    </contour>
  </outline>
</glyph>
<glyph name="D" format="1">
  <advance width="886"/>
  <unicode hex="0044"/>
  <outline>
    <contour>
      <point x="72" y="722" type="curve"/>
      <point x="72" y="481"/>
      <point x="72" y="241"/>
      <point x="72" y="0" type="curve"/>
      <point x="213" y="0"/>
      <point x="72" y="0"/>
      <point x="213" y="0" type="curve"/>
      <point x="213" y="241"/>
      <point x="213" y="481"/>
      <point x="213" y="722" type="curve"/>
      <point x="72" y="722"/>
      <point x="213" y="722"/>
    </contour>
    <contour>
      <point x="146" y="0" type="curve"/>
      <point x="227" y="0"/>
      <point x="308" y="0"/>
      <point x="390" y="0" type="curve"/>
      <point x="667" y="0"/>
      <point x="845" y="98"/>
      <point x="845" y="354" type="curve"/>
      <point x="845" y="618"/>
      <point x="665" y="722"/>
      <point x="382" y="722" type="curve"/>
      <point x="303" y="722"/>
      <point x="224" y="722"/>
      <point x="146" y="722" type="curve"/>
      <point x="146" y="618"/>
      <point x="146" y="722"/>
      <point x="146" y="618" type="curve"/>
      <point x="222" y="618"/>
      <point x="299" y="618"/>
      <point x="375" y="618" type="curve"/>
      <point x="578" y="618"/>
      <point x="705" y="539"/>
      <point x="705" y="349" type="curve"/>
      <point x="705" y="176"/>
      <point x="587" y="104"/>
      <point x="401" y="104" type="curve"/>
      <point x="316" y="104"/>
      <point x="231" y="104"/>
      <point x="146" y="104" type="curve"/>
      <point x="146" y="0"/>
      <point x="146" y="104"/>
    </contour>
    <contour>
      <point x="373" y="786" type="move" name="top"/>
    </contour>
  </outline>
</glyph>
<glyph name="F" format="1">
  <advance width="664"/>
  <unicode hex="0046"/>
  <outline>
    <contour>
      <point x="149" y="321" type="curve"/>
      <point x="282" y="321"/>
      <point x="417" y="321"/>
      <point x="551" y="321" type="curve"/>
      <point x="551" y="425"/>
      <point x="551" y="321"/>
      <point x="551" y="425" type="curve"/>
      <point x="417" y="425"/>
      <point x="282" y="425"/>
      <point x="149" y="425" type="curve"/>
      <point x="149" y="321"/>
      <point x="149" y="425"/>
    </contour>
    <contour>
      <point x="214" y="0" type="curve"/>
      <point x="214" y="722" type="line"/>
      <point x="73" y="722"/>
      <point x="214" y="722"/>
      <point x="73" y="722" type="curve"/>
      <point x="73" y="481"/>
      <point x="73" y="241"/>
      <point x="73" y="0" type="curve"/>
      <point x="214" y="0"/>
      <point x="73" y="0"/>
    </contour>
    <contour>
      <point x="130" y="618" type="curve"/>
      <point x="301" y="618"/>
      <point x="471" y="618"/>
      <point x="642" y="618" type="curve"/>
      <point x="642" y="722"/>
      <point x="642" y="618"/>
      <point x="642" y="722" type="curve"/>
      <point x="471" y="722"/>
      <point x="301" y="722"/>
      <point x="130" y="722" type="curve"/>
      <point x="130" y="618"/>
      <point x="130" y="722"/>
    </contour>
  </outline>
</glyph>
<glyph name="G" format="1">
  <advance width="948"/>
  <unicode hex="0047"/>
  <outline>
    <contour>
      <point x="863" y="366" type="curve"/>
      <point x="772" y="366"/>
      <point x="679" y="366"/>
      <point x="588" y="366" type="curve"/>
      <point x="588" y="263"/>
      <point x="588" y="366"/>
      <point x="588" y="263" type="curve"/>
      <point x="679" y="263"/>
      <point x="772" y="263"/>
      <point x="863" y="263" type="curve"/>
      <point x="863" y="366"/>
      <point x="863" y="263"/>
    </contour>
    <contour>
      <point x="902" y="79" type="curve"/>
      <point x="902" y="174"/>
      <point x="902" y="270"/>
      <point x="902" y="366" type="curve"/>
      <point x="773" y="366"/>
      <point x="902" y="366"/>
      <point x="773" y="366" type="curve"/>
      <point x="773" y="270"/>
      <point x="773" y="174"/>
      <point x="773" y="79" type="curve"/>
      <point x="902" y="79"/>
      <point x="773" y="79"/>
    </contour>
    <contour>
      <point x="880" y="645" type="curve"/>
      <point x="754" y="704"/>
      <point x="645" y="727"/>
      <point x="507" y="727" type="curve"/>
      <point x="233" y="727"/>
      <point x="40" y="616"/>
      <point x="40" y="360" type="curve"/>
      <point x="40" y="101"/>
      <point x="241" y="-5"/>
      <point x="520" y="-5" type="curve"/>
      <point x="669" y="-5"/>
      <point x="764" y="23"/>
      <point x="902" y="79" type="curve"/>
      <point x="831" y="156"/>
      <point x="902" y="79"/>
      <point x="831" y="156" type="curve"/>
      <point x="722" y="112"/>
      <point x="639" y="104"/>
      <point x="521" y="104" type="curve"/>
      <point x="321" y="104"/>
      <point x="181" y="184"/>
      <point x="181" y="370" type="curve"/>
      <point x="181" y="546"/>
      <point x="317" y="619"/>
      <point x="507" y="619" type="curve"/>
      <point x="619" y="619"/>
      <point x="707" y="604"/>
      <point x="824" y="552" type="curve"/>
      <point x="880" y="645"/>
      <point x="824" y="552"/>
    </contour>
    <contour>
      <point x="507" y="786" type="move" name="top"/>
    </contour>
    <contour>
      <point x="566" y="12" type="move" name="bottom"/>
    </contour>
  </outline>
</glyph>
<glyph name="H" format="1">
  <advance width="916"/>
  <unicode hex="0048"/>
  <outline>
    <contour>
      <point x="214" y="0" type="curve"/>
      <point x="214" y="722" type="line"/>
      <point x="72" y="722"/>
      <point x="214" y="722"/>
      <point x="72" y="722" type="curve"/>
      <point x="72" y="481"/>
      <point x="72" y="241"/>
      <point x="72" y="0" type="curve"/>
      <point x="214" y="0"/>
      <point x="72" y="0"/>
    </contour>
    <contour>
      <point x="771" y="415" type="curve"/>
      <point x="561" y="415"/>
      <point x="352" y="415"/>
      <point x="143" y="415" type="curve"/>
      <point x="143" y="311"/>
      <point x="143" y="415"/>
      <point x="143" y="311" type="curve"/>
      <point x="352" y="311"/>
      <point x="561" y="311"/>
      <point x="771" y="311" type="curve"/>
      <point x="771" y="415"/>
      <point x="771" y="311"/>
    </contour>
    <contour>
      <point x="844" y="0" type="curve"/>
      <point x="844" y="212"/>
      <point x="844" y="510"/>
      <point x="844" y="722" type="curve"/>
      <point x="703" y="722"/>
      <point x="844" y="722"/>
      <point x="703" y="722" type="curve"/>
      <point x="703" y="0" type="line"/>
      <point x="844" y="0"/>
      <point x="703" y="0"/>
    </contour>
  </outline>
</glyph>
<glyph name="I" format="1">
  <advance width="286"/>
  <unicode hex="0049"/>
  <outline>
    <contour>
      <point x="214" y="0" type="curve"/>
      <point x="214" y="241"/>
      <point x="214" y="481"/>
      <point x="214" y="722" type="curve"/>
      <point x="72" y="722"/>
      <point x="214" y="722"/>
      <point x="72" y="722" type="curve"/>
      <point x="72" y="481"/>
      <point x="72" y="241"/>
      <point x="72" y="0" type="curve"/>
      <point x="214" y="0"/>
      <point x="72" y="0"/>
    </contour>
    <contour>
      <point x="143" y="786" type="move" name="top"/>
    </contour>
    <contour>
      <point x="213" y="0" type="move" name="bottom"/>
    </contour>
  </outline>
</glyph>
<glyph name="J" format="1">
  <advance width="527"/>
  <unicode hex="004A"/>
  <outline>
    <contour>
      <point x="0" y="45" type="curve"/>
      <point x="42" y="22"/>
      <point x="101" y="-4"/>
      <point x="173" y="-4" type="curve"/>
      <point x="347" y="-4"/>
      <point x="459" y="74"/>
      <point x="459" y="243" type="curve"/>
      <point x="459" y="402"/>
      <point x="459" y="563"/>
      <point x="459" y="722" type="curve"/>
      <point x="319" y="722"/>
      <point x="459" y="722"/>
      <point x="318" y="722" type="curve"/>
      <point x="318" y="563"/>
      <point x="318" y="402"/>
      <point x="318" y="243" type="curve"/>
      <point x="318" y="152"/>
      <point x="264" y="99"/>
      <point x="173" y="99" type="curve"/>
      <point x="130" y="99"/>
      <point x="101" y="111"/>
      <point x="65" y="127" type="curve"/>
      <point x="0" y="45"/>
      <point x="64" y="127"/>
    </contour>
  </outline>
</glyph>
<glyph name="K" format="1">
  <advance width="806"/>
  <unicode hex="004B"/>
  <outline>
    <contour>
      <point x="577" y="722" type="curve"/>
      <point x="166" y="380" type="line"/>
      <point x="345" y="380"/>
      <point x="163" y="380"/>
      <point x="342" y="380" type="curve"/>
      <point x="765" y="722" type="line"/>
      <point x="564" y="722"/>
      <point x="778" y="722"/>
    </contour>
    <contour>
      <point x="213" y="0" type="curve"/>
      <point x="213" y="722" type="line"/>
      <point x="72" y="722"/>
      <point x="213" y="722"/>
      <point x="72" y="722" type="curve"/>
      <point x="72" y="481"/>
      <point x="72" y="241"/>
      <point x="72" y="0" type="curve"/>
      <point x="213" y="0"/>
      <point x="72" y="0"/>
    </contour>
    <contour>
      <point x="797" y="0" type="curve"/>
      <point x="342" y="380" type="line"/>
      <point x="163" y="380"/>
      <point x="345" y="380"/>
      <point x="166" y="380" type="curve"/>
      <point x="604" y="0" type="line"/>
      <point x="813" y="0"/>
      <point x="588" y="0"/>
    </contour>
    <contour>
      <point x="434" y="4" type="move" name="bottom"/>
    </contour>
  </outline>
</glyph>
<glyph name="L" format="1">
  <advance width="681"/>
  <unicode hex="004C"/>
  <outline>
    <contour>
      <point x="213" y="0" type="curve"/>
      <point x="213" y="241"/>
      <point x="213" y="481"/>
      <point x="213" y="722" type="curve"/>
      <point x="72" y="722"/>
      <point x="213" y="722"/>
      <point x="72" y="722" type="curve"/>
      <point x="72" y="481"/>
      <point x="72" y="241"/>
      <point x="72" y="0" type="curve"/>
      <point x="213" y="0"/>
      <point x="72" y="0"/>
    </contour>
    <contour>
      <point x="142" y="0" type="curve"/>
      <point x="318" y="0"/>
      <point x="493" y="0"/>
      <point x="669" y="0" type="curve"/>
      <point x="669" y="104"/>
      <point x="669" y="0"/>
      <point x="669" y="104" type="curve"/>
      <point x="493" y="104"/>
      <point x="318" y="104"/>
      <point x="142" y="104" type="curve"/>
      <point x="142" y="0"/>
      <point x="142" y="104"/>
    </contour>
    <contour>
      <point x="142" y="786" type="move" name="top"/>
    </contour>
    <contour>
      <point x="368" y="5" type="move" name="bottom"/>
    </contour>
  </outline>
</glyph>
<glyph name="M" format="1">
  <advance width="1100"/>
  <unicode hex="004D"/>
  <outline>
    <contour>
      <point x="1053" y="0" type="curve"/>
      <point x="1027" y="241"/>
      <point x="996" y="481"/>
      <point x="970" y="722" type="curve"/>
      <point x="842" y="722"/>
      <point x="970" y="722"/>
      <point x="842" y="722" type="curve"/>
      <point x="867" y="482"/>
      <point x="887" y="240"/>
      <point x="912" y="0" type="curve"/>
      <point x="1053" y="0"/>
      <point x="912" y="0"/>
    </contour>
    <contour>
      <point x="190" y="0" type="curve"/>
      <point x="214" y="241"/>
      <point x="237" y="481"/>
      <point x="261" y="722" type="curve"/>
      <point x="124" y="722"/>
      <point x="261" y="722"/>
      <point x="124" y="722" type="curve"/>
      <point x="99" y="481"/>
      <point x="75" y="241"/>
      <point x="50" y="0" type="curve"/>
      <point x="190" y="0"/>
      <point x="50" y="0"/>
    </contour>
    <contour>
      <point x="616" y="0" type="curve"/>
      <point x="499" y="241"/>
      <point x="382" y="481"/>
      <point x="264" y="722" type="curve"/>
      <point x="126" y="722"/>
      <point x="264" y="722"/>
      <point x="126" y="722" type="curve"/>
      <point x="243" y="481"/>
      <point x="360" y="241"/>
      <point x="477" y="0" type="curve"/>
      <point x="616" y="0"/>
      <point x="477" y="0"/>
    </contour>
    <contour>
      <point x="627" y="0" type="curve"/>
      <point x="742" y="241"/>
      <point x="856" y="481"/>
      <point x="972" y="722" type="curve"/>
      <point x="834" y="722"/>
      <point x="971" y="722"/>
      <point x="834" y="722" type="curve"/>
      <point x="718" y="481"/>
      <point x="602" y="241"/>
      <point x="487" y="0" type="curve"/>
      <point x="627" y="0"/>
      <point x="487" y="0"/>
    </contour>
  </outline>
</glyph>
<glyph name="N" format="1">
  <advance width="980"/>
  <unicode hex="004E"/>
  <outline>
    <contour>
      <point x="904" y="0" type="curve"/>
      <point x="683" y="239"/>
      <point x="465" y="483"/>
      <point x="244" y="722" type="curve"/>
      <point x="73" y="722"/>
      <point x="243" y="722"/>
      <point x="72" y="722" type="curve"/>
      <point x="293" y="483"/>
      <point x="512" y="239"/>
      <point x="733" y="0" type="curve"/>
      <point x="904" y="0"/>
      <point x="734" y="0"/>
    </contour>
    <contour>
      <point x="767" y="722" type="curve"/>
      <point x="767" y="481"/>
      <point x="767" y="241"/>
      <point x="767" y="0" type="curve"/>
      <point x="908" y="0"/>
      <point x="767" y="0"/>
      <point x="908" y="0" type="curve"/>
      <point x="908" y="241"/>
      <point x="908" y="481"/>
      <point x="908" y="722" type="curve"/>
      <point x="767" y="722"/>
      <point x="908" y="722"/>
    </contour>
    <contour>
      <point x="213" y="0" type="curve"/>
      <point x="213" y="241"/>
      <point x="213" y="481"/>
      <point x="213" y="722" type="curve"/>
      <point x="72" y="722"/>
      <point x="213" y="722"/>
      <point x="72" y="722" type="curve"/>
      <point x="72" y="481"/>
      <point x="72" y="241"/>
      <point x="72" y="0" type="curve"/>
      <point x="213" y="0"/>
      <point x="72" y="0"/>
    </contour>
    <contour>
      <point x="487" y="786" type="move" name="top"/>
    </contour>
    <contour>
      <point x="491" y="2" type="move" name="bottom"/>
    </contour>
  </outline>
</glyph>
<glyph name="P" format="1">
  <advance width="694"/>
  <unicode hex="0050"/>
  <outline>
    <contour>
      <point x="124" y="293" type="curve"/>
      <point x="195" y="267"/>
      <point x="282" y="248"/>
      <point x="358" y="248" type="curve"/>
      <point x="541" y="251"/>
      <point x="667" y="315"/>
      <point x="667" y="483" type="curve"/>
      <point x="667" y="654"/>
      <point x="509" y="722"/>
      <point x="316" y="722" type="curve"/>
      <point x="260" y="722"/>
      <point x="204" y="722"/>
      <point x="148" y="722" type="curve"/>
      <point x="148" y="618"/>
      <point x="148" y="722"/>
      <point x="148" y="618" type="curve"/>
      <point x="197" y="618"/>
      <point x="247" y="618"/>
      <point x="297" y="618" type="curve"/>
      <point x="421" y="618"/>
      <point x="526" y="588"/>
      <point x="526" y="486" type="curve"/>
      <point x="526" y="388"/>
      <point x="444" y="351"/>
      <point x="345" y="351" type="curve"/>
      <point x="279" y="351"/>
      <point x="230" y="363"/>
      <point x="169" y="386" type="curve"/>
      <point x="124" y="293"/>
      <point x="169" y="386"/>
    </contour>
    <contour>
      <point x="213" y="0" type="curve"/>
      <point x="213" y="241"/>
      <point x="213" y="481"/>
      <point x="213" y="722" type="curve"/>
      <point x="72" y="722"/>
      <point x="213" y="722"/>
      <point x="72" y="722" type="curve"/>
      <point x="72" y="481"/>
      <point x="72" y="241"/>
      <point x="72" y="0" type="curve"/>
      <point x="213" y="0"/>
      <point x="72" y="0"/>
    </contour>
  </outline>
</glyph>
<glyph name="Q" format="1">
  <advance width="991"/>
  <unicode hex="0051"/>
  <outline>
    <contour>
      <point x="416" y="25" type="curve"/>
      <point x="569" y="-173"/>
      <point x="728" y="-213"/>
      <point x="964" y="-213" type="curve"/>
      <point x="964" y="-105"/>
      <point x="964" y="-213"/>
      <point x="964" y="-105" type="curve"/>
      <point x="782" y="-105"/>
      <point x="658" y="-77"/>
      <point x="537" y="77" type="curve"/>
      <point x="416" y="25"/>
      <point x="537" y="77"/>
    </contour>
    <contour>
      <point x="181" y="360" type="curve"/>
      <point x="181" y="523"/>
      <point x="299" y="615"/>
      <point x="465" y="615" type="curve"/>
      <point x="635" y="615"/>
      <point x="750" y="526"/>
      <point x="750" y="360" type="curve"/>
      <point x="750" y="196"/>
      <point x="637" y="103"/>
      <point x="471" y="103" type="curve"/>
      <point x="300" y="104"/>
      <point x="181" y="194"/>
      <point x="181" y="360" type="curve"/>
      <point x="41" y="360"/>
      <point x="181" y="360"/>
      <point x="41" y="360" type="curve"/>
      <point x="41" y="122"/>
      <point x="219" y="-5"/>
      <point x="464" y="-5" type="curve"/>
      <point x="714" y="-5"/>
      <point x="891" y="125"/>
      <point x="891" y="366" type="curve"/>
      <point x="891" y="604"/>
      <point x="718" y="731"/>
      <point x="472" y="731" type="curve"/>
      <point x="221" y="731"/>
      <point x="41" y="601"/>
      <point x="41" y="360" type="curve"/>
      <point x="181" y="360"/>
      <point x="41" y="360"/>
    </contour>
  </outline>
</glyph>
<glyph name="R" format="1">
  <advance width="800"/>
  <unicode hex="0052"/>
  <outline>
    <contour>
      <point x="315" y="354" type="curve"/>
      <point x="408" y="250"/>
      <point x="536" y="104"/>
      <point x="629" y="0" type="curve"/>
      <point x="773" y="0"/>
      <point x="655" y="0"/>
      <point x="798" y="0" type="curve"/>
      <point x="714" y="95"/>
      <point x="571" y="259"/>
      <point x="486" y="354" type="curve"/>
      <point x="316" y="354"/>
      <point x="486" y="354"/>
    </contour>
    <contour>
      <point x="213" y="0" type="curve"/>
      <point x="213" y="241"/>
      <point x="213" y="481"/>
      <point x="213" y="722" type="curve"/>
      <point x="72" y="722"/>
      <point x="213" y="722"/>
      <point x="72" y="722" type="curve"/>
      <point x="72" y="481"/>
      <point x="72" y="241"/>
      <point x="72" y="0" type="curve"/>
      <point x="213" y="0"/>
      <point x="72" y="0"/>
    </contour>
    <contour>
      <point x="146" y="300" type="curve"/>
      <point x="214" y="300"/>
      <point x="283" y="300"/>
      <point x="352" y="300" type="curve"/>
      <point x="543" y="300"/>
      <point x="687" y="351"/>
      <point x="687" y="521" type="curve"/>
      <point x="687" y="677"/>
      <point x="553" y="722"/>
      <point x="378" y="722" type="curve"/>
      <point x="301" y="722"/>
      <point x="223" y="722"/>
      <point x="146" y="722" type="curve"/>
      <point x="146" y="618"/>
      <point x="146" y="722"/>
      <point x="146" y="618" type="curve"/>
      <point x="214" y="618"/>
      <point x="283" y="618"/>
      <point x="353" y="618" type="curve"/>
      <point x="460" y="618"/>
      <point x="546" y="603"/>
      <point x="546" y="510" type="curve"/>
      <point x="546" y="423"/>
      <point x="468" y="404"/>
      <point x="369" y="404" type="curve"/>
      <point x="294" y="404"/>
      <point x="219" y="404"/>
      <point x="146" y="404" type="curve"/>
      <point x="146" y="300"/>
      <point x="146" y="404"/>
    </contour>
    <contour>
      <point x="326" y="786" type="move" name="top"/>
    </contour>
    <contour>
      <point x="413" y="1" type="move" name="bottom"/>
    </contour>
  </outline>
</glyph>
<glyph name="S" format="1">
  <advance width="705"/>
  <unicode hex="0053"/>
  <outline>
    <contour>
      <point x="33" y="53" type="curve"/>
      <point x="120" y="13"/>
      <point x="217" y="-5"/>
      <point x="327" y="-5" type="curve"/>
      <point x="515" y="-5"/>
      <point x="679" y="32"/>
      <point x="679" y="191" type="curve"/>
      <point x="679" y="331"/>
      <point x="549" y="369"/>
      <point x="410" y="416" type="curve"/>
      <point x="302" y="452"/>
      <point x="180" y="481"/>
      <point x="180" y="545" type="curve"/>
      <point x="180" y="610"/>
      <point x="255" y="627"/>
      <point x="341" y="627" type="curve"/>
      <point x="424" y="627"/>
      <point x="504" y="601"/>
      <point x="568" y="578" type="curve"/>
      <point x="626" y="661"/>
      <point x="568" y="578"/>
      <point x="626" y="661" type="curve"/>
      <point x="542" y="696"/>
      <point x="453" y="726"/>
      <point x="347" y="726" type="curve"/>
      <point x="179" y="726"/>
      <point x="38" y="678"/>
      <point x="38" y="536" type="curve"/>
      <point x="38" y="400"/>
      <point x="172" y="368"/>
      <point x="311" y="320" type="curve"/>
      <point x="418" y="284"/>
      <point x="537" y="256"/>
      <point x="537" y="188" type="curve"/>
      <point x="537" y="122"/>
      <point x="439" y="104"/>
      <point x="333" y="104" type="curve"/>
      <point x="249" y="104"/>
      <point x="163" y="124"/>
      <point x="96" y="152" type="curve"/>
      <point x="33" y="53"/>
      <point x="96" y="152"/>
    </contour>
    <contour>
      <point x="346" y="786" type="move" name="top"/>
    </contour>
    <contour>
      <point x="371" y="8" type="move" name="bottom"/>
    </contour>
  </outline>
</glyph>
<glyph name="T" format="1">
  <advance width="799"/>
  <unicode hex="0054"/>
  <outline>
    <contour>
      <point x="470" y="0" type="curve"/>
      <point x="470" y="237"/>
      <point x="470" y="473"/>
      <point x="470" y="710" type="curve"/>
      <point x="329" y="710"/>
      <point x="470" y="710"/>
      <point x="329" y="710" type="curve"/>
      <point x="329" y="473"/>
      <point x="329" y="237"/>
      <point x="329" y="0" type="curve"/>
      <point x="470" y="0"/>
      <point x="329" y="0"/>
    </contour>
    <contour>
      <point x="12" y="612" type="curve"/>
      <point x="270" y="612"/>
      <point x="528" y="612"/>
      <point x="787" y="612" type="curve"/>
      <point x="787" y="726"/>
      <point x="787" y="607"/>
      <point x="787" y="722" type="curve"/>
      <point x="528" y="722"/>
      <point x="270" y="722"/>
      <point x="12" y="722" type="curve"/>
      <point x="12" y="607"/>
      <point x="12" y="726"/>
    </contour>
    <contour>
      <point x="395" y="786" type="move" name="top"/>
    </contour>
    <contour>
      <point x="438" y="4" type="move" name="bottom"/>
    </contour>
  </outline>
</glyph>
<glyph name="V" format="1">
  <advance width="863"/>
  <unicode hex="0056"/>
  <outline>
    <contour>
      <point x="712" y="722" type="curve"/>
      <point x="596" y="481"/>
      <point x="481" y="241"/>
      <point x="367" y="0" type="curve"/>
      <point x="510" y="0"/>
      <point x="365" y="0"/>
      <point x="509" y="0" type="curve"/>
      <point x="624" y="241"/>
      <point x="740" y="481"/>
      <point x="856" y="722" type="curve"/>
      <point x="712" y="722"/>
      <point x="856" y="722"/>
    </contour>
    <contour>
      <point x="5" y="722" type="curve"/>
      <point x="122" y="481"/>
      <point x="240" y="241"/>
      <point x="357" y="0" type="curve"/>
      <point x="501" y="0"/>
      <point x="356" y="0"/>
      <point x="500" y="0" type="curve"/>
      <point x="383" y="241"/>
      <point x="266" y="481"/>
      <point x="149" y="722" type="curve"/>
      <point x="5" y="722"/>
      <point x="149" y="722"/>
    </contour>
  </outline>
</glyph>
<glyph name="W" format="1">
  <advance width="1133"/>
  <unicode hex="0057"/>
  <outline>
    <contour>
      <point x="390" y="0" type="curve"/>
      <point x="473" y="241"/>
      <point x="553" y="481"/>
      <point x="637" y="722" type="curve"/>
      <point x="498" y="722"/>
      <point x="640" y="722"/>
      <point x="502" y="722" type="curve"/>
      <point x="424" y="480"/>
      <point x="347" y="241"/>
      <point x="269" y="0" type="curve"/>
      <point x="402" y="0"/>
      <point x="257" y="0"/>
    </contour>
    <contour>
      <point x="518" y="722" type="curve"/>
      <point x="593" y="481"/>
      <point x="661" y="241"/>
      <point x="736" y="0" type="curve"/>
      <point x="870" y="0"/>
      <point x="724" y="0"/>
      <point x="858" y="0" type="curve"/>
      <point x="789" y="241"/>
      <point x="722" y="480"/>
      <point x="649" y="722" type="curve"/>
      <point x="511" y="722"/>
      <point x="656" y="722"/>
    </contour>
    <contour>
      <point x="23" y="722" type="curve"/>
      <point x="98" y="481"/>
      <point x="174" y="241"/>
      <point x="249" y="0" type="curve"/>
      <point x="382" y="0"/>
      <point x="243" y="0"/>
      <point x="376" y="0" type="curve"/>
      <point x="303" y="241"/>
      <point x="236" y="481"/>
      <point x="162" y="722" type="curve"/>
      <point x="23" y="722"/>
      <point x="162" y="722"/>
    </contour>
    <contour>
      <point x="974" y="722" type="curve"/>
      <point x="899" y="481"/>
      <point x="829" y="241"/>
      <point x="755" y="0" type="curve"/>
      <point x="889" y="0"/>
      <point x="744" y="0"/>
      <point x="878" y="0" type="curve"/>
      <point x="957" y="241"/>
      <point x="1035" y="481"/>
      <point x="1114" y="722" type="curve"/>
      <point x="974" y="722"/>
      <point x="1114" y="722"/>
    </contour>
  </outline>
</glyph>
<glyph name="X" format="1">
  <advance width="829"/>
  <unicode hex="0058"/>
  <outline>
    <contour>
      <point x="638" y="722" type="curve"/>
      <point x="441" y="493"/>
      <point x="201" y="229"/>
      <point x="4" y="0" type="curve"/>
      <point x="143" y="0"/>
      <point x="43" y="0"/>
      <point x="181" y="0" type="curve"/>
      <point x="378" y="229"/>
      <point x="606" y="493"/>
      <point x="803" y="721" type="curve"/>
      <point x="674" y="721"/>
      <point x="767" y="722"/>
    </contour>
    <contour>
      <point x="47" y="722" type="curve"/>
      <point x="242" y="493"/>
      <point x="463" y="229"/>
      <point x="657" y="0" type="curve"/>
      <point x="797" y="0"/>
      <point x="682" y="0"/>
      <point x="822" y="0" type="curve"/>
      <point x="624" y="232"/>
      <point x="401" y="490"/>
      <point x="203" y="722" type="curve"/>
      <point x="77" y="722"/>
      <point x="173" y="722"/>
    </contour>
  </outline>
</glyph>
<glyph name="Z" format="1">
  <advance width="813"/>
  <unicode hex="005A"/>
  <outline>
    <contour>
      <point x="67" y="618" type="curve"/>
      <point x="267" y="618"/>
      <point x="516" y="618"/>
      <point x="716" y="618" type="curve"/>
      <point x="705" y="630"/>
      <point x="685" y="625"/>
      <point x="674" y="636" type="curve"/>
      <point x="667" y="648"/>
      <point x="663" y="660"/>
      <point x="656" y="671" type="curve"/>
      <point x="648" y="662"/>
      <point x="632" y="670"/>
      <point x="624" y="661" type="curve"/>
      <point x="23" y="104" type="line"/>
      <point x="23" y="51"/>
      <point x="23" y="104"/>
      <point x="23" y="51" type="curve"/>
      <point x="23" y="0"/>
      <point x="23" y="51"/>
      <point x="23" y="0" type="curve"/>
      <point x="73" y="0"/>
      <point x="23" y="0"/>
      <point x="73" y="0" type="curve"/>
      <point x="790" y="0"/>
      <point x="551" y="0"/>
      <point x="790" y="0" type="curve"/>
      <point x="790" y="104"/>
      <point x="790" y="0"/>
      <point x="790" y="104" type="curve"/>
      <point x="551" y="104"/>
      <point x="312" y="104"/>
      <point x="73" y="104" type="curve"/>
      <point x="84" y="96"/>
      <point x="99" y="96"/>
      <point x="109" y="88" type="curve"/>
      <point x="118" y="77"/>
      <point x="123" y="63"/>
      <point x="132" y="51" type="curve"/>
      <point x="144" y="62"/>
      <point x="167" y="50"/>
      <point x="179" y="61" type="curve"/>
      <point x="779" y="618" type="line"/>
      <point x="779" y="671"/>
      <point x="779" y="618"/>
      <point x="779" y="671" type="curve"/>
      <point x="779" y="722"/>
      <point x="779" y="671"/>
      <point x="779" y="722" type="curve"/>
      <point x="700" y="722"/>
      <point x="779" y="722"/>
      <point x="700" y="722" type="curve"/>
      <point x="505" y="722"/>
      <point x="262" y="722"/>
      <point x="67" y="722" type="curve"/>
      <point x="67" y="618"/>
      <point x="67" y="722"/>
    </contour>
    <contour>
      <point x="411" y="786" type="move" name="top"/>
    </contour>
  </outline>
</glyph>
<glyph name="bracketleft" format="1">
  <advance width="352"/>
  <unicode hex="005B"/>
  <outline>
    <contour>
      <point x="313" y="769" type="curve"/>
      <point x="249" y="769"/>
      <point x="186" y="769"/>
      <point x="122" y="769" type="curve"/>
      <point x="104" y="769"/>
      <point x="77" y="769"/>
      <point x="60" y="769" type="curve"/>
      <point x="60" y="755"/>
      <point x="60" y="733"/>
      <point x="60" y="718" type="curve"/>
      <point x="60" y="457"/>
      <point x="60" y="197"/>
      <point x="60" y="-64" type="curve"/>
      <point x="60" y="-79"/>
      <point x="60" y="-99"/>
      <point x="60" y="-114" type="curve"/>
      <point x="76" y="-114"/>
      <point x="102" y="-114"/>
      <point x="121" y="-114" type="curve"/>
      <point x="185" y="-114"/>
      <point x="249" y="-114"/>
      <point x="313" y="-114" type="curve"/>
      <point x="313" y="1"/>
      <point x="313" y="-114"/>
      <point x="313" y="1" type="curve"/>
      <point x="249" y="1"/>
      <point x="185" y="1"/>
      <point x="121" y="1" type="curve"/>
      <point x="201" y="1"/>
      <point x="121" y="1"/>
      <point x="201" y="1" type="curve"/>
      <point x="201" y="-64"/>
      <point x="201" y="1"/>
      <point x="201" y="-64" type="curve"/>
      <point x="201" y="197"/>
      <point x="201" y="457"/>
      <point x="201" y="718" type="curve"/>
      <point x="201" y="656"/>
      <point x="201" y="718"/>
      <point x="201" y="656" type="curve"/>
      <point x="122" y="656"/>
      <point x="201" y="656"/>
      <point x="122" y="656" type="curve"/>
      <point x="186" y="656"/>
      <point x="249" y="656"/>
      <point x="313" y="656" type="curve"/>
      <point x="313" y="769"/>
      <point x="313" y="656"/>
    </contour>
  </outline>
</glyph>
<glyph name="backslash" format="1">
  <advance width="680"/>
  <unicode hex="005C"/>
  <outline>
    <contour>
      <point x="659" y="-68" type="curve"/>
      <point x="495" y="236"/>
      <point x="332" y="540"/>
      <point x="168" y="844" type="curve"/>
      <point x="21" y="844"/>
      <point x="168" y="844"/>
      <point x="21" y="844" type="curve"/>
      <point x="184" y="540"/>
      <point x="348" y="236"/>
      <point x="511" y="-68" type="curve"/>
      <point x="659" y="-68"/>
      <point x="511" y="-68"/>
    </contour>
  </outline>
</glyph>
<glyph name="bracketright" format="1">
  <advance width="351"/>
  <unicode hex="005D"/>
  <outline>
    <contour>
      <point x="38" y="656" type="curve"/>
      <point x="102" y="656"/>
      <point x="165" y="656"/>
      <point x="230" y="656" type="curve"/>
      <point x="215" y="664"/>
      <point x="199" y="671"/>
      <point x="185" y="680" type="curve"/>
      <point x="171" y="690"/>
      <point x="163" y="707"/>
      <point x="150" y="718" type="curve"/>
      <point x="150" y="457"/>
      <point x="150" y="197"/>
      <point x="150" y="-64" type="curve"/>
      <point x="164" y="-53"/>
      <point x="174" y="-37"/>
      <point x="188" y="-27" type="curve"/>
      <point x="202" y="-17"/>
      <point x="217" y="-9"/>
      <point x="231" y="1" type="curve"/>
      <point x="166" y="1"/>
      <point x="102" y="1"/>
      <point x="38" y="1" type="curve"/>
      <point x="38" y="-114"/>
      <point x="38" y="1"/>
      <point x="38" y="-114" type="curve"/>
      <point x="102" y="-114"/>
      <point x="166" y="-114"/>
      <point x="231" y="-114" type="curve"/>
      <point x="291" y="-114"/>
      <point x="231" y="-114"/>
      <point x="291" y="-114" type="curve"/>
      <point x="291" y="-64"/>
      <point x="291" y="-114"/>
      <point x="291" y="-64" type="curve"/>
      <point x="291" y="197"/>
      <point x="291" y="457"/>
      <point x="291" y="718" type="curve"/>
      <point x="291" y="769"/>
      <point x="291" y="718"/>
      <point x="291" y="769" type="curve"/>
      <point x="230" y="769"/>
      <point x="291" y="769"/>
      <point x="230" y="769" type="curve"/>
      <point x="165" y="769"/>
      <point x="102" y="769"/>
      <point x="38" y="769" type="curve"/>
      <point x="38" y="656"/>
      <point x="38" y="769"/>
    </contour>
  </outline>
</glyph>
<glyph name="asciicircum" format="1">
  <advance width="643"/>
  <unicode hex="005E"/>
  <outline>
    <contour>
      <point x="173" y="454" type="curve"/>
      <point x="245" y="555"/>
      <point x="318" y="656"/>
      <point x="391" y="757" type="curve"/>
      <point x="250" y="757"/>
      <point x="390" y="757"/>
      <point x="250" y="757" type="curve"/>
      <point x="177" y="656"/>
      <point x="105" y="555"/>
      <point x="32" y="454" type="curve"/>
      <point x="173" y="454"/>
      <point x="33" y="454"/>
    </contour>
    <contour>
      <point x="611" y="454" type="curve"/>
      <point x="539" y="555"/>
      <point x="464" y="657"/>
      <point x="391" y="757" type="curve"/>
      <point x="250" y="757"/>
      <point x="391" y="757"/>
      <point x="250" y="757" type="curve"/>
      <point x="322" y="657"/>
      <point x="397" y="555"/>
      <point x="470" y="454" type="curve"/>
      <point x="611" y="454"/>
      <point x="470" y="454"/>
    </contour>
  </outline>
</glyph>
<glyph name="underscore" format="1">
  <advance width="852"/>
  <unicode hex="005F"/>
  <outline>
    <contour>
      <point x="0" y="-185" type="curve"/>
      <point x="284" y="-185"/>
      <point x="568" y="-185"/>
      <point x="852" y="-185" type="curve"/>
      <point x="852" y="-81"/>
      <point x="852" y="-185"/>
      <point x="852" y="-81" type="curve"/>
      <point x="568" y="-81"/>
      <point x="284" y="-81"/>
      <point x="0" y="-81" type="curve"/>
      <point x="0" y="-185"/>
      <point x="0" y="-81"/>
    </contour>
  </outline>
</glyph>
<glyph name="grave" format="1">
  <advance width="453"/>
  <unicode hex="0060"/>
  <outline>
    <contour>
      <point x="353" y="544" type="line"/>
      <point x="207" y="710" type="line"/>
      <point x="23" y="710" type="line"/>
      <point x="210" y="544" type="line"/>
    </contour>
    <contour>
      <point x="271" y="545" type="move" name="_top"/>
    </contour>
  </outline>
</glyph>
<glyph name="b" format="1">
  <advance width="756"/>
  <unicode hex="0062"/>
  <outline>
    <contour>
      <point x="160" y="322" type="curve"/>
      <point x="218" y="386"/>
      <point x="286" y="430"/>
      <point x="390" y="430" type="curve"/>
      <point x="502" y="430"/>
      <point x="578" y="372"/>
      <point x="578" y="263" type="curve"/>
      <point x="580" y="157"/>
      <point x="501" y="102"/>
      <point x="390" y="103" type="curve"/>
      <point x="296" y="103"/>
      <point x="223" y="141"/>
      <point x="172" y="194" type="curve"/>
      <point x="135" y="169"/>
      <point x="125" y="163"/>
      <point x="88" y="137" type="curve"/>
      <point x="180" y="51"/>
      <point x="273" y="-5"/>
      <point x="417" y="-5" type="curve"/>
      <point x="597" y="-5"/>
      <point x="721" y="85"/>
      <point x="721" y="264" type="curve"/>
      <point x="721" y="446"/>
      <point x="596" y="539"/>
      <point x="413" y="539" type="curve"/>
      <point x="275" y="539"/>
      <point x="186" y="486"/>
      <point x="98" y="397" type="curve"/>
      <point x="128" y="365"/>
      <point x="130" y="352"/>
    </contour>
    <contour>
      <point x="202" y="0" type="curve"/>
      <point x="202" y="300"/>
      <point x="202" y="500"/>
      <point x="202" y="800" type="curve"/>
      <point x="138" y="800"/>
      <point x="124" y="800"/>
      <point x="60" y="800" type="curve"/>
      <point x="60" y="500"/>
      <point x="60" y="300"/>
      <point x="60" y="0" type="curve"/>
      <point x="124" y="0"/>
      <point x="138" y="0"/>
    </contour>
  </outline>
</glyph>
<glyph name="c" format="1">
  <advance width="641"/>
  <unicode hex="0063"/>
  <outline>
    <contour>
      <point x="621" y="470" type="curve"/>
      <point x="554" y="511"/>
      <point x="469" y="538"/>
      <point x="386" y="538" type="curve"/>
      <point x="181" y="538"/>
      <point x="36" y="461"/>
      <point x="36" y="267" type="curve"/>
      <point x="36" y="75"/>
      <point x="177" y="-5"/>
      <point x="381" y="-5" type="curve"/>
      <point x="474" y="-5"/>
      <point x="564" y="20"/>
      <point x="621" y="72" type="curve"/>
      <point x="544" y="157"/>
      <point x="621" y="72"/>
      <point x="544" y="157" type="curve"/>
      <point x="499" y="121"/>
      <point x="445" y="103"/>
      <point x="387" y="103" type="curve"/>
      <point x="264" y="103"/>
      <point x="177" y="150"/>
      <point x="177" y="267" type="curve"/>
      <point x="177" y="383"/>
      <point x="261" y="430"/>
      <point x="382" y="430" type="curve"/>
      <point x="437" y="430"/>
      <point x="492" y="422"/>
      <point x="554" y="392" type="curve"/>
      <point x="621" y="470"/>
      <point x="554" y="392"/>
    </contour>
    <contour>
      <point x="366" y="618" type="move" name="top"/>
    </contour>
    <contour>
      <point x="381" y="10" type="move" name="bottom"/>
    </contour>
  </outline>
</glyph>
<glyph name="e" format="1">
  <advance width="688"/>
  <unicode hex="0065"/>
  <outline>
    <contour>
      <point x="108" y="229" type="curve"/>
      <point x="271" y="229"/>
      <point x="434" y="229"/>
      <point x="597" y="229" type="curve"/>
      <point x="654" y="229"/>
      <point x="597" y="229"/>
      <point x="654" y="229" type="curve"/>
      <point x="654" y="262"/>
      <point x="654" y="229"/>
      <point x="654" y="262" type="curve"/>
      <point x="654" y="268"/>
      <point x="654" y="274"/>
      <point x="654" y="280" type="curve"/>
      <point x="654" y="460"/>
      <point x="534" y="537"/>
      <point x="356" y="537" type="curve"/>
      <point x="165" y="537"/>
      <point x="36" y="460"/>
      <point x="36" y="278" type="curve"/>
      <point x="36" y="80"/>
      <point x="177" y="-5"/>
      <point x="384" y="-5" type="curve"/>
      <point x="483" y="-5"/>
      <point x="548" y="16"/>
      <point x="622" y="65" type="curve"/>
      <point x="558" y="149"/>
      <point x="622" y="65"/>
      <point x="558" y="149" type="curve"/>
      <point x="501" y="115"/>
      <point x="444" y="99"/>
      <point x="379" y="99" type="curve"/>
      <point x="254" y="99"/>
      <point x="171" y="156"/>
      <point x="171" y="278" type="curve"/>
      <point x="171" y="383"/>
      <point x="239" y="433"/>
      <point x="349" y="433" type="curve"/>
      <point x="449" y="433"/>
      <point x="519" y="398"/>
      <point x="519" y="303" type="curve"/>
      <point x="519" y="293"/>
      <point x="519" y="284"/>
      <point x="519" y="274" type="curve"/>
      <point x="532" y="284"/>
      <point x="543" y="297"/>
      <point x="557" y="306" type="curve"/>
      <point x="571" y="315"/>
      <point x="583" y="316"/>
      <point x="597" y="325" type="curve"/>
      <point x="434" y="325"/>
      <point x="271" y="325"/>
      <point x="108" y="325" type="curve"/>
      <point x="108" y="221"/>
      <point x="108" y="333"/>
    </contour>
    <contour>
      <point x="352" y="618" type="move" name="top"/>
    </contour>
    <contour>
      <point x="460" y="19" type="move" name="bottom"/>
    </contour>
  </outline>
</glyph>
<glyph name="f" format="1">
  <advance width="554"/>
  <unicode hex="0066"/>
  <outline>
    <contour>
      <point x="23" y="429" type="curve"/>
      <point x="524" y="429" type="line"/>
      <point x="524" y="533"/>
      <point x="524" y="429"/>
      <point x="524" y="533" type="curve"/>
      <point x="23" y="533" type="line"/>
      <point x="23" y="429"/>
      <point x="23" y="533"/>
    </contour>
    <contour>
      <point x="309" y="0" type="curve"/>
      <point x="309" y="607" type="line"/>
      <point x="308" y="667"/>
      <point x="348" y="702"/>
      <point x="410" y="702" type="curve"/>
      <point x="444" y="702"/>
      <point x="478" y="694"/>
      <point x="510" y="682" type="curve"/>
      <point x="567" y="766"/>
      <point x="510" y="682"/>
      <point x="567" y="766" type="curve"/>
      <point x="517" y="785"/>
      <point x="464" y="801"/>
      <point x="410" y="801" type="curve"/>
      <point x="270" y="801"/>
      <point x="166" y="737"/>
      <point x="168" y="607" type="curve"/>
      <point x="168" y="0" type="line"/>
      <point x="309" y="0"/>
      <point x="168" y="0"/>
    </contour>
  </outline>
</glyph>
<glyph name="g" format="1">
  <advance width="687"/>
  <unicode hex="0067"/>
  <outline>
    <contour>
      <point x="460" y="444" type="curve"/>
      <point x="670" y="520" type="line"/>
      <point x="670" y="520"/>
      <point x="618" y="624"/>
      <point x="617" y="625" type="curve"/>
      <point x="390" y="518" type="line"/>
      <point x="459" y="444"/>
      <point x="391" y="518"/>
    </contour>
    <contour>
      <point x="188" y="339" type="curve"/>
      <point x="188" y="409"/>
      <point x="256" y="435"/>
      <point x="337" y="435" type="curve"/>
      <point x="416" y="435"/>
      <point x="480" y="407"/>
      <point x="480" y="338" type="curve"/>
      <point x="480" y="272"/>
      <point x="416" y="249"/>
      <point x="339" y="249" type="curve"/>
      <point x="259" y="249"/>
      <point x="188" y="268"/>
      <point x="188" y="339" type="curve"/>
      <point x="46" y="334"/>
      <point x="188" y="339"/>
      <point x="46" y="334" type="curve"/>
      <point x="46" y="198"/>
      <point x="175" y="145"/>
      <point x="327" y="145" type="curve"/>
      <point x="487" y="145"/>
      <point x="621" y="200"/>
      <point x="621" y="342" type="curve"/>
      <point x="621" y="481"/>
      <point x="492" y="539"/>
      <point x="337" y="539" type="curve"/>
      <point x="177" y="539"/>
      <point x="46" y="477"/>
      <point x="46" y="334" type="curve"/>
      <point x="188" y="339"/>
      <point x="46" y="334"/>
    </contour>
    <contour>
      <point x="178" y="246" type="curve"/>
      <point x="108" y="220"/>
      <point x="51" y="185"/>
      <point x="51" y="113" type="curve"/>
      <point x="51" y="-8"/>
      <point x="181" y="-22"/>
      <point x="318" y="-31" type="curve"/>
      <point x="428" y="-38"/>
      <point x="548" y="-32"/>
      <point x="548" y="-119" type="curve"/>
      <point x="548" y="-193"/>
      <point x="444" y="-200"/>
      <point x="341" y="-200" type="curve"/>
      <point x="242" y="-200"/>
      <point x="148" y="-188"/>
      <point x="148" y="-104" type="curve"/>
      <point x="148" y="-40"/>
      <point x="191" y="-11"/>
      <point x="243" y="5" type="curve"/>
      <point x="173" y="67"/>
      <point x="243" y="5"/>
      <point x="173" y="67" type="curve"/>
      <point x="82" y="41"/>
      <point x="7" y="-7"/>
      <point x="7" y="-109" type="curve"/>
      <point x="7" y="-266"/>
      <point x="161" y="-304"/>
      <point x="334" y="-304" type="curve"/>
      <point x="514" y="-304"/>
      <point x="680" y="-275"/>
      <point x="677" y="-109" type="curve"/>
      <point x="677" y="51"/>
      <point x="513" y="58"/>
      <point x="343" y="67" type="curve"/>
      <point x="270" y="71"/>
      <point x="192" y="73"/>
      <point x="192" y="123" type="curve"/>
      <point x="192" y="154"/>
      <point x="214" y="171"/>
      <point x="243" y="183" type="curve"/>
      <point x="178" y="246"/>
      <point x="243" y="183"/>
    </contour>
    <contour>
      <point x="326" y="618" type="move" name="top"/>
    </contour>
  </outline>
</glyph>
<glyph name="h" format="1">
  <advance width="723"/>
  <unicode hex="0068"/>
  <outline>
    <contour>
      <point x="170" y="281" type="curve"/>
      <point x="208" y="377"/>
      <point x="293" y="434"/>
      <point x="384" y="434" type="curve"/>
      <point x="470" y="434"/>
      <point x="526" y="383"/>
      <point x="526" y="299" type="curve"/>
      <point x="526" y="196"/>
      <point x="526" y="104"/>
      <point x="526" y="0" type="curve"/>
      <point x="667" y="0"/>
      <point x="526" y="0"/>
      <point x="667" y="0" type="curve"/>
      <point x="667" y="107"/>
      <point x="667" y="214"/>
      <point x="667" y="321" type="curve"/>
      <point x="667" y="472"/>
      <point x="567" y="538"/>
      <point x="407" y="538" type="curve"/>
      <point x="277" y="538"/>
      <point x="161" y="464"/>
      <point x="102" y="329" type="curve"/>
      <point x="173" y="277"/>
      <point x="100" y="333"/>
    </contour>
    <contour>
      <point x="202" y="0" type="curve"/>
      <point x="202" y="267"/>
      <point x="202" y="533"/>
      <point x="202" y="800" type="curve"/>
      <point x="60" y="800"/>
      <point x="202" y="800"/>
      <point x="60" y="800" type="curve"/>
      <point x="60" y="533"/>
      <point x="60" y="267"/>
      <point x="60" y="0" type="curve"/>
      <point x="202" y="0"/>
      <point x="60" y="0"/>
    </contour>
  </outline>
</glyph>
<glyph name="i" format="1">
  <advance width="270"/>
  <unicode hex="0069"/>
  <outline>
    <contour>
      <point x="210" y="0" type="curve"/>
      <point x="210" y="178"/>
      <point x="210" y="355"/>
      <point x="210" y="533" type="curve"/>
      <point x="62" y="533"/>
      <point x="210" y="533"/>
      <point x="62" y="533" type="curve"/>
      <point x="62" y="355"/>
      <point x="62" y="178"/>
      <point x="62" y="0" type="curve"/>
      <point x="210" y="0"/>
      <point x="62" y="0"/>
    </contour>
    <contour>
      <point x="217" y="685" type="curve"/>
      <point x="217" y="732"/>
      <point x="181" y="754"/>
      <point x="133" y="754" type="curve"/>
      <point x="85" y="754"/>
      <point x="51" y="729"/>
      <point x="51" y="685" type="curve"/>
      <point x="214" y="685"/>
      <point x="54" y="685"/>
      <point x="217" y="685" type="curve"/>
      <point x="217" y="638"/>
      <point x="181" y="618"/>
      <point x="132" y="618" type="curve"/>
      <point x="84" y="618"/>
      <point x="51" y="641"/>
      <point x="51" y="685" type="curve"/>
      <point x="214" y="685"/>
      <point x="54" y="685"/>
    </contour>
    <contour>
      <point x="133" y="618" type="move" name="top"/>
    </contour>
    <contour>
      <point x="198" y="11" type="move" name="bottom"/>
    </contour>
  </outline>
</glyph>
<glyph name="j" format="1">
  <advance width="333"/>
  <unicode hex="006A"/>
  <outline>
    <contour>
      <point x="-29" y="-302" type="curve"/>
      <point x="-17" y="-303"/>
      <point x="-3" y="-305"/>
      <point x="13" y="-305" type="curve"/>
      <point x="154" y="-305"/>
      <point x="270" y="-250"/>
      <point x="270" y="-121" type="curve"/>
      <point x="270" y="97"/>
      <point x="270" y="315"/>
      <point x="270" y="534" type="curve"/>
      <point x="129" y="534"/>
      <point x="270" y="534"/>
      <point x="129" y="534" type="curve"/>
      <point x="129" y="315"/>
      <point x="129" y="97"/>
      <point x="129" y="-121" type="curve"/>
      <point x="129" y="-178"/>
      <point x="80" y="-205"/>
      <point x="19" y="-205" type="curve"/>
      <point x="9" y="-205"/>
      <point x="-3" y="-204"/>
      <point x="-9" y="-203" type="curve"/>
      <point x="-29" y="-302"/>
      <point x="-9" y="-203"/>
    </contour>
    <contour>
      <point x="284" y="685" type="curve"/>
      <point x="284" y="731"/>
      <point x="248" y="753"/>
      <point x="200" y="753" type="curve"/>
      <point x="152" y="753"/>
      <point x="118" y="728"/>
      <point x="118" y="685" type="curve"/>
      <point x="281" y="685"/>
      <point x="122" y="685"/>
      <point x="284" y="685" type="curve"/>
      <point x="284" y="637"/>
      <point x="249" y="617"/>
      <point x="199" y="617" type="curve"/>
      <point x="151" y="617"/>
      <point x="118" y="640"/>
      <point x="118" y="685" type="curve"/>
      <point x="281" y="685"/>
      <point x="122" y="685"/>
    </contour>
  </outline>
</glyph>
<glyph name="k" format="1">
  <advance width="701"/>
  <unicode hex="006B"/>
  <outline>
    <contour>
      <point x="202" y="0" type="curve"/>
      <point x="202" y="800" type="line"/>
      <point x="60" y="800"/>
      <point x="202" y="800"/>
      <point x="60" y="800" type="curve"/>
      <point x="60" y="533"/>
      <point x="60" y="267"/>
      <point x="60" y="0" type="curve"/>
      <point x="202" y="0"/>
      <point x="60" y="0"/>
    </contour>
    <contour>
      <point x="472" y="533" type="curve"/>
      <point x="162" y="275" type="line"/>
      <point x="334" y="275"/>
      <point x="164" y="275"/>
      <point x="336" y="275" type="curve"/>
      <point x="656" y="533" type="line"/>
      <point x="462" y="533"/>
      <point x="666" y="533"/>
    </contour>
    <contour>
      <point x="689" y="0" type="curve"/>
      <point x="335" y="275" type="line"/>
      <point x="164" y="275"/>
      <point x="334" y="275"/>
      <point x="162" y="275" type="curve"/>
      <point x="504" y="0" type="line"/>
      <point x="697" y="0"/>
      <point x="496" y="0"/>
    </contour>
    <contour>
      <point x="382" y="-3" type="move" name="bottom"/>
    </contour>
  </outline>
</glyph>
<glyph name="m" format="1">
  <advance width="1089"/>
  <unicode hex="006D"/>
  <outline>
    <contour>
      <point x="585" y="270" type="curve"/>
      <point x="632" y="365"/>
      <point x="686" y="430"/>
      <point x="771" y="430" type="curve"/>
      <point x="854" y="430"/>
      <point x="891" y="393"/>
      <point x="891" y="310" type="curve"/>
      <point x="891" y="207"/>
      <point x="891" y="104"/>
      <point x="891" y="0" type="curve"/>
      <point x="1032" y="0"/>
      <point x="891" y="0"/>
      <point x="1032" y="0" type="curve"/>
      <point x="1032" y="107"/>
      <point x="1032" y="214"/>
      <point x="1032" y="321" type="curve"/>
      <point x="1032" y="473"/>
      <point x="957" y="538"/>
      <point x="802" y="538" type="curve"/>
      <point x="671" y="538"/>
      <point x="587" y="457"/>
      <point x="515" y="323" type="curve"/>
      <point x="585" y="270"/>
      <point x="515" y="323"/>
    </contour>
    <contour>
      <point x="170" y="275" type="curve"/>
      <point x="216" y="369"/>
      <point x="270" y="430"/>
      <point x="356" y="430" type="curve"/>
      <point x="438" y="430"/>
      <point x="476" y="393"/>
      <point x="476" y="310" type="curve"/>
      <point x="476" y="207"/>
      <point x="476" y="104"/>
      <point x="476" y="0" type="curve"/>
      <point x="617" y="0"/>
      <point x="476" y="0"/>
      <point x="617" y="0" type="curve"/>
      <point x="617" y="107"/>
      <point x="617" y="214"/>
      <point x="617" y="321" type="curve"/>
      <point x="617" y="473"/>
      <point x="544" y="538"/>
      <point x="389" y="538" type="curve"/>
      <point x="256" y="538"/>
      <point x="186" y="465"/>
      <point x="100" y="328" type="curve"/>
      <point x="171" y="275"/>
      <point x="99" y="328"/>
    </contour>
    <contour>
      <point x="202" y="0" type="curve"/>
      <point x="202" y="178"/>
      <point x="202" y="355"/>
      <point x="202" y="533" type="curve"/>
      <point x="60" y="533"/>
      <point x="202" y="533"/>
      <point x="60" y="533" type="curve"/>
      <point x="60" y="355"/>
      <point x="60" y="178"/>
      <point x="60" y="0" type="curve"/>
      <point x="202" y="0"/>
      <point x="60" y="0"/>
    </contour>
  </outline>
</glyph>
<glyph name="n" format="1">
  <advance width="722"/>
  <unicode hex="006E"/>
  <outline>
    <contour>
      <point x="170" y="261" type="curve"/>
      <point x="205" y="363"/>
      <point x="275" y="430"/>
      <point x="379" y="430" type="curve"/>
      <point x="464" y="430"/>
      <point x="526" y="390"/>
      <point x="526" y="310" type="curve"/>
      <point x="526" y="199"/>
      <point x="526" y="111"/>
      <point x="526" y="0" type="curve"/>
      <point x="587" y="0"/>
      <point x="605" y="0"/>
      <point x="666" y="0" type="curve"/>
      <point x="666" y="115"/>
      <point x="666" y="206"/>
      <point x="666" y="321" type="curve"/>
      <point x="666" y="469"/>
      <point x="568" y="538"/>
      <point x="412" y="538" type="curve"/>
      <point x="260" y="538"/>
      <point x="155" y="454"/>
      <point x="100" y="308" type="curve"/>
      <point x="128" y="284"/>
      <point x="142" y="284"/>
    </contour>
    <contour>
      <point x="202" y="0" type="curve"/>
      <point x="202" y="178"/>
      <point x="202" y="355"/>
      <point x="202" y="533" type="curve"/>
      <point x="60" y="533"/>
      <point x="202" y="533"/>
      <point x="60" y="533" type="curve"/>
      <point x="60" y="355"/>
      <point x="60" y="178"/>
      <point x="60" y="0" type="curve"/>
      <point x="202" y="0"/>
      <point x="60" y="0"/>
    </contour>
    <contour>
      <point x="376" y="618" type="move" name="top"/>
    </contour>
    <contour>
      <point x="374" y="34" type="move" name="bottom"/>
    </contour>
  </outline>
</glyph>
<glyph name="o" format="1">
  <advance width="736"/>
  <unicode hex="006F"/>
  <outline>
    <contour>
      <point x="176" y="268" type="curve"/>
      <point x="176" y="373"/>
      <point x="247" y="434"/>
      <point x="361" y="434" type="curve"/>
      <point x="481" y="434"/>
      <point x="559" y="374"/>
      <point x="559" y="266" type="curve"/>
      <point x="559" y="155"/>
      <point x="483" y="99"/>
      <point x="372" y="99" type="curve"/>
      <point x="254" y="99"/>
      <point x="176" y="155"/>
      <point x="176" y="268" type="curve"/>
      <point x="47" y="268"/>
      <point x="165" y="268"/>
      <point x="36" y="268" type="curve"/>
      <point x="36" y="83"/>
      <point x="172" y="-5"/>
      <point x="365" y="-5" type="curve"/>
      <point x="561" y="-5"/>
      <point x="700" y="79"/>
      <point x="700" y="266" type="curve"/>
      <point x="700" y="445"/>
      <point x="566" y="538"/>
      <point x="368" y="538" type="curve"/>
      <point x="170" y="538"/>
      <point x="36" y="445"/>
      <point x="36" y="268" type="curve"/>
      <point x="165" y="268"/>
      <point x="47" y="268"/>
    </contour>
    <contour>
      <point x="367" y="618" type="move" name="top"/>
    </contour>
  </outline>
</glyph>
<glyph name="p" format="1">
  <advance width="755"/>
  <unicode hex="0070"/>
  <outline>
    <contour>
      <point x="154" y="300" type="curve"/>
      <point x="219" y="387"/>
      <point x="292" y="438"/>
      <point x="401" y="438" type="curve"/>
      <point x="506" y="438"/>
      <point x="578" y="373"/>
      <point x="578" y="265" type="curve"/>
      <point x="580" y="157"/>
      <point x="504" y="98"/>
      <point x="396" y="99" type="curve"/>
      <point x="303" y="99"/>
      <point x="228" y="130"/>
      <point x="156" y="185" type="curve"/>
      <point x="122" y="161"/>
      <point x="124" y="138"/>
      <point x="90" y="114" type="curve"/>
      <point x="176" y="38"/>
      <point x="282" y="-5"/>
      <point x="412" y="-5" type="curve"/>
      <point x="594" y="-5"/>
      <point x="719" y="93"/>
      <point x="718" y="270" type="curve"/>
      <point x="718" y="440"/>
      <point x="599" y="540"/>
      <point x="425" y="540" type="curve"/>
      <point x="281" y="540"/>
      <point x="181" y="483"/>
      <point x="100" y="375" type="curve"/>
      <point x="128" y="341"/>
      <point x="126" y="334"/>
    </contour>
    <contour>
      <point x="201" y="-300" type="curve"/>
      <point x="201" y="-22"/>
      <point x="201" y="255"/>
      <point x="201" y="533" type="curve"/>
      <point x="60" y="533"/>
      <point x="201" y="533"/>
      <point x="60" y="533" type="curve"/>
      <point x="60" y="255"/>
      <point x="60" y="-22"/>
      <point x="60" y="-300" type="curve"/>
      <point x="201" y="-300"/>
      <point x="60" y="-300"/>
    </contour>
  </outline>
</glyph>
<glyph name="q" format="1">
  <advance width="763"/>
  <unicode hex="0071"/>
  <outline>
    <contour>
      <point x="662" y="386" type="curve"/>
      <point x="569" y="481"/>
      <point x="475" y="538"/>
      <point x="340" y="538" type="curve"/>
      <point x="159" y="538"/>
      <point x="36" y="439"/>
      <point x="36" y="263" type="curve"/>
      <point x="36" y="87"/>
      <point x="164" y="-5"/>
      <point x="345" y="-5" type="curve"/>
      <point x="485" y="-5"/>
      <point x="582" y="56"/>
      <point x="684" y="153" type="curve"/>
      <point x="651" y="180"/>
      <point x="637" y="186"/>
      <point x="603" y="213" type="curve"/>
      <point x="540" y="134"/>
      <point x="463" y="99"/>
      <point x="364" y="99" type="curve"/>
      <point x="254" y="99"/>
      <point x="177" y="159"/>
      <point x="177" y="268" type="curve"/>
      <point x="177" y="376"/>
      <point x="253" y="434"/>
      <point x="362" y="434" type="curve"/>
      <point x="466" y="434"/>
      <point x="545" y="384"/>
      <point x="608" y="313" type="curve"/>
      <point x="636" y="343"/>
      <point x="633" y="355"/>
    </contour>
    <contour>
      <point x="703" y="-300" type="curve"/>
      <point x="703" y="1"/>
      <point x="703" y="232"/>
      <point x="703" y="533" type="curve"/>
      <point x="638" y="533"/>
      <point x="620" y="533"/>
      <point x="555" y="533" type="curve"/>
      <point x="555" y="232"/>
      <point x="555" y="1"/>
      <point x="555" y="-300" type="curve"/>
      <point x="620" y="-300"/>
      <point x="638" y="-300"/>
    </contour>
  </outline>
</glyph>
<glyph name="r" format="1">
  <advance width="461"/>
  <unicode hex="0072"/>
  <outline>
    <contour>
      <point x="202" y="0" type="curve"/>
      <point x="202" y="199"/>
      <point x="202" y="334"/>
      <point x="202" y="533" type="curve"/>
      <point x="138" y="533"/>
      <point x="124" y="533"/>
      <point x="60" y="533" type="curve"/>
      <point x="60" y="334"/>
      <point x="60" y="199"/>
      <point x="60" y="0" type="curve"/>
      <point x="124" y="0"/>
      <point x="138" y="0"/>
    </contour>
    <contour>
      <point x="165" y="264" type="curve"/>
      <point x="232" y="384"/>
      <point x="319" y="415"/>
      <point x="451" y="415" type="curve"/>
      <point x="451" y="470"/>
      <point x="451" y="483"/>
      <point x="451" y="538" type="curve"/>
      <point x="297" y="538"/>
      <point x="202" y="472"/>
      <point x="120" y="340" type="curve"/>
      <point x="143" y="304"/>
      <point x="143" y="299"/>
    </contour>
    <contour>
      <point x="196" y="618" type="move" name="top"/>
    </contour>
    <contour>
      <point x="145" y="27" type="move" name="bottom"/>
    </contour>
  </outline>
</glyph>
<glyph name="s" format="1">
  <advance width="598"/>
  <unicode hex="0073"/>
  <outline>
    <contour>
      <point x="30" y="47" type="curve"/>
      <point x="125" y="15"/>
      <point x="197" y="-5"/>
      <point x="293" y="-5" type="curve"/>
      <point x="451" y="-5"/>
      <point x="574" y="30"/>
      <point x="574" y="161" type="curve"/>
      <point x="574" y="285"/>
      <point x="450" y="294"/>
      <point x="311" y="324" type="curve" smooth="yes"/>
      <point x="238" y="340"/>
      <point x="165" y="349"/>
      <point x="165" y="391" type="curve"/>
      <point x="165" y="421"/>
      <point x="216" y="434"/>
      <point x="277" y="434" type="curve"/>
      <point x="337" y="434"/>
      <point x="411" y="418"/>
      <point x="462" y="399" type="curve"/>
      <point x="517" y="492"/>
      <point x="462" y="399"/>
      <point x="517" y="493" type="curve"/>
      <point x="462" y="517"/>
      <point x="363" y="538"/>
      <point x="283" y="538" type="curve"/>
      <point x="143" y="538"/>
      <point x="37" y="505"/>
      <point x="37" y="390" type="curve"/>
      <point x="37" y="278"/>
      <point x="137" y="250"/>
      <point x="266" y="223" type="curve" smooth="yes"/>
      <point x="348" y="204"/>
      <point x="439" y="202"/>
      <point x="439" y="157" type="curve"/>
      <point x="439" y="119"/>
      <point x="381" y="100"/>
      <point x="312" y="100" type="curve"/>
      <point x="232" y="100"/>
      <point x="178" y="114"/>
      <point x="89" y="143" type="curve"/>
      <point x="30" y="47"/>
      <point x="89" y="143"/>
    </contour>
    <contour>
      <point x="286" y="618" type="move" name="top"/>
    </contour>
    <contour>
      <point x="320" y="8" type="move" name="bottom"/>
    </contour>
  </outline>
</glyph>
<glyph name="v" format="1">
  <advance width="705"/>
  <unicode hex="0076"/>
  <outline>
    <contour>
      <point x="14" y="533" type="curve"/>
      <point x="101" y="355"/>
      <point x="187" y="178"/>
      <point x="274" y="0" type="curve"/>
      <point x="414" y="0"/>
      <point x="274" y="0"/>
      <point x="414" y="0" type="curve"/>
      <point x="329" y="178"/>
      <point x="243" y="355"/>
      <point x="158" y="533" type="curve"/>
      <point x="14" y="533"/>
      <point x="158" y="533"/>
    </contour>
    <contour>
      <point x="553" y="533" type="curve"/>
      <point x="282" y="0" type="line"/>
      <point x="423" y="0"/>
      <point x="282" y="0"/>
      <point x="423" y="0" type="curve"/>
      <point x="514" y="178"/>
      <point x="604" y="355"/>
      <point x="696" y="533" type="curve"/>
      <point x="553" y="533"/>
      <point x="696" y="533"/>
    </contour>
  </outline>
</glyph>
<glyph name="w" format="1">
  <advance width="1120"/>
  <unicode hex="0077"/>
  <outline>
    <contour>
      <point x="382" y="0" type="curve"/>
      <point x="467" y="178"/>
      <point x="551" y="355"/>
      <point x="636" y="533" type="curve"/>
      <point x="494" y="533"/>
      <point x="636" y="533"/>
      <point x="494" y="533" type="curve"/>
      <point x="411" y="355"/>
      <point x="328" y="178"/>
      <point x="244" y="0" type="curve"/>
      <point x="382" y="0"/>
      <point x="244" y="0"/>
    </contour>
    <contour>
      <point x="965" y="533" type="curve"/>
      <point x="887" y="355"/>
      <point x="810" y="178"/>
      <point x="732" y="0" type="curve"/>
      <point x="870" y="0"/>
      <point x="732" y="0"/>
      <point x="870" y="0" type="curve"/>
      <point x="949" y="178"/>
      <point x="1028" y="355"/>
      <point x="1107" y="533" type="curve"/>
      <point x="965" y="533"/>
      <point x="1107" y="533"/>
    </contour>
    <contour>
      <point x="502" y="533" type="curve"/>
      <point x="578" y="355"/>
      <point x="654" y="178"/>
      <point x="730" y="0" type="curve"/>
      <point x="869" y="0"/>
      <point x="730" y="0"/>
      <point x="869" y="0" type="curve"/>
      <point x="794" y="178"/>
      <point x="718" y="355"/>
      <point x="642" y="533" type="curve"/>
      <point x="502" y="533"/>
      <point x="642" y="533"/>
    </contour>
    <contour>
      <point x="15" y="533" type="curve"/>
      <point x="91" y="355"/>
      <point x="167" y="178"/>
      <point x="242" y="0" type="curve"/>
      <point x="381" y="0"/>
      <point x="242" y="0"/>
      <point x="381" y="0" type="curve"/>
      <point x="306" y="178"/>
      <point x="231" y="355"/>
      <point x="156" y="533" type="curve"/>
      <point x="15" y="533"/>
      <point x="156" y="533"/>
    </contour>
  </outline>
</glyph>
<glyph name="x" format="1">
  <advance width="749"/>
  <unicode hex="0078"/>
  <outline>
    <contour>
      <point x="737" y="0" type="curve"/>
      <point x="714" y="23"/>
      <point x="192" y="510"/>
      <point x="168" y="533" type="curve"/>
      <point x="-54" y="533"/>
      <point x="241" y="533"/>
      <point x="19" y="533" type="curve"/>
      <point x="43" y="510"/>
      <point x="549" y="23"/>
      <point x="573" y="0" type="curve"/>
      <point x="737" y="0"/>
      <point x="573" y="0"/>
    </contour>
    <contour>
      <point x="584" y="533" type="curve"/>
      <point x="560" y="510"/>
      <point x="31" y="23"/>
      <point x="7" y="0" type="curve"/>
      <point x="176" y="0"/>
      <point x="7" y="0"/>
      <point x="176" y="0" type="curve"/>
      <point x="199" y="23"/>
      <point x="717" y="510"/>
      <point x="741" y="533" type="curve"/>
      <point x="483" y="533"/>
      <point x="841" y="533"/>
    </contour>
  </outline>
</glyph>
<glyph name="y" format="1">
  <advance width="716"/>
  <unicode hex="0079"/>
  <outline>
    <contour>
      <point x="402" y="-7" type="curve"/>
      <point x="384" y="30"/>
      <point x="171" y="496"/>
      <point x="153" y="533" type="curve"/>
      <point x="9" y="533"/>
      <point x="153" y="533"/>
      <point x="9" y="533" type="curve"/>
      <point x="27" y="496"/>
      <point x="259" y="17"/>
      <point x="278" y="-20" type="curve"/>
      <point x="402" y="-20"/>
      <point x="278" y="-7"/>
    </contour>
    <contour>
      <point x="261" y="-300" type="curve"/>
      <point x="292" y="-243"/>
      <point x="684" y="476"/>
      <point x="714" y="533" type="curve"/>
      <point x="571" y="533"/>
      <point x="714" y="533"/>
      <point x="571" y="533" type="curve"/>
      <point x="540" y="476"/>
      <point x="147" y="-243"/>
      <point x="117" y="-300" type="curve"/>
      <point x="261" y="-300"/>
      <point x="117" y="-300"/>
    </contour>
    <contour>
      <point x="359" y="618" type="move" name="top"/>
    </contour>
  </outline>
</glyph>
<glyph name="braceleft" format="1">
  <advance width="362"/>
  <unicode hex="007B"/>
  <outline>
    <contour>
      <point x="321" y="-5" type="curve"/>
      <point x="272" y="-5"/>
      <point x="240" y="17"/>
      <point x="240" y="63" type="curve"/>
      <point x="240" y="114"/>
      <point x="240" y="166"/>
      <point x="240" y="218" type="curve"/>
      <point x="240" y="333"/>
      <point x="153" y="396"/>
      <point x="32" y="396" type="curve"/>
      <point x="32" y="287"/>
      <point x="32" y="396"/>
      <point x="32" y="287" type="curve"/>
      <point x="78" y="287"/>
      <point x="112" y="270"/>
      <point x="112" y="227" type="curve"/>
      <point x="112" y="174"/>
      <point x="112" y="121"/>
      <point x="112" y="68" type="curve"/>
      <point x="112" y="-49"/>
      <point x="198" y="-109"/>
      <point x="321" y="-109" type="curve"/>
      <point x="321" y="-5"/>
      <point x="321" y="-109"/>
    </contour>
    <contour>
      <point x="321" y="791" type="curve"/>
      <point x="198" y="791"/>
      <point x="112" y="733"/>
      <point x="112" y="616" type="curve"/>
      <point x="112" y="562"/>
      <point x="112" y="506"/>
      <point x="112" y="451" type="curve"/>
      <point x="112" y="409"/>
      <point x="77" y="396"/>
      <point x="32" y="396" type="curve"/>
      <point x="32" y="287"/>
      <point x="32" y="396"/>
      <point x="32" y="287" type="curve"/>
      <point x="154" y="287"/>
      <point x="240" y="349"/>
      <point x="240" y="466" type="curve"/>
      <point x="240" y="516"/>
      <point x="240" y="566"/>
      <point x="240" y="616" type="curve"/>
      <point x="240" y="663"/>
      <point x="272" y="687"/>
      <point x="321" y="687" type="curve"/>
      <point x="321" y="791"/>
      <point x="321" y="687"/>
    </contour>
  </outline>
</glyph>
<glyph name="braceright" format="1">
  <advance width="362"/>
  <unicode hex="007D"/>
  <outline>
    <contour>
      <point x="39" y="-109" type="curve"/>
      <point x="162" y="-109"/>
      <point x="248" y="-49"/>
      <point x="248" y="68" type="curve"/>
      <point x="248" y="121"/>
      <point x="248" y="174"/>
      <point x="248" y="227" type="curve"/>
      <point x="248" y="270"/>
      <point x="282" y="286"/>
      <point x="328" y="286" type="curve"/>
      <point x="328" y="396"/>
      <point x="328" y="286"/>
      <point x="328" y="396" type="curve"/>
      <point x="206" y="396"/>
      <point x="120" y="333"/>
      <point x="120" y="218" type="curve"/>
      <point x="120" y="166"/>
      <point x="120" y="114"/>
      <point x="120" y="63" type="curve"/>
      <point x="120" y="17"/>
      <point x="87" y="-6"/>
      <point x="39" y="-6" type="curve"/>
      <point x="39" y="-109"/>
      <point x="39" y="-6"/>
    </contour>
    <contour>
      <point x="39" y="687" type="curve"/>
      <point x="88" y="687"/>
      <point x="120" y="663"/>
      <point x="120" y="616" type="curve"/>
      <point x="120" y="566"/>
      <point x="120" y="516"/>
      <point x="120" y="466" type="curve"/>
      <point x="120" y="348"/>
      <point x="205" y="286"/>
      <point x="328" y="286" type="curve"/>
      <point x="328" y="396"/>
      <point x="328" y="286"/>
      <point x="328" y="396" type="curve"/>
      <point x="282" y="396"/>
      <point x="248" y="409"/>
      <point x="248" y="451" type="curve"/>
      <point x="248" y="506"/>
      <point x="248" y="562"/>
      <point x="248" y="616" type="curve"/>
      <point x="248" y="732"/>
      <point x="162" y="790"/>
      <point x="39" y="790" type="curve"/>
      <point x="39" y="687"/>
      <point x="39" y="790"/>
    </contour>
  </outline>
</glyph>
<glyph name="asciitilde" format="1">
  <advance width="794"/>
  <unicode hex="007E"/>
  <outline>
    <contour>
      <point x="639" y="376" type="curve"/>
      <point x="619" y="331"/>
      <point x="601" y="298"/>
      <point x="553" y="298" type="curve"/>
      <point x="503" y="298"/>
      <point x="473" y="307"/>
      <point x="431" y="332" type="curve"/>
      <point x="367" y="370"/>
      <point x="325" y="389"/>
      <point x="250" y="389" type="curve"/>
      <point x="144" y="389"/>
      <point x="84" y="345"/>
      <point x="46" y="247" type="curve"/>
      <point x="86" y="228"/>
      <point x="106" y="219"/>
      <point x="146" y="201" type="curve"/>
      <point x="165" y="252"/>
      <point x="190" y="285"/>
      <point x="244" y="285" type="curve"/>
      <point x="286" y="285"/>
      <point x="311" y="277"/>
      <point x="347" y="255" type="curve"/>
      <point x="416" y="214"/>
      <point x="460" y="195"/>
      <point x="541" y="194" type="curve"/>
      <point x="645" y="194"/>
      <point x="702" y="236"/>
      <point x="747" y="329" type="curve"/>
      <point x="704" y="348"/>
      <point x="683" y="358"/>
    </contour>
  </outline>
</glyph>
<glyph name="exclamdown" format="1">
  <advance width="270"/>
  <unicode hex="00A1"/>
  <outline>
    <contour>
      <point x="82" y="305" type="line"/>
      <point x="64" y="-188" type="line"/>
      <point x="208" y="-189" type="line"/>
      <point x="192" y="304" type="line"/>
    </contour>
    <contour>
      <point x="53" y="476" type="curve"/>
      <point x="53" y="430"/>
      <point x="89" y="408"/>
      <point x="137" y="408" type="curve"/>
      <point x="185" y="408"/>
      <point x="218" y="432"/>
      <point x="218" y="476" type="curve"/>
      <point x="56" y="476"/>
      <point x="216" y="476"/>
      <point x="53" y="476" type="curve"/>
      <point x="53" y="523"/>
      <point x="89" y="543"/>
      <point x="138" y="543" type="curve"/>
      <point x="186" y="543"/>
      <point x="218" y="520"/>
      <point x="218" y="476" type="curve"/>
      <point x="56" y="476"/>
      <point x="216" y="476"/>
    </contour>
  </outline>
</glyph>
<glyph name="cent" format="1">
  <advance width="782"/>
  <unicode hex="00A2"/>
  <outline>
    <contour>
      <point x="490" y="-53" type="curve"/>
      <point x="490" y="-13"/>
      <point x="490" y="27"/>
      <point x="490" y="67" type="curve"/>
      <point x="349" y="67"/>
      <point x="490" y="67"/>
      <point x="349" y="67" type="curve"/>
      <point x="349" y="27"/>
      <point x="349" y="-13"/>
      <point x="349" y="-53" type="curve"/>
      <point x="490" y="-53"/>
      <point x="349" y="-53"/>
    </contour>
    <contour>
      <point x="375" y="778" type="curve"/>
      <point x="375" y="742"/>
      <point x="375" y="706"/>
      <point x="375" y="670" type="curve"/>
      <point x="516" y="670"/>
      <point x="375" y="670"/>
      <point x="516" y="670" type="curve"/>
      <point x="516" y="706"/>
      <point x="516" y="742"/>
      <point x="516" y="778" type="curve"/>
      <point x="375" y="778"/>
      <point x="516" y="778"/>
    </contour>
    <contour>
      <point x="748" y="618" type="curve"/>
      <point x="648" y="668"/>
      <point x="568" y="686"/>
      <point x="456" y="686" type="curve"/>
      <point x="215" y="686"/>
      <point x="35" y="585"/>
      <point x="35" y="363" type="curve"/>
      <point x="35" y="155"/>
      <point x="191" y="45"/>
      <point x="412" y="45" type="curve"/>
      <point x="543" y="45"/>
      <point x="637" y="70"/>
      <point x="750" y="136" type="curve"/>
      <point x="675" y="228"/>
      <point x="750" y="136"/>
      <point x="675" y="228" type="curve"/>
      <point x="582" y="175"/>
      <point x="517" y="154"/>
      <point x="425" y="154" type="curve"/>
      <point x="278" y="154"/>
      <point x="176" y="229"/>
      <point x="176" y="369" type="curve"/>
      <point x="176" y="511"/>
      <point x="290" y="578"/>
      <point x="442" y="578" type="curve"/>
      <point x="531" y="578"/>
      <point x="593" y="563"/>
      <point x="686" y="522" type="curve"/>
      <point x="748" y="618"/>
      <point x="686" y="522"/>
    </contour>
  </outline>
</glyph>
<glyph name="sterling" format="1">
  <advance width="611"/>
  <unicode hex="00A3"/>
  <outline>
    <contour>
      <point x="545" y="104" type="curve"/>
      <point x="377" y="104"/>
      <point x="209" y="104"/>
      <point x="41" y="104" type="curve"/>
      <point x="41" y="0"/>
      <point x="41" y="104"/>
      <point x="41" y="0" type="curve"/>
      <point x="209" y="0"/>
      <point x="377" y="0"/>
      <point x="545" y="0" type="curve"/>
      <point x="545" y="104"/>
      <point x="545" y="0"/>
    </contour>
    <contour>
      <point x="486" y="427" type="curve"/>
      <point x="352" y="427"/>
      <point x="217" y="427"/>
      <point x="84" y="427" type="curve"/>
      <point x="84" y="323"/>
      <point x="84" y="427"/>
      <point x="84" y="323" type="curve"/>
      <point x="217" y="323"/>
      <point x="352" y="323"/>
      <point x="486" y="323" type="curve"/>
      <point x="486" y="427"/>
      <point x="486" y="323"/>
    </contour>
    <contour>
      <point x="582" y="663" type="curve"/>
      <point x="519" y="707"/>
      <point x="467" y="720"/>
      <point x="392" y="720" type="curve"/>
      <point x="201" y="720"/>
      <point x="91" y="561"/>
      <point x="148" y="364" type="curve"/>
      <point x="187" y="225"/>
      <point x="150" y="104"/>
      <point x="41" y="104" type="curve"/>
      <point x="41" y="0"/>
      <point x="41" y="104"/>
      <point x="41" y="0" type="curve"/>
      <point x="245" y="0"/>
      <point x="347" y="175"/>
      <point x="288" y="385" type="curve"/>
      <point x="252" y="512"/>
      <point x="291" y="622"/>
      <point x="385" y="622" type="curve"/>
      <point x="436" y="622"/>
      <point x="470" y="610"/>
      <point x="515" y="585" type="curve"/>
      <point x="582" y="663"/>
      <point x="515" y="585"/>
    </contour>
  </outline>
</glyph>
<glyph name="currency" format="1">
  <advance width="750"/>
  <unicode hex="00A4"/>
  <outline>
    <contour>
      <point x="262" y="316" type="curve"/>
      <point x="262" y="375"/>
      <point x="309" y="405"/>
      <point x="373" y="405" type="curve"/>
      <point x="441" y="405"/>
      <point x="489" y="376"/>
      <point x="489" y="315" type="curve"/>
      <point x="489" y="255"/>
      <point x="446" y="222"/>
      <point x="384" y="222" type="curve"/>
      <point x="313" y="222"/>
      <point x="262" y="252"/>
      <point x="262" y="316" type="curve"/>
      <point x="121" y="316"/>
      <point x="263" y="316"/>
      <point x="121" y="316" type="curve"/>
      <point x="121" y="181"/>
      <point x="231" y="119"/>
      <point x="378" y="119" type="curve"/>
      <point x="523" y="119"/>
      <point x="630" y="185"/>
      <point x="630" y="319" type="curve"/>
      <point x="630" y="448"/>
      <point x="525" y="508"/>
      <point x="386" y="508" type="curve"/>
      <point x="236" y="508"/>
      <point x="121" y="451"/>
      <point x="121" y="316" type="curve"/>
      <point x="263" y="316"/>
      <point x="121" y="316"/>
    </contour>
    <contour>
      <point x="541" y="308" type="line"/>
      <point x="708" y="463" type="line"/>
      <point x="598" y="574" type="line"/>
      <point x="442" y="406" type="line"/>
    </contour>
    <contour>
      <point x="444" y="226" type="line"/>
      <point x="599" y="58" type="line"/>
      <point x="709" y="169" type="line"/>
      <point x="542" y="324" type="line"/>
    </contour>
    <contour>
      <point x="208" y="326" type="line"/>
      <point x="41" y="171" type="line"/>
      <point x="152" y="60" type="line"/>
      <point x="307" y="228" type="line"/>
    </contour>
    <contour>
      <point x="307" y="408" type="line"/>
      <point x="152" y="576" type="line"/>
      <point x="41" y="465" type="line"/>
      <point x="209" y="310" type="line"/>
    </contour>
  </outline>
</glyph>
<glyph name="yen" format="1">
  <advance width="812"/>
  <unicode hex="00A5"/>
  <outline>
    <contour>
      <point x="691" y="440" type="curve"/>
      <point x="604" y="440"/>
      <point x="516" y="440"/>
      <point x="428" y="440" type="curve"/>
      <point x="428" y="326"/>
      <point x="428" y="440"/>
      <point x="428" y="326" type="curve"/>
      <point x="516" y="326"/>
      <point x="604" y="326"/>
      <point x="691" y="326" type="curve"/>
      <point x="691" y="440"/>
      <point x="691" y="326"/>
    </contour>
    <contour>
      <point x="391" y="440" type="curve"/>
      <point x="306" y="440"/>
      <point x="219" y="440"/>
      <point x="132" y="440" type="curve"/>
      <point x="132" y="326"/>
      <point x="132" y="440"/>
      <point x="132" y="326" type="curve"/>
      <point x="219" y="326"/>
      <point x="306" y="326"/>
      <point x="391" y="326" type="curve"/>
      <point x="391" y="440"/>
      <point x="391" y="326"/>
    </contour>
    <contour>
      <point x="691" y="278" type="curve"/>
      <point x="506" y="278"/>
      <point x="319" y="278"/>
      <point x="132" y="278" type="curve"/>
      <point x="132" y="164"/>
      <point x="132" y="278"/>
      <point x="132" y="164" type="curve"/>
      <point x="319" y="164"/>
      <point x="506" y="164"/>
      <point x="691" y="164" type="curve"/>
      <point x="691" y="278"/>
      <point x="691" y="164"/>
    </contour>
    <contour>
      <point x="26" y="722" type="curve"/>
      <point x="116" y="605"/>
      <point x="245" y="454"/>
      <point x="334" y="337" type="curve"/>
      <point x="477" y="337"/>
      <point x="332" y="337"/>
      <point x="475" y="337" type="curve"/>
      <point x="378" y="466"/>
      <point x="281" y="594"/>
      <point x="184" y="722" type="curve"/>
      <point x="67" y="722"/>
      <point x="143" y="722"/>
    </contour>
    <contour>
      <point x="644" y="722" type="curve"/>
      <point x="541" y="594"/>
      <point x="439" y="466"/>
      <point x="336" y="337" type="curve"/>
      <point x="478" y="337"/>
      <point x="335" y="337"/>
      <point x="477" y="337" type="curve"/>
      <point x="573" y="455"/>
      <point x="695" y="604"/>
      <point x="790" y="722" type="curve"/>
      <point x="672" y="722"/>
      <point x="762" y="722"/>
    </contour>
    <contour>
      <point x="483" y="0" type="curve"/>
      <point x="483" y="115"/>
      <point x="483" y="230"/>
      <point x="483" y="345" type="curve"/>
      <point x="328" y="345"/>
      <point x="483" y="345"/>
      <point x="328" y="345" type="curve"/>
      <point x="328" y="230"/>
      <point x="328" y="115"/>
      <point x="328" y="0" type="curve"/>
      <point x="483" y="0"/>
      <point x="328" y="0"/>
    </contour>
  </outline>
</glyph>
<glyph name="section" format="1">
  <advance width="619"/>
  <unicode hex="00A7"/>
  <outline>
    <contour>
      <point x="517" y="703" type="curve"/>
      <point x="445" y="733"/>
      <point x="392" y="749"/>
      <point x="314" y="749" type="curve"/>
      <point x="181" y="749"/>
      <point x="78" y="708"/>
      <point x="78" y="596" type="curve"/>
      <point x="78" y="497"/>
      <point x="158" y="456"/>
      <point x="261" y="430" type="curve"/>
      <point x="343" y="410"/>
      <point x="445" y="412"/>
      <point x="445" y="354" type="curve"/>
      <point x="445" y="297"/>
      <point x="383" y="287"/>
      <point x="313" y="277" type="curve"/>
      <point x="396" y="195"/>
      <point x="313" y="277"/>
      <point x="396" y="195" type="curve"/>
      <point x="505" y="214"/>
      <point x="585" y="259"/>
      <point x="585" y="361" type="curve"/>
      <point x="584" y="485"/>
      <point x="462" y="500"/>
      <point x="331" y="528" type="curve"/>
      <point x="276" y="542"/>
      <point x="218" y="548"/>
      <point x="218" y="596" type="curve"/>
      <point x="218" y="635"/>
      <point x="256" y="645"/>
      <point x="302" y="645" type="curve"/>
      <point x="360" y="645"/>
      <point x="400" y="638"/>
      <point x="463" y="614" type="curve"/>
      <point x="517" y="703"/>
      <point x="463" y="614"/>
    </contour>
    <contour>
      <point x="220" y="527" type="curve"/>
      <point x="117" y="504"/>
      <point x="36" y="465"/>
      <point x="36" y="366" type="curve"/>
      <point x="36" y="251"/>
      <point x="141" y="223"/>
      <point x="264" y="196" type="curve"/>
      <point x="331" y="179"/>
      <point x="409" y="173"/>
      <point x="409" y="126" type="curve"/>
      <point x="409" y="85"/>
      <point x="365" y="77"/>
      <point x="313" y="77" type="curve"/>
      <point x="250" y="77"/>
      <point x="206" y="88"/>
      <point x="136" y="117" type="curve"/>
      <point x="73" y="33"/>
      <point x="136" y="117"/>
      <point x="73" y="33" type="curve"/>
      <point x="153" y="-9"/>
      <point x="217" y="-26"/>
      <point x="308" y="-26" type="curve"/>
      <point x="440" y="-26"/>
      <point x="550" y="11"/>
      <point x="550" y="130" type="curve"/>
      <point x="548" y="233"/>
      <point x="461" y="271"/>
      <point x="354" y="294" type="curve"/>
      <point x="272" y="314"/>
      <point x="176" y="312"/>
      <point x="176" y="376" type="curve"/>
      <point x="176" y="426"/>
      <point x="230" y="436"/>
      <point x="290" y="450" type="curve"/>
      <point x="220" y="527"/>
      <point x="290" y="450"/>
    </contour>
  </outline>
</glyph>
<glyph name="dieresis" format="1">
  <advance width="451"/>
  <unicode hex="00A8"/>
  <outline>
    <contour>
      <point x="195" y="590" type="curve"/>
      <point x="195" y="636"/>
      <point x="160" y="658"/>
      <point x="111" y="658" type="curve"/>
      <point x="63" y="658"/>
      <point x="30" y="634"/>
      <point x="30" y="590" type="curve"/>
      <point x="193" y="590"/>
      <point x="33" y="590"/>
      <point x="195" y="590" type="curve"/>
      <point x="195" y="543"/>
      <point x="160" y="523"/>
      <point x="110" y="523" type="curve"/>
      <point x="62" y="523"/>
      <point x="30" y="546"/>
      <point x="30" y="590" type="curve"/>
      <point x="193" y="590"/>
      <point x="33" y="590"/>
    </contour>
    <contour>
      <point x="421" y="590" type="curve"/>
      <point x="421" y="636"/>
      <point x="385" y="658"/>
      <point x="337" y="658" type="curve"/>
      <point x="289" y="658"/>
      <point x="256" y="634"/>
      <point x="256" y="590" type="curve"/>
      <point x="418" y="590"/>
      <point x="259" y="590"/>
      <point x="421" y="590" type="curve"/>
      <point x="421" y="543"/>
      <point x="386" y="523"/>
      <point x="336" y="523" type="curve"/>
      <point x="288" y="523"/>
      <point x="256" y="546"/>
      <point x="256" y="590" type="curve"/>
      <point x="418" y="590"/>
      <point x="259" y="590"/>
    </contour>
    <contour>
      <point x="225" y="526" type="move" name="_top"/>
    </contour>
  </outline>
</glyph>
<glyph name="copyright" format="1">
  <advance width="952"/>
  <unicode hex="00A9"/>
  <outline>
    <contour>
      <point x="153" y="324" type="curve"/>
      <point x="153" y="487"/>
      <point x="300" y="561"/>
      <point x="478" y="561" type="curve"/>
      <point x="652" y="561"/>
      <point x="796" y="483"/>
      <point x="796" y="321" type="curve"/>
      <point x="796" y="166"/>
      <point x="657" y="89"/>
      <point x="488" y="89" type="curve"/>
      <point x="308" y="89"/>
      <point x="153" y="159"/>
      <point x="153" y="324" type="curve"/>
      <point x="39" y="324"/>
      <point x="153" y="324"/>
      <point x="39" y="324" type="curve"/>
      <point x="39" y="105"/>
      <point x="241" y="5"/>
      <point x="483" y="5" type="curve"/>
      <point x="717" y="5"/>
      <point x="909" y="111"/>
      <point x="909" y="326" type="curve"/>
      <point x="909" y="541"/>
      <point x="714" y="645"/>
      <point x="478" y="645" type="curve"/>
      <point x="240" y="645"/>
      <point x="39" y="543"/>
      <point x="39" y="324" type="curve"/>
      <point x="153" y="324"/>
      <point x="39" y="324"/>
    </contour>
    <contour>
      <point x="658" y="462" type="curve"/>
      <point x="614" y="491"/>
      <point x="553" y="512"/>
      <point x="484" y="512" type="curve"/>
      <point x="343" y="512"/>
      <point x="236" y="452"/>
      <point x="236" y="322" type="curve"/>
      <point x="236" y="198"/>
      <point x="333" y="139"/>
      <point x="465" y="139" type="curve"/>
      <point x="543" y="139"/>
      <point x="597" y="150"/>
      <point x="659" y="185" type="curve"/>
      <point x="611" y="254"/>
      <point x="659" y="185"/>
      <point x="611" y="254" type="curve"/>
      <point x="557" y="229"/>
      <point x="518" y="222"/>
      <point x="470" y="222" type="curve"/>
      <point x="398" y="222"/>
      <point x="349" y="259"/>
      <point x="349" y="327" type="curve"/>
      <point x="349" y="396"/>
      <point x="403" y="428"/>
      <point x="479" y="428" type="curve"/>
      <point x="512" y="428"/>
      <point x="556" y="422"/>
      <point x="606" y="399" type="curve"/>
      <point x="659" y="463"/>
      <point x="606" y="399"/>
    </contour>
  </outline>
</glyph>
<glyph name="ordfeminine" format="1">
  <advance width="479"/>
  <unicode hex="00AA"/>
  <outline>
    <contour>
      <point x="425" y="426" type="curve"/>
      <point x="425" y="510"/>
      <point x="425" y="586"/>
      <point x="425" y="670" type="curve"/>
      <point x="425" y="763"/>
      <point x="342" y="783"/>
      <point x="241" y="783" type="curve"/>
      <point x="165" y="783"/>
      <point x="107" y="763"/>
      <point x="60" y="733" type="curve"/>
      <point x="95" y="674"/>
      <point x="66" y="728"/>
      <point x="101" y="669" type="curve"/>
      <point x="129" y="691"/>
      <point x="172" y="712"/>
      <point x="228" y="712" type="curve"/>
      <point x="281" y="712"/>
      <point x="329" y="703"/>
      <point x="329" y="654" type="curve"/>
      <point x="329" y="576"/>
      <point x="329" y="503"/>
      <point x="329" y="426" type="curve"/>
      <point x="423" y="426"/>
      <point x="331" y="426"/>
    </contour>
    <contour>
      <point x="374" y="656" type="curve"/>
      <point x="309" y="650"/>
      <point x="270" y="648"/>
      <point x="204" y="642" type="curve"/>
      <point x="110" y="633"/>
      <point x="36" y="617"/>
      <point x="36" y="533" type="curve"/>
      <point x="36" y="451"/>
      <point x="102" y="422"/>
      <point x="193" y="422" type="curve"/>
      <point x="284" y="422"/>
      <point x="330" y="461"/>
      <point x="398" y="527" type="curve"/>
      <point x="354" y="562"/>
      <point x="396" y="528"/>
      <point x="352" y="563" type="curve"/>
      <point x="307" y="521"/>
      <point x="267" y="491"/>
      <point x="208" y="491" type="curve"/>
      <point x="164" y="491"/>
      <point x="131" y="500"/>
      <point x="131" y="534" type="curve"/>
      <point x="131" y="568"/>
      <point x="164" y="575"/>
      <point x="201" y="578" type="curve"/>
      <point x="269" y="585"/>
      <point x="310" y="589"/>
      <point x="379" y="596" type="curve"/>
      <point x="374" y="654"/>
      <point x="378" y="597"/>
    </contour>
  </outline>
</glyph>
<glyph name="guillemotleft" format="1">
  <advance width="653"/>
  <unicode hex="00AB"/>
  <outline>
    <contour>
      <point x="301" y="471" type="curve"/>
      <point x="239" y="442"/>
      <point x="98" y="374"/>
      <point x="37" y="344" type="curve"/>
      <point x="37" y="230"/>
      <point x="37" y="342"/>
      <point x="37" y="228" type="curve"/>
      <point x="98" y="258"/>
      <point x="239" y="327"/>
      <point x="301" y="357" type="curve"/>
      <point x="301" y="471"/>
      <point x="301" y="358"/>
    </contour>
    <contour>
      <point x="301" y="218" type="curve"/>
      <point x="239" y="247"/>
      <point x="98" y="314"/>
      <point x="37" y="344" type="curve"/>
      <point x="37" y="230"/>
      <point x="37" y="342"/>
      <point x="37" y="228" type="curve"/>
      <point x="98" y="198"/>
      <point x="239" y="133"/>
      <point x="301" y="102" type="curve"/>
      <point x="301" y="217"/>
      <point x="301" y="103"/>
    </contour>
    <contour>
      <point x="595" y="471" type="curve"/>
      <point x="533" y="442"/>
      <point x="392" y="374"/>
      <point x="331" y="344" type="curve"/>
      <point x="331" y="230"/>
      <point x="331" y="342"/>
      <point x="331" y="228" type="curve"/>
      <point x="392" y="258"/>
      <point x="533" y="327"/>
      <point x="595" y="357" type="curve"/>
      <point x="595" y="471"/>
      <point x="595" y="358"/>
    </contour>
    <contour>
      <point x="595" y="218" type="curve"/>
      <point x="533" y="247"/>
      <point x="392" y="314"/>
      <point x="331" y="344" type="curve"/>
      <point x="331" y="230"/>
      <point x="331" y="342"/>
      <point x="331" y="228" type="curve"/>
      <point x="392" y="198"/>
      <point x="533" y="133"/>
      <point x="595" y="102" type="curve"/>
      <point x="595" y="217"/>
      <point x="595" y="103"/>
    </contour>
  </outline>
</glyph>
<glyph name="logicalnot" format="1">
  <advance width="736"/>
  <unicode hex="00AC"/>
  <outline>
    <contour>
      <point x="58" y="256" type="curve"/>
      <point x="675" y="256" type="line"/>
      <point x="675" y="370"/>
      <point x="675" y="256"/>
      <point x="675" y="370" type="curve"/>
      <point x="58" y="370" type="line"/>
      <point x="58" y="256"/>
      <point x="58" y="370"/>
    </contour>
    <contour>
      <point x="675" y="141" type="curve"/>
      <point x="675" y="370" type="line"/>
      <point x="535" y="370"/>
      <point x="683" y="370"/>
      <point x="543" y="370" type="curve"/>
      <point x="543" y="141" type="line"/>
      <point x="683" y="141"/>
      <point x="535" y="141"/>
    </contour>
  </outline>
</glyph>
<glyph name="registered" format="1">
  <advance width="941"/>
  <unicode hex="00AE"/>
  <outline>
    <contour>
      <point x="147" y="324" type="curve"/>
      <point x="147" y="498"/>
      <point x="289" y="570"/>
      <point x="475" y="570" type="curve"/>
      <point x="658" y="570"/>
      <point x="795" y="493"/>
      <point x="795" y="321" type="curve"/>
      <point x="795" y="154"/>
      <point x="662" y="80"/>
      <point x="484" y="80" type="curve"/>
      <point x="294" y="80"/>
      <point x="147" y="149"/>
      <point x="147" y="324" type="curve"/>
      <point x="107" y="324"/>
      <point x="83" y="324"/>
      <point x="43" y="324" type="curve"/>
      <point x="43" y="97"/>
      <point x="233" y="5"/>
      <point x="480" y="5" type="curve"/>
      <point x="719" y="5"/>
      <point x="898" y="103"/>
      <point x="898" y="326" type="curve"/>
      <point x="898" y="550"/>
      <point x="716" y="645"/>
      <point x="475" y="645" type="curve"/>
      <point x="230" y="645"/>
      <point x="43" y="551"/>
      <point x="43" y="324" type="curve"/>
      <point x="83" y="324"/>
      <point x="107" y="324"/>
    </contour>
    <contour>
      <point x="416" y="316" type="curve"/>
      <point x="453" y="270"/>
      <point x="509" y="187"/>
      <point x="546" y="141" type="curve"/>
      <point x="608" y="141"/>
      <point x="588" y="140"/>
      <point x="665" y="140" type="curve"/>
      <point x="628" y="190"/>
      <point x="576" y="264"/>
      <point x="540" y="312" type="curve"/>
      <point x="412" y="312"/>
      <point x="543" y="316"/>
    </contour>
    <contour>
      <point x="428" y="141" type="curve"/>
      <point x="428" y="260"/>
      <point x="428" y="389"/>
      <point x="428" y="507" type="curve"/>
      <point x="364" y="507"/>
      <point x="381" y="507"/>
      <point x="315" y="507" type="curve"/>
      <point x="315" y="389"/>
      <point x="315" y="260"/>
      <point x="315" y="141" type="curve"/>
      <point x="387" y="141"/>
      <point x="363" y="141"/>
    </contour>
    <contour>
      <point x="375" y="271" type="curve"/>
      <point x="399" y="271"/>
      <point x="423" y="271"/>
      <point x="447" y="271" type="curve"/>
      <point x="556" y="271"/>
      <point x="639" y="293"/>
      <point x="639" y="392" type="curve"/>
      <point x="639" y="476"/>
      <point x="565" y="507"/>
      <point x="472" y="507" type="curve"/>
      <point x="457" y="507"/>
      <point x="433" y="507"/>
      <point x="419" y="507" type="curve"/>
      <point x="316" y="428"/>
      <point x="429" y="507"/>
      <point x="315" y="424" type="curve"/>
      <point x="361" y="424"/>
      <point x="406" y="424"/>
      <point x="451" y="424" type="curve"/>
      <point x="492" y="424"/>
      <point x="527" y="422"/>
      <point x="527" y="387" type="curve"/>
      <point x="527" y="356"/>
      <point x="498" y="354"/>
      <point x="463" y="354" type="curve"/>
      <point x="434" y="354"/>
      <point x="404" y="354"/>
      <point x="375" y="354" type="curve"/>
      <point x="375" y="271"/>
      <point x="375" y="354"/>
    </contour>
  </outline>
</glyph>
<glyph name="macron" format="1">
  <advance width="397"/>
  <unicode hex="00AF"/>
  <outline>
    <contour>
      <point x="307" y="662" type="curve"/>
      <point x="213" y="662"/>
      <point x="120" y="662"/>
      <point x="26" y="662" type="curve"/>
      <point x="26" y="558"/>
      <point x="26" y="662"/>
      <point x="26" y="558" type="curve"/>
      <point x="120" y="558"/>
      <point x="213" y="558"/>
      <point x="307" y="558" type="curve"/>
      <point x="307" y="662"/>
      <point x="307" y="558"/>
    </contour>
    <contour>
      <point x="168" y="558" type="move" name="_top"/>
    </contour>
  </outline>
</glyph>
<glyph name="degree" format="1">
  <advance width="558"/>
  <unicode hex="00B0"/>
  <outline>
    <contour>
      <point x="524" y="489" type="curve"/>
      <point x="524" y="626"/>
      <point x="424" y="700"/>
      <point x="281" y="700" type="curve"/>
      <point x="137" y="700"/>
      <point x="35" y="628"/>
      <point x="35" y="491" type="curve"/>
      <point x="153" y="491"/>
      <point x="41" y="491"/>
      <point x="159" y="491" type="curve"/>
      <point x="159" y="558"/>
      <point x="205" y="600"/>
      <point x="279" y="600" type="curve"/>
      <point x="349" y="600"/>
      <point x="399" y="561"/>
      <point x="399" y="489" type="curve"/>
      <point x="399" y="417"/>
      <point x="353" y="373"/>
      <point x="281" y="373" type="curve"/>
      <point x="207" y="373"/>
      <point x="159" y="418"/>
      <point x="159" y="491" type="curve"/>
      <point x="41" y="491"/>
      <point x="153" y="491"/>
      <point x="35" y="491" type="curve"/>
      <point x="35" y="352"/>
      <point x="133" y="273"/>
      <point x="277" y="273" type="curve"/>
      <point x="422" y="273"/>
      <point x="524" y="350"/>
    </contour>
  </outline>
</glyph>
<glyph name="plusminus" format="1">
  <advance width="695"/>
  <unicode hex="00B1"/>
  <outline>
    <contour>
      <point x="48" y="21" type="line"/>
      <point x="647" y="21" type="line"/>
      <point x="647" y="135" type="line"/>
      <point x="48" y="135" type="line"/>
    </contour>
    <contour>
      <point x="48" y="256" type="curve"/>
      <point x="647" y="256" type="line"/>
      <point x="647" y="370"/>
      <point x="647" y="256"/>
      <point x="647" y="370" type="curve"/>
      <point x="48" y="370" type="line"/>
      <point x="48" y="256"/>
      <point x="48" y="370"/>
    </contour>
    <contour>
      <point x="417" y="21" type="curve"/>
      <point x="417" y="587" type="line"/>
      <point x="276" y="587"/>
      <point x="425" y="587"/>
      <point x="285" y="587" type="curve"/>
      <point x="285" y="21" type="line"/>
      <point x="425" y="21"/>
      <point x="276" y="21"/>
    </contour>
  </outline>
</glyph>
<glyph name="twosuperior" format="1">
  <advance width="552"/>
  <unicode hex="00B2"/>
  <outline>
    <contour>
      <point x="38" y="267" type="curve"/>
      <point x="233" y="267"/>
      <point x="371" y="267"/>
      <point x="508" y="267" type="curve"/>
      <point x="508" y="323"/>
      <point x="508" y="325"/>
      <point x="508" y="369" type="curve"/>
      <point x="353" y="369"/>
      <point x="193" y="369"/>
      <point x="38" y="369" type="curve"/>
      <point x="38" y="268"/>
      <point x="38" y="369"/>
    </contour>
    <contour>
      <point x="140" y="563" type="curve"/>
      <point x="176" y="598"/>
      <point x="208" y="614"/>
      <point x="253" y="614" type="curve"/>
      <point x="299" y="614"/>
      <point x="337" y="602"/>
      <point x="337" y="568" type="curve"/>
      <point x="337" y="531"/>
      <point x="305" y="517"/>
      <point x="274" y="496" type="curve"/>
      <point x="195" y="453"/>
      <point x="117" y="412"/>
      <point x="38" y="369" type="curve"/>
      <point x="40" y="271"/>
      <point x="42" y="369"/>
      <point x="44" y="271" type="curve"/>
      <point x="167" y="332"/>
      <point x="261" y="372"/>
      <point x="344" y="418" type="curve"/>
      <point x="415" y="463"/>
      <point x="476" y="495"/>
      <point x="476" y="572" type="curve"/>
      <point x="476" y="677"/>
      <point x="384" y="716"/>
      <point x="269" y="716" type="curve"/>
      <point x="173" y="716"/>
      <point x="98" y="689"/>
      <point x="47" y="623" type="curve"/>
      <point x="140" y="563"/>
      <point x="47" y="623"/>
    </contour>
    <contour>
      <point x="256" y="715" type="move" name="_top"/>
    </contour>
    <contour>
      <point x="279" y="268" type="move" name="_bottom"/>
    </contour>
  </outline>
</glyph>
<glyph name="threesuperior" format="1">
  <advance width="487"/>
  <unicode hex="00B3"/>
  <outline>
    <contour>
      <point x="95" y="579" type="curve"/>
      <point x="133" y="607"/>
      <point x="176" y="616"/>
      <point x="207" y="616" type="curve"/>
      <point x="254" y="616"/>
      <point x="292" y="610"/>
      <point x="292" y="577" type="curve"/>
      <point x="292" y="536"/>
      <point x="219" y="535"/>
      <point x="155" y="534" type="curve"/>
      <point x="155" y="450"/>
      <point x="155" y="534"/>
      <point x="155" y="450" type="curve"/>
      <point x="299" y="451"/>
      <point x="431" y="462"/>
      <point x="431" y="583" type="curve"/>
      <point x="431" y="686"/>
      <point x="337" y="714"/>
      <point x="221" y="714" type="curve"/>
      <point x="152" y="714"/>
      <point x="87" y="691"/>
      <point x="37" y="652" type="curve"/>
      <point x="95" y="579"/>
      <point x="37" y="652"/>
    </contour>
    <contour>
      <point x="34" y="300" type="curve"/>
      <point x="87" y="276"/>
      <point x="138" y="261"/>
      <point x="196" y="261" type="curve"/>
      <point x="337" y="257"/>
      <point x="453" y="283"/>
      <point x="450" y="403" type="curve"/>
      <point x="450" y="534"/>
      <point x="306" y="522"/>
      <point x="155" y="524" type="curve"/>
      <point x="155" y="448"/>
      <point x="155" y="524"/>
      <point x="155" y="448" type="curve"/>
      <point x="233" y="447"/>
      <point x="311" y="448"/>
      <point x="311" y="404" type="curve"/>
      <point x="311" y="362"/>
      <point x="264" y="354"/>
      <point x="210" y="355" type="curve"/>
      <point x="173" y="355"/>
      <point x="137" y="362"/>
      <point x="87" y="379" type="curve"/>
      <point x="34" y="300"/>
      <point x="87" y="379"/>
    </contour>
    <contour>
      <point x="236" y="715" type="move" name="_top"/>
    </contour>
    <contour>
      <point x="222" y="260" type="move" name="_bottom"/>
    </contour>
  </outline>
</glyph>
<glyph name="paragraph" format="1">
  <advance width="936"/>
  <unicode hex="00B6"/>
  <outline>
    <contour>
      <point x="551" y="618" type="curve"/>
      <point x="740" y="618"/>
      <point x="551" y="618"/>
      <point x="740" y="618" type="curve"/>
      <point x="740" y="722"/>
      <point x="740" y="618"/>
      <point x="740" y="722" type="curve"/>
      <point x="677" y="722"/>
      <point x="614" y="722"/>
      <point x="551" y="722" type="curve"/>
      <point x="551" y="618"/>
      <point x="551" y="722"/>
    </contour>
    <contour>
      <point x="527" y="386" type="curve"/>
      <point x="465" y="363"/>
      <point x="416" y="351"/>
      <point x="350" y="351" type="curve"/>
      <point x="251" y="351"/>
      <point x="169" y="386"/>
      <point x="169" y="475" type="curve"/>
      <point x="169" y="585"/>
      <point x="274" y="618"/>
      <point x="398" y="618" type="curve"/>
      <point x="448" y="618"/>
      <point x="498" y="618"/>
      <point x="547" y="618" type="curve"/>
      <point x="547" y="722"/>
      <point x="547" y="618"/>
      <point x="547" y="722" type="curve"/>
      <point x="491" y="722"/>
      <point x="436" y="722"/>
      <point x="379" y="722" type="curve"/>
      <point x="186" y="722"/>
      <point x="28" y="653"/>
      <point x="28" y="480" type="curve"/>
      <point x="28" y="315"/>
      <point x="178" y="251"/>
      <point x="362" y="248" type="curve"/>
      <point x="438" y="248"/>
      <point x="501" y="267"/>
      <point x="571" y="293" type="curve"/>
      <point x="527" y="386"/>
      <point x="571" y="293"/>
    </contour>
    <contour>
      <point x="623" y="0" type="curve"/>
      <point x="623" y="241"/>
      <point x="623" y="481"/>
      <point x="623" y="722" type="curve"/>
      <point x="482" y="722"/>
      <point x="623" y="722"/>
      <point x="482" y="722" type="curve"/>
      <point x="482" y="481"/>
      <point x="482" y="241"/>
      <point x="482" y="0" type="curve"/>
      <point x="623" y="0"/>
      <point x="482" y="0"/>
    </contour>
    <contour>
      <point x="872" y="0" type="curve"/>
      <point x="872" y="241"/>
      <point x="872" y="481"/>
      <point x="872" y="722" type="curve"/>
      <point x="732" y="722"/>
      <point x="872" y="722"/>
      <point x="732" y="722" type="curve"/>
      <point x="732" y="481"/>
      <point x="732" y="241"/>
      <point x="732" y="0" type="curve"/>
      <point x="872" y="0"/>
      <point x="732" y="0"/>
    </contour>
  </outline>
</glyph>
<glyph name="periodcentered" format="1">
  <advance width="250"/>
  <unicode hex="00B7"/>
  <outline>
    <contour>
      <point x="208" y="440" type="curve"/>
      <point x="208" y="486"/>
      <point x="172" y="508"/>
      <point x="124" y="508" type="curve"/>
      <point x="75" y="508"/>
      <point x="42" y="484"/>
      <point x="42" y="440" type="curve"/>
      <point x="205" y="440"/>
      <point x="45" y="440"/>
      <point x="208" y="440" type="curve"/>
      <point x="208" y="393"/>
      <point x="172" y="373"/>
      <point x="123" y="373" type="curve"/>
      <point x="75" y="373"/>
      <point x="42" y="395"/>
      <point x="42" y="440" type="curve"/>
      <point x="205" y="440"/>
      <point x="45" y="440"/>
    </contour>
  </outline>
</glyph>
<glyph name="cedilla" format="1">
  <advance width="369"/>
  <unicode hex="00B8"/>
  <outline>
    <contour>
      <point x="168" y="160" type="curve"/>
      <point x="152" y="138"/>
      <point x="80" y="42"/>
      <point x="63" y="21" type="curve"/>
      <point x="159" y="-63"/>
      <point x="63" y="21"/>
      <point x="159" y="-63" type="curve"/>
      <point x="180" y="-36"/>
      <point x="257" y="62"/>
      <point x="277" y="88" type="curve"/>
      <point x="168" y="160"/>
      <point x="277" y="88"/>
    </contour>
    <contour>
      <point x="159" y="-63" type="curve"/>
      <point x="166" y="-59"/>
      <point x="171" y="-57"/>
      <point x="179" y="-57" type="curve"/>
      <point x="191" y="-57"/>
      <point x="201" y="-61"/>
      <point x="201" y="-72" type="curve"/>
      <point x="201" y="-88"/>
      <point x="184" y="-93"/>
      <point x="166" y="-93" type="curve"/>
      <point x="139" y="-93"/>
      <point x="116" y="-85"/>
      <point x="80" y="-71" type="curve"/>
      <point x="41" y="-151"/>
      <point x="80" y="-71"/>
      <point x="41" y="-151" type="curve"/>
      <point x="82" y="-168"/>
      <point x="115" y="-178"/>
      <point x="160" y="-178" type="curve"/>
      <point x="255" y="-178"/>
      <point x="330" y="-152"/>
      <point x="330" y="-68" type="curve"/>
      <point x="330" y="8"/>
      <point x="268" y="44"/>
      <point x="186" y="44" type="curve"/>
      <point x="140" y="44"/>
      <point x="108" y="35"/>
      <point x="64" y="20" type="curve"/>
      <point x="159" y="-63"/>
      <point x="64" y="20"/>
    </contour>
    <contour>
      <point x="253" y="88" type="move" name="_bottom"/>
    </contour>
  </outline>
</glyph>
<glyph name="onesuperior" format="1">
  <advance width="348"/>
  <unicode hex="00B9"/>
  <outline>
    <contour>
      <point x="70" y="524" type="line"/>
      <point x="289" y="705" type="line"/>
      <point x="150" y="706" type="line"/>
      <point x="10" y="598" type="line"/>
    </contour>
    <contour>
      <point x="289" y="268" type="curve"/>
      <point x="289" y="706" type="line"/>
      <point x="150" y="706" type="line"/>
      <point x="150" y="268" type="line"/>
      <point x="255" y="268"/>
      <point x="202" y="268"/>
    </contour>
    <contour>
      <point x="210" y="705" type="move" name="_top"/>
    </contour>
    <contour>
      <point x="223" y="268" type="move" name="_bottom"/>
    </contour>
  </outline>
</glyph>
<glyph name="ordmasculine" format="1">
  <advance width="517"/>
  <unicode hex="00BA"/>
  <outline>
    <contour>
      <point x="130" y="605" type="curve"/>
      <point x="130" y="675"/>
      <point x="179" y="715"/>
      <point x="255" y="715" type="curve"/>
      <point x="335" y="715"/>
      <point x="387" y="676"/>
      <point x="387" y="604" type="curve"/>
      <point x="387" y="529"/>
      <point x="336" y="492"/>
      <point x="262" y="492" type="curve"/>
      <point x="184" y="492"/>
      <point x="130" y="529"/>
      <point x="130" y="605" type="curve"/>
      <point x="43" y="605"/>
      <point x="121" y="605"/>
      <point x="34" y="605" type="curve"/>
      <point x="34" y="479"/>
      <point x="127" y="420"/>
      <point x="258" y="420" type="curve"/>
      <point x="390" y="420"/>
      <point x="484" y="478"/>
      <point x="484" y="604" type="curve"/>
      <point x="484" y="724"/>
      <point x="393" y="787"/>
      <point x="259" y="787" type="curve"/>
      <point x="125" y="787"/>
      <point x="34" y="724"/>
      <point x="34" y="605" type="curve"/>
      <point x="121" y="605"/>
      <point x="43" y="605"/>
    </contour>
  </outline>
</glyph>
<glyph name="guillemotright" format="1">
  <advance width="652"/>
  <unicode hex="00BB"/>
  <outline>
    <contour>
      <point x="351" y="471" type="curve"/>
      <point x="413" y="442"/>
      <point x="554" y="374"/>
      <point x="616" y="344" type="curve"/>
      <point x="616" y="230"/>
      <point x="616" y="342"/>
      <point x="616" y="228" type="curve"/>
      <point x="554" y="258"/>
      <point x="413" y="327"/>
      <point x="351" y="357" type="curve"/>
      <point x="351" y="471"/>
      <point x="351" y="358"/>
    </contour>
    <contour>
      <point x="351" y="218" type="curve"/>
      <point x="413" y="247"/>
      <point x="554" y="314"/>
      <point x="616" y="344" type="curve"/>
      <point x="616" y="230"/>
      <point x="616" y="342"/>
      <point x="616" y="228" type="curve"/>
      <point x="554" y="198"/>
      <point x="413" y="133"/>
      <point x="351" y="102" type="curve"/>
      <point x="351" y="217"/>
      <point x="351" y="103"/>
    </contour>
    <contour>
      <point x="57" y="471" type="curve"/>
      <point x="119" y="442"/>
      <point x="260" y="374"/>
      <point x="321" y="344" type="curve"/>
      <point x="321" y="230"/>
      <point x="321" y="342"/>
      <point x="321" y="228" type="curve"/>
      <point x="260" y="258"/>
      <point x="119" y="327"/>
      <point x="57" y="357" type="curve"/>
      <point x="57" y="471"/>
      <point x="57" y="358"/>
    </contour>
    <contour>
      <point x="57" y="218" type="curve"/>
      <point x="119" y="247"/>
      <point x="260" y="314"/>
      <point x="321" y="344" type="curve"/>
      <point x="321" y="230"/>
      <point x="321" y="342"/>
      <point x="321" y="228" type="curve"/>
      <point x="260" y="198"/>
      <point x="119" y="133"/>
      <point x="57" y="102" type="curve"/>
      <point x="57" y="217"/>
      <point x="57" y="103"/>
    </contour>
  </outline>
</glyph>
<glyph name="onequarter" format="1">
  <advance width="1145"/>
  <unicode hex="00BC"/>
  <outline>
    <contour>
      <point x="375" y="-40" type="line"/>
      <point x="908" y="710" type="line"/>
      <point x="779" y="710" type="line"/>
      <point x="246" y="-40" type="line"/>
    </contour>
    <contour>
      <point x="83" y="530" type="line"/>
      <point x="302" y="711" type="line"/>
      <point x="163" y="712" type="line"/>
      <point x="23" y="604" type="line"/>
    </contour>
    <contour>
      <point x="302" y="274" type="curve"/>
      <point x="302" y="712" type="line"/>
      <point x="163" y="712" type="line"/>
      <point x="163" y="274" type="line"/>
      <point x="269" y="274"/>
      <point x="215" y="274"/>
    </contour>
    <contour>
      <point x="1113" y="188" type="line"/>
      <point x="651" y="188" type="line"/>
      <point x="651" y="91" type="line"/>
      <point x="1113" y="91" type="line"/>
    </contour>
    <contour>
      <point x="681" y="104" type="line"/>
      <point x="991" y="399" type="line"/>
      <point x="882" y="414" type="line"/>
      <point x="651" y="188" type="line"/>
    </contour>
    <contour>
      <point x="1021" y="-44" type="line"/>
      <point x="1021" y="414" type="line"/>
      <point x="882" y="414" type="line"/>
      <point x="882" y="-44" type="line"/>
    </contour>
  </outline>
</glyph>
<glyph name="onehalf" format="1">
  <advance width="1208"/>
  <unicode hex="00BD"/>
  <outline>
    <contour>
      <point x="379" y="-40" type="line"/>
      <point x="912" y="710" type="line"/>
      <point x="783" y="710" type="line"/>
      <point x="250" y="-40" type="line"/>
    </contour>
    <contour>
      <point x="83" y="530" type="line"/>
      <point x="302" y="711" type="line"/>
      <point x="163" y="712" type="line"/>
      <point x="23" y="604" type="line"/>
    </contour>
    <contour>
      <point x="302" y="274" type="curve"/>
      <point x="302" y="712" type="line"/>
      <point x="163" y="712" type="line"/>
      <point x="163" y="274" type="line"/>
      <point x="269" y="274"/>
      <point x="215" y="274"/>
    </contour>
    <contour>
      <point x="704" y="-45" type="curve"/>
      <point x="899" y="-45"/>
      <point x="1037" y="-45"/>
      <point x="1173" y="-45" type="curve"/>
      <point x="1173" y="11"/>
      <point x="1173" y="13"/>
      <point x="1173" y="57" type="curve"/>
      <point x="1019" y="57"/>
      <point x="859" y="57"/>
      <point x="704" y="57" type="curve"/>
      <point x="704" y="-45"/>
      <point x="704" y="57"/>
    </contour>
    <contour>
      <point x="805" y="250" type="curve"/>
      <point x="842" y="286"/>
      <point x="874" y="301"/>
      <point x="919" y="301" type="curve"/>
      <point x="965" y="301"/>
      <point x="1003" y="289"/>
      <point x="1003" y="256" type="curve"/>
      <point x="1003" y="219"/>
      <point x="971" y="204"/>
      <point x="939" y="183" type="curve"/>
      <point x="861" y="140"/>
      <point x="783" y="99"/>
      <point x="704" y="57" type="curve"/>
      <point x="706" y="-42"/>
      <point x="708" y="57"/>
      <point x="710" y="-42" type="curve"/>
      <point x="833" y="20"/>
      <point x="927" y="59"/>
      <point x="1010" y="105" type="curve"/>
      <point x="1081" y="151"/>
      <point x="1142" y="182"/>
      <point x="1142" y="259" type="curve"/>
      <point x="1142" y="364"/>
      <point x="1050" y="403"/>
      <point x="935" y="403" type="curve"/>
      <point x="839" y="403"/>
      <point x="764" y="377"/>
      <point x="713" y="311" type="curve"/>
      <point x="805" y="250"/>
      <point x="713" y="311"/>
    </contour>
  </outline>
</glyph>
<glyph name="threequarters" format="1">
  <advance width="1140"/>
  <unicode hex="00BE"/>
  <outline>
    <contour>
      <point x="391" y="-40" type="line"/>
      <point x="923" y="710" type="line"/>
      <point x="794" y="710" type="line"/>
      <point x="262" y="-40" type="line"/>
    </contour>
    <contour>
      <point x="94" y="575" type="curve"/>
      <point x="132" y="603"/>
      <point x="174" y="612"/>
      <point x="205" y="612" type="curve"/>
      <point x="253" y="612"/>
      <point x="290" y="606"/>
      <point x="290" y="573" type="curve"/>
      <point x="290" y="532"/>
      <point x="217" y="531"/>
      <point x="154" y="530" type="curve"/>
      <point x="154" y="446"/>
      <point x="154" y="530"/>
      <point x="154" y="446" type="curve"/>
      <point x="298" y="447"/>
      <point x="429" y="458"/>
      <point x="429" y="579" type="curve"/>
      <point x="429" y="682"/>
      <point x="336" y="710"/>
      <point x="220" y="710" type="curve"/>
      <point x="150" y="710"/>
      <point x="86" y="687"/>
      <point x="35" y="648" type="curve"/>
      <point x="94" y="575"/>
      <point x="35" y="648"/>
    </contour>
    <contour>
      <point x="32" y="296" type="curve"/>
      <point x="86" y="272"/>
      <point x="137" y="257"/>
      <point x="195" y="257" type="curve"/>
      <point x="336" y="253"/>
      <point x="452" y="279"/>
      <point x="448" y="399" type="curve"/>
      <point x="448" y="530"/>
      <point x="304" y="518"/>
      <point x="154" y="520" type="curve"/>
      <point x="154" y="444"/>
      <point x="154" y="520"/>
      <point x="154" y="444" type="curve"/>
      <point x="232" y="443"/>
      <point x="310" y="444"/>
      <point x="310" y="400" type="curve"/>
      <point x="310" y="358"/>
      <point x="262" y="350"/>
      <point x="208" y="351" type="curve"/>
      <point x="172" y="351"/>
      <point x="136" y="358"/>
      <point x="86" y="375" type="curve"/>
      <point x="32" y="296"/>
      <point x="86" y="375"/>
    </contour>
    <contour>
      <point x="1114" y="188" type="line"/>
      <point x="652" y="188" type="line"/>
      <point x="652" y="91" type="line"/>
      <point x="1114" y="91" type="line"/>
    </contour>
    <contour>
      <point x="681" y="104" type="line"/>
      <point x="992" y="399" type="line"/>
      <point x="883" y="414" type="line"/>
      <point x="652" y="188" type="line"/>
    </contour>
    <contour>
      <point x="1022" y="-44" type="line"/>
      <point x="1022" y="414" type="line"/>
      <point x="883" y="414" type="line"/>
      <point x="883" y="-44" type="line"/>
    </contour>
  </outline>
</glyph>
<glyph name="questiondown" format="1">
  <advance width="619"/>
  <unicode hex="00BF"/>
  <outline>
    <contour>
      <point x="408" y="327" type="curve"/>
      <point x="408" y="364"/>
      <point x="408" y="446"/>
      <point x="408" y="483" type="curve"/>
      <point x="268" y="483"/>
      <point x="408" y="483"/>
      <point x="268" y="483" type="curve"/>
      <point x="268" y="446"/>
      <point x="268" y="364"/>
      <point x="268" y="327" type="curve"/>
      <point x="408" y="327"/>
      <point x="268" y="327"/>
    </contour>
    <contour>
      <point x="509" y="134" type="line"/>
      <point x="469" y="96"/>
      <point x="403" y="62"/>
      <point x="330" y="62" type="curve"/>
      <point x="238" y="62"/>
      <point x="165" y="98"/>
      <point x="165" y="185" type="curve"/>
      <point x="165" y="283"/>
      <point x="264" y="327"/>
      <point x="392" y="327" type="curve"/>
      <point x="392" y="365"/>
      <point x="392" y="393"/>
      <point x="392" y="431" type="curve"/>
      <point x="188" y="431"/>
      <point x="30" y="351"/>
      <point x="30" y="185" type="curve"/>
      <point x="30" y="31"/>
      <point x="158" y="-46"/>
      <point x="323" y="-46" type="curve"/>
      <point x="428" y="-46"/>
      <point x="509" y="-13"/>
      <point x="581" y="54" type="curve"/>
    </contour>
    <contour>
      <point x="254" y="683" type="curve"/>
      <point x="254" y="637"/>
      <point x="289" y="616"/>
      <point x="337" y="616" type="curve"/>
      <point x="385" y="616"/>
      <point x="418" y="640"/>
      <point x="418" y="683" type="curve"/>
      <point x="254" y="683"/>
      <point x="418" y="683"/>
      <point x="254" y="683" type="curve"/>
      <point x="254" y="730"/>
      <point x="289" y="750"/>
      <point x="338" y="750" type="curve"/>
      <point x="386" y="750"/>
      <point x="418" y="728"/>
      <point x="418" y="683" type="curve"/>
      <point x="254" y="683"/>
      <point x="418" y="683"/>
    </contour>
  </outline>
</glyph>
<glyph name="Atilde" format="1">
  <advance width="870"/>
  <unicode hex="00C3"/>
  <outline>
    <contour>
      <point x="641" y="310" type="curve"/>
      <point x="508" y="310"/>
      <point x="376" y="310"/>
      <point x="243" y="310" type="curve"/>
      <point x="185" y="200"/>
      <point x="243" y="310"/>
      <point x="185" y="200" type="curve"/>
      <point x="352" y="200"/>
      <point x="519" y="200"/>
      <point x="685" y="200" type="curve"/>
      <point x="641" y="310"/>
      <point x="685" y="200"/>
    </contour>
    <contour>
      <point x="859" y="0" type="curve"/>
      <point x="747" y="242"/>
      <point x="627" y="480"/>
      <point x="514" y="722" type="curve"/>
      <point x="386" y="722"/>
      <point x="514" y="722"/>
      <point x="386" y="722" type="curve"/>
      <point x="496" y="483"/>
      <point x="601" y="239"/>
      <point x="712" y="0" type="curve"/>
      <point x="859" y="0"/>
      <point x="712" y="0"/>
    </contour>
    <contour>
      <point x="149" y="0" type="curve"/>
      <point x="273" y="239"/>
      <point x="388" y="483"/>
      <point x="512" y="722" type="curve"/>
      <point x="384" y="722"/>
      <point x="512" y="722"/>
      <point x="384" y="722" type="curve"/>
      <point x="257" y="480"/>
      <point x="122" y="242"/>
      <point x="-4" y="0" type="curve"/>
      <point x="149" y="0"/>
      <point x="-4" y="0"/>
    </contour>
    <contour>
      <point x="621" y="959" type="curve"/>
      <point x="609" y="920"/>
      <point x="588" y="885"/>
      <point x="556" y="885" type="curve"/>
      <point x="519" y="885"/>
      <point x="497" y="896"/>
      <point x="468" y="918" type="curve"/>
      <point x="425" y="952"/>
      <point x="391" y="966"/>
      <point x="337" y="966" type="curve"/>
      <point x="251" y="966"/>
      <point x="199" y="918"/>
      <point x="164" y="830" type="curve"/>
      <point x="269" y="780"/>
      <point x="166" y="829"/>
      <point x="270" y="780" type="curve"/>
      <point x="288" y="827"/>
      <point x="310" y="855"/>
      <point x="343" y="855" type="curve"/>
      <point x="377" y="855"/>
      <point x="397" y="841"/>
      <point x="423" y="821" type="curve"/>
      <point x="471" y="785"/>
      <point x="504" y="774"/>
      <point x="560" y="774" type="curve"/>
      <point x="650" y="774"/>
      <point x="700" y="826"/>
      <point x="731" y="911" type="curve"/>
      <point x="622" y="958"/>
      <point x="731" y="910"/>
    </contour>
  </outline>
</glyph>
<glyph name="Aring" format="1">
  <advance width="870"/>
  <unicode hex="00C5"/>
  <outline>
    <contour>
      <point x="641" y="310" type="curve"/>
      <point x="508" y="310"/>
      <point x="376" y="310"/>
      <point x="243" y="310" type="curve"/>
      <point x="185" y="200"/>
      <point x="243" y="310"/>
      <point x="185" y="200" type="curve"/>
      <point x="352" y="200"/>
      <point x="519" y="200"/>
      <point x="685" y="200" type="curve"/>
      <point x="641" y="310"/>
      <point x="685" y="200"/>
    </contour>
    <contour>
      <point x="859" y="0" type="curve"/>
      <point x="747" y="242"/>
      <point x="627" y="480"/>
      <point x="514" y="722" type="curve"/>
      <point x="386" y="722"/>
      <point x="514" y="722"/>
      <point x="386" y="722" type="curve"/>
      <point x="496" y="483"/>
      <point x="601" y="239"/>
      <point x="712" y="0" type="curve"/>
      <point x="859" y="0"/>
      <point x="712" y="0"/>
    </contour>
    <contour>
      <point x="149" y="0" type="curve"/>
      <point x="273" y="239"/>
      <point x="388" y="483"/>
      <point x="512" y="722" type="curve"/>
      <point x="384" y="722"/>
      <point x="512" y="722"/>
      <point x="384" y="722" type="curve"/>
      <point x="257" y="480"/>
      <point x="122" y="242"/>
      <point x="-4" y="0" type="curve"/>
      <point x="149" y="0"/>
      <point x="-4" y="0"/>
    </contour>
    <contour>
      <point x="255" y="928" type="curve"/>
      <point x="255" y="827"/>
      <point x="339" y="783"/>
      <point x="449" y="783" type="curve"/>
      <point x="562" y="783"/>
      <point x="647" y="826"/>
      <point x="647" y="928" type="curve"/>
      <point x="647" y="1031"/>
      <point x="561" y="1073"/>
      <point x="447" y="1073" type="curve"/>
      <point x="337" y="1073"/>
      <point x="255" y="1029"/>
      <point x="255" y="928" type="curve"/>
      <point x="373" y="928"/>
      <point x="254" y="928"/>
      <point x="372" y="928" type="curve"/>
      <point x="372" y="970"/>
      <point x="405" y="986"/>
      <point x="447" y="986" type="curve"/>
      <point x="493" y="986"/>
      <point x="529" y="975"/>
      <point x="529" y="928" type="curve"/>
      <point x="529" y="884"/>
      <point x="494" y="870"/>
      <point x="449" y="870" type="curve"/>
      <point x="406" y="870"/>
      <point x="372" y="885"/>
      <point x="372" y="928" type="curve"/>
      <point x="254" y="928"/>
      <point x="373" y="928"/>
    </contour>
  </outline>
</glyph>
<glyph name="AE" format="1">
  <advance width="1161"/>
  <unicode hex="00C6"/>
  <outline>
    <contour>
      <point x="552" y="288" type="curve"/>
      <point x="420" y="288"/>
      <point x="367" y="288"/>
      <point x="235" y="288" type="curve"/>
      <point x="177" y="179"/>
      <point x="235" y="288"/>
      <point x="177" y="179" type="curve"/>
      <point x="344" y="179"/>
      <point x="430" y="179"/>
      <point x="597" y="179" type="curve"/>
      <point x="552" y="288"/>
      <point x="597" y="179"/>
    </contour>
    <contour>
      <point x="141" y="0" type="curve"/>
      <point x="659" y="722" type="line"/>
      <point x="531" y="722"/>
      <point x="658" y="722"/>
      <point x="530" y="722" type="curve"/>
      <point x="-13" y="0" type="line"/>
      <point x="140" y="0"/>
      <point x="-13" y="0"/>
    </contour>
    <contour>
      <point x="607" y="321" type="curve"/>
      <point x="744" y="321"/>
      <point x="881" y="321"/>
      <point x="1017" y="321" type="curve"/>
      <point x="1017" y="425"/>
      <point x="1017" y="321"/>
      <point x="1017" y="425" type="curve"/>
      <point x="881" y="425"/>
      <point x="744" y="425"/>
      <point x="607" y="425" type="curve"/>
      <point x="607" y="321"/>
      <point x="607" y="425"/>
    </contour>
    <contour>
      <point x="588" y="618" type="curve"/>
      <point x="757" y="618"/>
      <point x="927" y="618"/>
      <point x="1096" y="618" type="curve"/>
      <point x="1096" y="722"/>
      <point x="1096" y="618"/>
      <point x="1096" y="722" type="curve"/>
      <point x="927" y="722"/>
      <point x="757" y="722"/>
      <point x="588" y="722" type="curve"/>
      <point x="588" y="618"/>
      <point x="588" y="722"/>
    </contour>
    <contour>
      <point x="672" y="0" type="curve"/>
      <point x="672" y="722" type="line"/>
      <point x="531" y="722"/>
      <point x="672" y="722"/>
      <point x="531" y="722" type="curve"/>
      <point x="531" y="481"/>
      <point x="531" y="241"/>
      <point x="531" y="0" type="curve"/>
      <point x="672" y="0"/>
      <point x="531" y="0"/>
    </contour>
    <contour>
      <point x="588" y="0" type="curve"/>
      <point x="772" y="0"/>
      <point x="955" y="0"/>
      <point x="1138" y="0" type="curve"/>
      <point x="1138" y="104"/>
      <point x="1138" y="0"/>
      <point x="1138" y="104" type="curve"/>
      <point x="955" y="104"/>
      <point x="772" y="104"/>
      <point x="588" y="104" type="curve"/>
      <point x="588" y="0"/>
      <point x="588" y="104"/>
    </contour>
  </outline>
</glyph>
<glyph name="Ccedilla" format="1">
  <advance width="825"/>
  <unicode hex="00C7"/>
  <outline>
    <contour>
      <point x="811" y="654" type="curve"/>
      <point x="716" y="696"/>
      <point x="614" y="727"/>
      <point x="501" y="727" type="curve"/>
      <point x="230" y="727"/>
      <point x="41" y="602"/>
      <point x="41" y="344" type="curve"/>
      <point x="41" y="105"/>
      <point x="216" y="-5"/>
      <point x="470" y="-5" type="curve"/>
      <point x="618" y="-5"/>
      <point x="709" y="23"/>
      <point x="816" y="89" type="curve"/>
      <point x="760" y="179"/>
      <point x="815" y="89"/>
      <point x="759" y="179" type="curve"/>
      <point x="658" y="123"/>
      <point x="583" y="105"/>
      <point x="476" y="105" type="curve"/>
      <point x="301" y="105"/>
      <point x="182" y="184"/>
      <point x="182" y="349" type="curve"/>
      <point x="182" y="528"/>
      <point x="308" y="619"/>
      <point x="495" y="619" type="curve"/>
      <point x="582" y="619"/>
      <point x="661" y="604"/>
      <point x="755" y="565" type="curve"/>
      <point x="811" y="654"/>
      <point x="755" y="565"/>
    </contour>
    <contour>
      <point x="419" y="77" type="curve"/>
      <point x="402" y="55"/>
      <point x="331" y="-40"/>
      <point x="314" y="-62" type="curve"/>
      <point x="410" y="-145"/>
      <point x="314" y="-62"/>
      <point x="410" y="-145" type="curve"/>
      <point x="430" y="-119"/>
      <point x="508" y="-21"/>
      <point x="528" y="5" type="curve"/>
      <point x="419" y="77"/>
      <point x="528" y="5"/>
    </contour>
    <contour>
      <point x="410" y="-145" type="curve"/>
      <point x="416" y="-141"/>
      <point x="422" y="-139"/>
      <point x="429" y="-139" type="curve"/>
      <point x="442" y="-139"/>
      <point x="451" y="-143"/>
      <point x="451" y="-155" type="curve"/>
      <point x="451" y="-171"/>
      <point x="435" y="-175"/>
      <point x="416" y="-175" type="curve"/>
      <point x="389" y="-175"/>
      <point x="366" y="-168"/>
      <point x="330" y="-154" type="curve"/>
      <point x="291" y="-233"/>
      <point x="330" y="-154"/>
      <point x="291" y="-233" type="curve"/>
      <point x="332" y="-250"/>
      <point x="365" y="-260"/>
      <point x="410" y="-260" type="curve"/>
      <point x="505" y="-260"/>
      <point x="581" y="-235"/>
      <point x="581" y="-151" type="curve"/>
      <point x="581" y="-75"/>
      <point x="519" y="-39"/>
      <point x="437" y="-39" type="curve"/>
      <point x="391" y="-39"/>
      <point x="358" y="-47"/>
      <point x="314" y="-62" type="curve"/>
      <point x="410" y="-145"/>
      <point x="314" y="-62"/>
    </contour>
  </outline>
</glyph>
<glyph name="Egrave" format="1">
  <advance width="705"/>
  <unicode hex="00C8"/>
  <outline>
    <contour>
      <point x="151" y="321" type="curve"/>
      <point x="288" y="321"/>
      <point x="424" y="321"/>
      <point x="561" y="321" type="curve"/>
      <point x="561" y="425"/>
      <point x="561" y="321"/>
      <point x="561" y="425" type="curve"/>
      <point x="424" y="425"/>
      <point x="288" y="425"/>
      <point x="151" y="425" type="curve"/>
      <point x="151" y="321"/>
      <point x="151" y="425"/>
    </contour>
    <contour>
      <point x="132" y="618" type="curve"/>
      <point x="301" y="618"/>
      <point x="470" y="618"/>
      <point x="640" y="618" type="curve"/>
      <point x="640" y="722"/>
      <point x="640" y="618"/>
      <point x="640" y="722" type="curve"/>
      <point x="470" y="722"/>
      <point x="301" y="722"/>
      <point x="132" y="722" type="curve"/>
      <point x="132" y="618"/>
      <point x="132" y="722"/>
    </contour>
    <contour>
      <point x="216" y="0" type="curve"/>
      <point x="216" y="722" type="line"/>
      <point x="75" y="722"/>
      <point x="216" y="722"/>
      <point x="75" y="722" type="curve"/>
      <point x="75" y="481"/>
      <point x="75" y="241"/>
      <point x="75" y="0" type="curve"/>
      <point x="216" y="0"/>
      <point x="75" y="0"/>
    </contour>
    <contour>
      <point x="132" y="0" type="curve"/>
      <point x="316" y="0"/>
      <point x="498" y="0"/>
      <point x="682" y="0" type="curve"/>
      <point x="682" y="104"/>
      <point x="682" y="0"/>
      <point x="682" y="104" type="curve"/>
      <point x="498" y="104"/>
      <point x="316" y="104"/>
      <point x="132" y="104" type="curve"/>
      <point x="132" y="0"/>
      <point x="132" y="104"/>
    </contour>
    <contour>
      <point x="407" y="785" type="line"/>
      <point x="261" y="951" type="line"/>
      <point x="77" y="951" type="line"/>
      <point x="264" y="785" type="line"/>
    </contour>
  </outline>
</glyph>
<glyph name="Eacute" format="1">
  <advance width="703"/>
  <unicode hex="00C9"/>
  <outline>
    <contour>
      <point x="149" y="321" type="curve"/>
      <point x="285" y="321"/>
      <point x="422" y="321"/>
      <point x="559" y="321" type="curve"/>
      <point x="559" y="425"/>
      <point x="559" y="321"/>
      <point x="559" y="425" type="curve"/>
      <point x="422" y="425"/>
      <point x="285" y="425"/>
      <point x="149" y="425" type="curve"/>
      <point x="149" y="321"/>
      <point x="149" y="425"/>
    </contour>
    <contour>
      <point x="130" y="618" type="curve"/>
      <point x="299" y="618"/>
      <point x="468" y="618"/>
      <point x="638" y="618" type="curve"/>
      <point x="638" y="722"/>
      <point x="638" y="618"/>
      <point x="638" y="722" type="curve"/>
      <point x="468" y="722"/>
      <point x="299" y="722"/>
      <point x="130" y="722" type="curve"/>
      <point x="130" y="618"/>
      <point x="130" y="722"/>
    </contour>
    <contour>
      <point x="214" y="0" type="curve"/>
      <point x="214" y="722" type="line"/>
      <point x="72" y="722"/>
      <point x="214" y="722"/>
      <point x="72" y="722" type="curve"/>
      <point x="72" y="481"/>
      <point x="72" y="241"/>
      <point x="72" y="0" type="curve"/>
      <point x="214" y="0"/>
      <point x="72" y="0"/>
    </contour>
    <contour>
      <point x="130" y="0" type="curve"/>
      <point x="313" y="0"/>
      <point x="496" y="0"/>
      <point x="680" y="0" type="curve"/>
      <point x="680" y="104"/>
      <point x="680" y="0"/>
      <point x="680" y="104" type="curve"/>
      <point x="496" y="104"/>
      <point x="313" y="104"/>
      <point x="130" y="104" type="curve"/>
      <point x="130" y="0"/>
      <point x="130" y="104"/>
    </contour>
    <contour>
      <point x="381" y="785" type="line"/>
      <point x="568" y="951" type="line"/>
      <point x="384" y="951" type="line"/>
      <point x="241" y="785" type="line"/>
    </contour>
  </outline>
</glyph>
<glyph name="Ecircumflex" format="1">
  <advance width="669"/>
  <unicode hex="00CA"/>
  <outline>
    <contour>
      <point x="127" y="321" type="curve"/>
      <point x="263" y="321"/>
      <point x="400" y="321"/>
      <point x="536" y="321" type="curve"/>
      <point x="536" y="425"/>
      <point x="536" y="321"/>
      <point x="536" y="425" type="curve"/>
      <point x="400" y="425"/>
      <point x="263" y="425"/>
      <point x="127" y="425" type="curve"/>
      <point x="127" y="321"/>
      <point x="127" y="425"/>
    </contour>
    <contour>
      <point x="107" y="618" type="curve"/>
      <point x="277" y="618"/>
      <point x="446" y="618"/>
      <point x="615" y="618" type="curve"/>
      <point x="615" y="722"/>
      <point x="615" y="618"/>
      <point x="615" y="722" type="curve"/>
      <point x="446" y="722"/>
      <point x="277" y="722"/>
      <point x="107" y="722" type="curve"/>
      <point x="107" y="618"/>
      <point x="107" y="722"/>
    </contour>
    <contour>
      <point x="191" y="0" type="curve"/>
      <point x="191" y="722" type="line"/>
      <point x="50" y="722"/>
      <point x="191" y="722"/>
      <point x="50" y="722" type="curve"/>
      <point x="50" y="481"/>
      <point x="50" y="241"/>
      <point x="50" y="0" type="curve"/>
      <point x="191" y="0"/>
      <point x="50" y="0"/>
    </contour>
    <contour>
      <point x="107" y="0" type="curve"/>
      <point x="291" y="0"/>
      <point x="474" y="0"/>
      <point x="657" y="0" type="curve"/>
      <point x="657" y="104"/>
      <point x="657" y="0"/>
      <point x="657" y="104" type="curve"/>
      <point x="474" y="104"/>
      <point x="291" y="104"/>
      <point x="107" y="104" type="curve"/>
      <point x="107" y="0"/>
      <point x="107" y="104"/>
    </contour>
    <contour>
      <point x="183" y="787" type="line"/>
      <point x="370" y="953" type="line"/>
      <point x="186" y="953" type="line"/>
      <point x="43" y="787" type="line"/>
    </contour>
    <contour>
      <point x="560" y="787" type="line"/>
      <point x="414" y="953" type="line"/>
      <point x="231" y="953" type="line"/>
      <point x="417" y="787" type="line"/>
    </contour>
  </outline>
</glyph>
<glyph name="Edieresis" format="1">
  <advance width="701"/>
  <unicode hex="00CB"/>
  <outline>
    <contour>
      <point x="147" y="321" type="curve"/>
      <point x="283" y="321"/>
      <point x="420" y="321"/>
      <point x="557" y="321" type="curve"/>
      <point x="557" y="425"/>
      <point x="557" y="321"/>
      <point x="557" y="425" type="curve"/>
      <point x="420" y="425"/>
      <point x="283" y="425"/>
      <point x="147" y="425" type="curve"/>
      <point x="147" y="321"/>
      <point x="147" y="425"/>
    </contour>
    <contour>
      <point x="128" y="618" type="curve"/>
      <point x="297" y="618"/>
      <point x="466" y="618"/>
      <point x="636" y="618" type="curve"/>
      <point x="636" y="722"/>
      <point x="636" y="618"/>
      <point x="636" y="722" type="curve"/>
      <point x="466" y="722"/>
      <point x="297" y="722"/>
      <point x="128" y="722" type="curve"/>
      <point x="128" y="618"/>
      <point x="128" y="722"/>
    </contour>
    <contour>
      <point x="212" y="0" type="curve"/>
      <point x="212" y="722" type="line"/>
      <point x="70" y="722"/>
      <point x="212" y="722"/>
      <point x="70" y="722" type="curve"/>
      <point x="70" y="481"/>
      <point x="70" y="241"/>
      <point x="70" y="0" type="curve"/>
      <point x="212" y="0"/>
      <point x="70" y="0"/>
    </contour>
    <contour>
      <point x="128" y="0" type="curve"/>
      <point x="311" y="0"/>
      <point x="494" y="0"/>
      <point x="678" y="0" type="curve"/>
      <point x="678" y="104"/>
      <point x="678" y="0"/>
      <point x="678" y="104" type="curve"/>
      <point x="494" y="104"/>
      <point x="311" y="104"/>
      <point x="128" y="104" type="curve"/>
      <point x="128" y="0"/>
      <point x="128" y="104"/>
    </contour>
    <contour>
      <point x="291" y="850" type="curve"/>
      <point x="291" y="896"/>
      <point x="255" y="918"/>
      <point x="207" y="918" type="curve"/>
      <point x="159" y="918"/>
      <point x="126" y="894"/>
      <point x="126" y="850" type="curve"/>
      <point x="288" y="850"/>
      <point x="129" y="850"/>
      <point x="291" y="850" type="curve"/>
      <point x="291" y="803"/>
      <point x="255" y="783"/>
      <point x="206" y="783" type="curve"/>
      <point x="158" y="783"/>
      <point x="126" y="806"/>
      <point x="126" y="850" type="curve"/>
      <point x="288" y="850"/>
      <point x="129" y="850"/>
    </contour>
    <contour>
      <point x="517" y="850" type="curve"/>
      <point x="517" y="896"/>
      <point x="481" y="918"/>
      <point x="433" y="918" type="curve"/>
      <point x="385" y="918"/>
      <point x="352" y="894"/>
      <point x="352" y="850" type="curve"/>
      <point x="514" y="850"/>
      <point x="355" y="850"/>
      <point x="517" y="850" type="curve"/>
      <point x="517" y="803"/>
      <point x="481" y="783"/>
      <point x="432" y="783" type="curve"/>
      <point x="384" y="783"/>
      <point x="352" y="806"/>
      <point x="352" y="850" type="curve"/>
      <point x="514" y="850"/>
      <point x="355" y="850"/>
    </contour>
  </outline>
</glyph>
<glyph name="Igrave" format="1">
  <advance width="313"/>
  <unicode hex="00CC"/>
  <outline>
    <contour>
      <point x="230" y="0" type="curve"/>
      <point x="230" y="241"/>
      <point x="230" y="481"/>
      <point x="230" y="722" type="curve"/>
      <point x="88" y="722"/>
      <point x="230" y="722"/>
      <point x="88" y="722" type="curve"/>
      <point x="88" y="481"/>
      <point x="88" y="241"/>
      <point x="88" y="0" type="curve"/>
      <point x="230" y="0"/>
      <point x="88" y="0"/>
    </contour>
    <contour>
      <point x="241" y="785" type="line"/>
      <point x="94" y="951" type="line"/>
      <point x="-89" y="951" type="line"/>
      <point x="98" y="785" type="line"/>
    </contour>
  </outline>
</glyph>
<glyph name="Iacute" format="1">
  <advance width="318"/>
  <unicode hex="00CD"/>
  <outline>
    <contour>
      <point x="226" y="0" type="curve"/>
      <point x="226" y="241"/>
      <point x="226" y="481"/>
      <point x="226" y="722" type="curve"/>
      <point x="84" y="722"/>
      <point x="226" y="722"/>
      <point x="84" y="722" type="curve"/>
      <point x="84" y="481"/>
      <point x="84" y="241"/>
      <point x="84" y="0" type="curve"/>
      <point x="226" y="0"/>
      <point x="84" y="0"/>
    </contour>
    <contour>
      <point x="213" y="785" type="line"/>
      <point x="399" y="951" type="line"/>
      <point x="216" y="951" type="line"/>
      <point x="73" y="785" type="line"/>
    </contour>
  </outline>
</glyph>
<glyph name="Icircumflex" format="1">
  <advance width="344"/>
  <unicode hex="00CE"/>
  <outline>
    <contour>
      <point x="247" y="0" type="curve"/>
      <point x="247" y="241"/>
      <point x="247" y="481"/>
      <point x="247" y="722" type="curve"/>
      <point x="105" y="722"/>
      <point x="247" y="722"/>
      <point x="105" y="722" type="curve"/>
      <point x="105" y="481"/>
      <point x="105" y="241"/>
      <point x="105" y="0" type="curve"/>
      <point x="247" y="0"/>
      <point x="105" y="0"/>
    </contour>
    <contour>
      <point x="58" y="787" type="line"/>
      <point x="245" y="953" type="line"/>
      <point x="61" y="953" type="line"/>
      <point x="-82" y="787" type="line"/>
    </contour>
    <contour>
      <point x="435" y="787" type="line"/>
      <point x="289" y="953" type="line"/>
      <point x="106" y="953" type="line"/>
      <point x="292" y="787" type="line"/>
    </contour>
  </outline>
</glyph>
<glyph name="Idieresis" format="1">
  <advance width="333"/>
  <unicode hex="00CF"/>
  <outline>
    <contour>
      <point x="241" y="0" type="curve"/>
      <point x="241" y="241"/>
      <point x="241" y="481"/>
      <point x="241" y="722" type="curve"/>
      <point x="99" y="722"/>
      <point x="241" y="722"/>
      <point x="99" y="722" type="curve"/>
      <point x="99" y="481"/>
      <point x="99" y="241"/>
      <point x="99" y="0" type="curve"/>
      <point x="241" y="0"/>
      <point x="99" y="0"/>
    </contour>
    <contour>
      <point x="140" y="850" type="curve"/>
      <point x="140" y="896"/>
      <point x="104" y="918"/>
      <point x="56" y="918" type="curve"/>
      <point x="8" y="918"/>
      <point x="-25" y="894"/>
      <point x="-25" y="850" type="curve"/>
      <point x="137" y="850"/>
      <point x="-23" y="850"/>
      <point x="140" y="850" type="curve"/>
      <point x="140" y="803"/>
      <point x="104" y="783"/>
      <point x="55" y="783" type="curve"/>
      <point x="7" y="783"/>
      <point x="-25" y="806"/>
      <point x="-25" y="850" type="curve"/>
      <point x="137" y="850"/>
      <point x="-23" y="850"/>
    </contour>
    <contour>
      <point x="366" y="850" type="curve"/>
      <point x="366" y="896"/>
      <point x="330" y="918"/>
      <point x="282" y="918" type="curve"/>
      <point x="234" y="918"/>
      <point x="200" y="894"/>
      <point x="200" y="850" type="curve"/>
      <point x="363" y="850"/>
      <point x="203" y="850"/>
      <point x="366" y="850" type="curve"/>
      <point x="366" y="803"/>
      <point x="330" y="783"/>
      <point x="281" y="783" type="curve"/>
      <point x="233" y="783"/>
      <point x="200" y="806"/>
      <point x="200" y="850" type="curve"/>
      <point x="363" y="850"/>
      <point x="203" y="850"/>
    </contour>
  </outline>
</glyph>
<glyph name="Ntilde" format="1">
  <advance width="980"/>
  <unicode hex="00D1"/>
  <outline>
    <contour>
      <point x="904" y="0" type="curve"/>
      <point x="683" y="239"/>
      <point x="465" y="483"/>
      <point x="244" y="722" type="curve"/>
      <point x="73" y="722"/>
      <point x="243" y="722"/>
      <point x="72" y="722" type="curve"/>
      <point x="293" y="483"/>
      <point x="512" y="239"/>
      <point x="733" y="0" type="curve"/>
      <point x="904" y="0"/>
      <point x="734" y="0"/>
    </contour>
    <contour>
      <point x="767" y="722" type="curve"/>
      <point x="767" y="481"/>
      <point x="767" y="241"/>
      <point x="767" y="0" type="curve"/>
      <point x="908" y="0"/>
      <point x="767" y="0"/>
      <point x="908" y="0" type="curve"/>
      <point x="908" y="241"/>
      <point x="908" y="481"/>
      <point x="908" y="722" type="curve"/>
      <point x="767" y="722"/>
      <point x="908" y="722"/>
    </contour>
    <contour>
      <point x="213" y="0" type="curve"/>
      <point x="213" y="241"/>
      <point x="213" y="481"/>
      <point x="213" y="722" type="curve"/>
      <point x="72" y="722"/>
      <point x="213" y="722"/>
      <point x="72" y="722" type="curve"/>
      <point x="72" y="481"/>
      <point x="72" y="241"/>
      <point x="72" y="0" type="curve"/>
      <point x="213" y="0"/>
      <point x="72" y="0"/>
    </contour>
    <contour>
      <point x="662" y="959" type="curve"/>
      <point x="650" y="920"/>
      <point x="629" y="885"/>
      <point x="597" y="885" type="curve"/>
      <point x="560" y="885"/>
      <point x="538" y="896"/>
      <point x="509" y="918" type="curve"/>
      <point x="466" y="952"/>
      <point x="432" y="966"/>
      <point x="378" y="966" type="curve"/>
      <point x="292" y="966"/>
      <point x="240" y="918"/>
      <point x="205" y="830" type="curve"/>
      <point x="310" y="780"/>
      <point x="207" y="829"/>
      <point x="311" y="780" type="curve"/>
      <point x="329" y="827"/>
      <point x="351" y="855"/>
      <point x="384" y="855" type="curve"/>
      <point x="418" y="855"/>
      <point x="438" y="841"/>
      <point x="464" y="821" type="curve"/>
      <point x="512" y="785"/>
      <point x="545" y="774"/>
      <point x="601" y="774" type="curve"/>
      <point x="691" y="774"/>
      <point x="741" y="826"/>
      <point x="772" y="911" type="curve"/>
      <point x="663" y="958"/>
      <point x="772" y="910"/>
    </contour>
  </outline>
</glyph>
<glyph name="Ocircumflex" format="1">
  <advance width="929"/>
  <unicode hex="00D4"/>
  <outline>
    <contour>
      <point x="182" y="360" type="curve" name="FullCurve"/>
      <point x="182" y="523"/>
      <point x="288" y="617"/>
      <point x="459" y="617" type="curve" name="FullCurve"/>
      <point x="633" y="617"/>
      <point x="748" y="528"/>
      <point x="748" y="363" type="curve" name="FullCurve"/>
      <point x="748" y="200"/>
      <point x="640" y="106"/>
      <point x="469" y="106" type="curve" name="FullCurve"/>
      <point x="294" y="106"/>
      <point x="182" y="195"/>
      <point x="182" y="360" type="curve" name="FullCurve"/>
      <point x="41" y="360"/>
      <point x="182" y="360"/>
      <point x="41" y="360" type="curve" name="FullCurve"/>
      <point x="41" y="122"/>
      <point x="212" y="-5"/>
      <point x="462" y="-5" type="curve" name="FullCurve"/>
      <point x="716" y="-5"/>
      <point x="889" y="123"/>
      <point x="889" y="363" type="curve" name="FullCurve"/>
      <point x="889" y="599"/>
      <point x="719" y="727"/>
      <point x="470" y="727" type="curve" name="FullCurve"/>
      <point x="215" y="727"/>
      <point x="41" y="600"/>
      <point x="41" y="360" type="curve" name="FullCurve"/>
      <point x="182" y="360"/>
      <point x="41" y="360"/>
    </contour>
    <contour>
      <point x="351" y="787" type="line"/>
      <point x="538" y="953" type="line"/>
      <point x="354" y="953" type="line"/>
      <point x="211" y="787" type="line"/>
    </contour>
    <contour>
      <point x="729" y="787" type="line"/>
      <point x="582" y="953" type="line"/>
      <point x="399" y="953" type="line"/>
      <point x="586" y="787" type="line"/>
    </contour>
  </outline>
</glyph>
<glyph name="Otilde" format="1">
  <advance width="929"/>
  <unicode hex="00D5"/>
  <outline>
    <contour>
      <point x="182" y="360" type="curve" name="FullCurve"/>
      <point x="182" y="523"/>
      <point x="288" y="617"/>
      <point x="459" y="617" type="curve" name="FullCurve"/>
      <point x="633" y="617"/>
      <point x="748" y="528"/>
      <point x="748" y="363" type="curve" name="FullCurve"/>
      <point x="748" y="200"/>
      <point x="640" y="106"/>
      <point x="469" y="106" type="curve" name="FullCurve"/>
      <point x="294" y="106"/>
      <point x="182" y="195"/>
      <point x="182" y="360" type="curve" name="FullCurve"/>
      <point x="41" y="360"/>
      <point x="182" y="360"/>
      <point x="41" y="360" type="curve" name="FullCurve"/>
      <point x="41" y="122"/>
      <point x="212" y="-5"/>
      <point x="462" y="-5" type="curve" name="FullCurve"/>
      <point x="716" y="-5"/>
      <point x="889" y="123"/>
      <point x="889" y="363" type="curve" name="FullCurve"/>
      <point x="889" y="599"/>
      <point x="719" y="727"/>
      <point x="470" y="727" type="curve" name="FullCurve"/>
      <point x="215" y="727"/>
      <point x="41" y="600"/>
      <point x="41" y="360" type="curve" name="FullCurve"/>
      <point x="182" y="360"/>
      <point x="41" y="360"/>
    </contour>
    <contour>
      <point x="643" y="959" type="curve"/>
      <point x="630" y="920"/>
      <point x="610" y="885"/>
      <point x="577" y="885" type="curve"/>
      <point x="540" y="885"/>
      <point x="519" y="896"/>
      <point x="490" y="918" type="curve"/>
      <point x="447" y="952"/>
      <point x="413" y="966"/>
      <point x="359" y="966" type="curve"/>
      <point x="272" y="966"/>
      <point x="220" y="918"/>
      <point x="186" y="830" type="curve"/>
      <point x="290" y="780"/>
      <point x="187" y="829"/>
      <point x="291" y="780" type="curve"/>
      <point x="309" y="827"/>
      <point x="331" y="855"/>
      <point x="364" y="855" type="curve"/>
      <point x="399" y="855"/>
      <point x="418" y="841"/>
      <point x="445" y="821" type="curve"/>
      <point x="492" y="785"/>
      <point x="525" y="774"/>
      <point x="581" y="774" type="curve"/>
      <point x="671" y="774"/>
      <point x="722" y="826"/>
      <point x="753" y="911" type="curve"/>
      <point x="644" y="958"/>
      <point x="752" y="910"/>
    </contour>
  </outline>
</glyph>
<glyph name="Odieresis" format="1">
  <advance width="929"/>
  <unicode hex="00D6"/>
  <outline>
    <contour>
      <point x="182" y="360" type="curve" name="FullCurve"/>
      <point x="182" y="523"/>
      <point x="288" y="617"/>
      <point x="459" y="617" type="curve" name="FullCurve"/>
      <point x="633" y="617"/>
      <point x="748" y="528"/>
      <point x="748" y="363" type="curve" name="FullCurve"/>
      <point x="748" y="200"/>
      <point x="640" y="106"/>
      <point x="469" y="106" type="curve" name="FullCurve"/>
      <point x="294" y="106"/>
      <point x="182" y="195"/>
      <point x="182" y="360" type="curve" name="FullCurve"/>
      <point x="41" y="360"/>
      <point x="182" y="360"/>
      <point x="41" y="360" type="curve" name="FullCurve"/>
      <point x="41" y="122"/>
      <point x="212" y="-5"/>
      <point x="462" y="-5" type="curve" name="FullCurve"/>
      <point x="716" y="-5"/>
      <point x="889" y="123"/>
      <point x="889" y="363" type="curve" name="FullCurve"/>
      <point x="889" y="599"/>
      <point x="719" y="727"/>
      <point x="470" y="727" type="curve" name="FullCurve"/>
      <point x="215" y="727"/>
      <point x="41" y="600"/>
      <point x="41" y="360" type="curve" name="FullCurve"/>
      <point x="182" y="360"/>
      <point x="41" y="360"/>
    </contour>
    <contour>
      <point x="439" y="850" type="curve"/>
      <point x="439" y="896"/>
      <point x="403" y="918"/>
      <point x="355" y="918" type="curve"/>
      <point x="307" y="918"/>
      <point x="274" y="894"/>
      <point x="274" y="850" type="curve"/>
      <point x="436" y="850"/>
      <point x="277" y="850"/>
      <point x="439" y="850" type="curve"/>
      <point x="439" y="803"/>
      <point x="403" y="783"/>
      <point x="354" y="783" type="curve"/>
      <point x="306" y="783"/>
      <point x="274" y="806"/>
      <point x="274" y="850" type="curve"/>
      <point x="436" y="850"/>
      <point x="277" y="850"/>
    </contour>
    <contour>
      <point x="665" y="850" type="curve"/>
      <point x="665" y="896"/>
      <point x="629" y="918"/>
      <point x="581" y="918" type="curve"/>
      <point x="533" y="918"/>
      <point x="500" y="894"/>
      <point x="500" y="850" type="curve"/>
      <point x="662" y="850"/>
      <point x="503" y="850"/>
      <point x="665" y="850" type="curve"/>
      <point x="665" y="803"/>
      <point x="629" y="783"/>
      <point x="580" y="783" type="curve"/>
      <point x="532" y="783"/>
      <point x="500" y="806"/>
      <point x="500" y="850" type="curve"/>
      <point x="662" y="850"/>
      <point x="503" y="850"/>
    </contour>
  </outline>
</glyph>
<glyph name="multiply" format="1">
  <advance width="609"/>
  <unicode hex="00D7"/>
  <outline>
    <contour>
      <point x="122" y="48" type="line"/>
      <point x="567" y="495" type="line"/>
      <point x="487" y="576" type="line"/>
      <point x="41" y="129" type="line"/>
    </contour>
    <contour>
      <point x="568" y="128" type="line"/>
      <point x="122" y="576" type="line"/>
      <point x="42" y="496" type="line"/>
      <point x="487" y="48" type="line"/>
    </contour>
  </outline>
</glyph>
